<?xml version="1.0" standalone="no"?>
<!DOCTYPE svg PUBLIC "-//W3C//DTD SVG 1.1//EN" "http://www.w3.org/Graphics/SVG/1.1/DTD/svg11.dtd" >
<svg xmlns="http://www.w3.org/2000/svg" xmlns:xlink="http://www.w3.org/1999/xlink" version="1.1">
<metadata>
Created by FontForge 20201107 at Tue Aug 23 06:32:39 2016
 By 
(c) 2014 Klim Type Foundry. All Rights Reserved.
</metadata>
<defs>
<font id="DomaineSansText-Light" horiz-adv-x="640" >
  <font-face 
    font-family="Copyright Klim Type Foundry"
    font-weight="300"
    font-stretch="normal"
    units-per-em="1000"
    panose-1="2 11 4 3 7 7 2 4 2 3"
    ascent="800"
    descent="-200"
    x-height="485"
    cap-height="700"
    bbox="-153 -262 1251 978"
    underline-thickness="0"
    underline-position="0"
    unicode-range="U+000D-FB04"
  />
<missing-glyph horiz-adv-x="500" 
 />
    <glyph glyph-name="ff" unicode="ff" horiz-adv-x="679" 
d="M188 519v-34h259v84q0 18 1.5 33t5.5 28q-18 36 -50 53.5t-80 17.5q-68 0 -102 -46t-34 -136zM447 438h-259v-438h-74v438h-82v47h82v25q0 111 56.5 175t152.5 64q49 0 87 -17t65 -51q22 37 58 57t83 20q53 0 87.5 -27t34.5 -70q0 -13 -4.5 -26t-12.5 -21l-42 14
q5 9 6.5 14.5t1.5 11.5q0 26 -19 41.5t-51 15.5q-47 0 -71.5 -33.5t-24.5 -99.5v-93h147l-5 -47h-142v-438h-74v438z" />
    <glyph glyph-name="fi" unicode="fi" horiz-adv-x="625" 
d="M188 438v-438h-74v438h-82v47h82v35q0 115 58 177t163 62q75 0 119.5 -35t44.5 -92q0 -19 -10 -41t-24 -37l-45 15q15 22 19.5 35t4.5 27q0 38 -28 59t-81 21q-75 0 -111 -45t-36 -137v-44h333v-485h-74v438h-259z" />
    <glyph glyph-name="fl" unicode="fl" horiz-adv-x="625" 
d="M521 0h-74v626q-19 40 -51 62.5t-72 22.5q-68 0 -102 -46t-34 -136v-44h167l-5 -47h-162v-438h-74v438h-82v47h82v35q0 112 55 175.5t151 63.5q40 0 75.5 -17.5t56.5 -48.5l10 56h59v-749z" />
    <glyph glyph-name="ffi" unicode="ffi" horiz-adv-x="958" 
d="M188 519v-34h259v35q0 28 3.5 53.5t10.5 47.5q-22 40 -56.5 60t-80.5 20q-68 0 -102 -46t-34 -136zM447 438h-259v-438h-74v438h-82v47h82v25q0 111 56.5 175t152.5 64q53 0 93.5 -20.5t66.5 -59.5q28 44 75 67t110 23q75 0 119.5 -35t44.5 -92q0 -19 -10 -41t-24 -37
l-45 15q15 22 19.5 35t4.5 27q0 38 -28 59t-81 21q-75 0 -111 -45t-36 -137v-44h333v-485h-74v438h-259v-438h-74v438z" />
    <glyph glyph-name="ffl" unicode="ffl" horiz-adv-x="958" 
d="M188 519v-34h259v35q0 28 3.5 53.5t10.5 47.5q-22 40 -56.5 60t-80.5 20q-68 0 -102 -46t-34 -136zM447 438h-259v-438h-74v438h-82v47h82v25q0 111 56.5 175t152.5 64q52 0 92 -20t68 -60q27 44 70.5 67t99.5 23q40 0 75.5 -17.5t56.5 -48.5l10 56h59v-749h-74v626
q-19 40 -51 62.5t-72 22.5q-68 0 -102 -46t-34 -136v-44h167l-5 -47h-162v-438h-74v438z" />
    <glyph glyph-name="f_b" unicode="fb" horiz-adv-x="970" 
d="M701 495q94 0 155.5 -68t61.5 -177q0 -111 -66.5 -185.5t-160.5 -74.5q-60 0 -104.5 26t-65.5 72l-8 -88h-66v626q-19 40 -51 62.5t-72 22.5q-68 0 -102 -46t-34 -136v-44h167l-5 -47h-162v-438h-74v438h-82v47h82v35q0 112 55 175.5t151 63.5q40 0 75.5 -17.5
t56.5 -48.5l10 56h59v-385q19 59 67.5 95t112.5 36zM676 444q-66 0 -111 -56.5t-45 -134.5v-52q0 -71 45.5 -116.5t107.5 -45.5q75 0 120.5 57.5t45.5 153.5q0 87 -45 140.5t-118 53.5z" />
    <glyph glyph-name="f_f_b" unicode="ffb" horiz-adv-x="1303" 
d="M1251 250q0 -111 -66.5 -185.5t-160.5 -74.5q-60 0 -104.5 26t-65.5 72l-8 -88h-66v626q-19 40 -51 62.5t-72 22.5q-68 0 -102 -46t-34 -136v-44h167l-5 -47h-162v-438h-74v438h-259v-438h-74v438h-82v47h82v25q0 111 56.5 175t152.5 64q52 0 92 -20t68 -60
q27 44 70.5 67t99.5 23q40 0 75.5 -17.5t56.5 -48.5l10 56h59v-385q19 59 67.5 95t112.5 36q94 0 155.5 -68t61.5 -177zM188 519v-34h259v35q0 28 3.5 53.5t10.5 47.5q-22 40 -56.5 60t-80.5 20q-68 0 -102 -46t-34 -136zM1009 444q-66 0 -111 -56.5t-45 -134.5v-52
q0 -71 45.5 -116.5t107.5 -45.5q75 0 120.5 57.5t45.5 153.5q0 87 -45 140.5t-118 53.5z" />
    <glyph glyph-name="f_h" unicode="fh" horiz-adv-x="954" 
d="M350 438h-162v-438h-74v438h-82v47h82v35q0 112 55 175.5t151 63.5q40 0 75.5 -17.5t56.5 -48.5l10 56h59v-381q21 60 67.5 93.5t109.5 33.5q75 0 117.5 -46.5t42.5 -127.5v-321h-74v306q0 61 -30.5 97.5t-85.5 36.5q-63 0 -105 -53.5t-42 -136.5v-250h-74v626
q-19 40 -51 62.5t-72 22.5q-68 0 -102 -46t-34 -136v-44h167z" />
    <glyph glyph-name="f_f_h" unicode="ffh" horiz-adv-x="1287" 
d="M188 519v-34h259v35q0 28 3.5 53.5t10.5 47.5q-22 40 -56.5 60t-80.5 20q-68 0 -102 -46t-34 -136zM447 438h-259v-438h-74v438h-82v47h82v25q0 111 56.5 175t152.5 64q52 0 92 -20t68 -60q27 44 70.5 67t99.5 23q40 0 75.5 -17.5t56.5 -48.5l10 56h59v-381
q21 60 67.5 93.5t109.5 33.5q75 0 117.5 -46.5t42.5 -127.5v-321h-74v306q0 61 -30.5 97.5t-85.5 36.5q-63 0 -105 -53.5t-42 -136.5v-250h-74v626q-19 40 -51 62.5t-72 22.5q-68 0 -102 -46t-34 -136v-44h167l-5 -47h-162v-438h-74v438z" />
    <glyph glyph-name="f_idieresis" unicode="f&#xef;" horiz-adv-x="625" 
d="M608 593h-82v103h82v-103zM32 485h82v84q0 83 49 136t128 53q60 0 95.5 -30.5t35.5 -80.5q0 -13 -5.5 -28.5t-13.5 -23.5l-46 14q5 9 7.5 18t2.5 18q0 32 -19 49t-56 17q-49 0 -76.5 -35.5t-27.5 -97.5v-93h333v-485h-74v438h-259v-438h-74v438h-82v47z" />
    <glyph glyph-name="f_f_idieresis" unicode="ff&#xef;" horiz-adv-x="958" 
d="M188 519v-34h259v84q0 16 2 31.5t6 30.5q-21 35 -54.5 52.5t-76.5 17.5q-68 0 -102 -46t-34 -136zM941 593h-82v103h82v-103zM447 438h-259v-438h-74v438h-82v47h82v25q0 111 56.5 175t152.5 64q49 0 88 -18t65 -52q23 38 61.5 58.5t86.5 20.5q60 0 95.5 -30.5
t35.5 -80.5q0 -13 -5.5 -28.5t-13.5 -23.5l-46 14q5 9 7.5 18t2.5 18q0 32 -19 49t-56 17q-49 0 -76.5 -35.5t-27.5 -97.5v-93h333v-485h-74v438h-259v-438h-74v438z" />
    <glyph glyph-name="f_j" unicode="fj" horiz-adv-x="625" 
d="M372 -225q-55 0 -86.5 26t-31.5 71q0 12 4 23.5t10 19.5l45 -12q-3 -5 -4.5 -12t-1.5 -16q0 -26 16 -40.5t45 -14.5q42 0 60.5 29.5t18.5 98.5v490h-259v-438h-74v438h-82v47h82v35q0 115 58 177t163 62q75 0 119.5 -35t44.5 -92q0 -19 -10 -41t-24 -37l-45 15
q15 22 19.5 35t4.5 27q0 38 -28 59t-81 21q-75 0 -111 -45t-36 -137v-44h333v-525q0 -84 -40 -134.5t-109 -50.5z" />
    <glyph glyph-name="f_f_j" unicode="ffj" horiz-adv-x="958" 
d="M188 519v-34h259v35q0 28 3.5 53.5t10.5 47.5q-22 40 -56.5 60t-80.5 20q-68 0 -102 -46t-34 -136zM705 -225q-55 0 -86.5 26t-31.5 71q0 12 4 23.5t10 19.5l45 -12q-3 -5 -4.5 -12t-1.5 -16q0 -26 16 -40.5t45 -14.5q42 0 60.5 29.5t18.5 98.5v490h-259v-438h-74v438
h-259v-438h-74v438h-82v47h82v25q0 111 56.5 175t152.5 64q53 0 93.5 -20.5t66.5 -59.5q28 44 75 67t110 23q75 0 119.5 -35t44.5 -92q0 -19 -10 -41t-24 -37l-45 15q15 22 19.5 35t4.5 27q0 38 -28 59t-81 21q-75 0 -111 -45t-36 -137v-44h333v-525q0 -84 -40 -134.5
t-109 -50.5z" />
    <glyph glyph-name="f_k" unicode="fk" horiz-adv-x="918" 
d="M350 438h-162v-438h-74v438h-82v47h82v35q0 112 55 175.5t151 63.5q40 0 75.5 -17.5t56.5 -48.5l10 56h59v-513l270 249h79l-223 -201l229 -284h-90l-191 238l-74 -67v-171h-74v626q-19 40 -51 62.5t-72 22.5q-68 0 -102 -46t-34 -136v-44h167z" />
    <glyph glyph-name="f_f_k" unicode="ffk" horiz-adv-x="1251" 
d="M188 519v-34h259v35q0 28 3.5 53.5t10.5 47.5q-22 40 -56.5 60t-80.5 20q-68 0 -102 -46t-34 -136zM447 438h-259v-438h-74v438h-82v47h82v25q0 111 56.5 175t152.5 64q52 0 92 -20t68 -60q27 44 70.5 67t99.5 23q40 0 75.5 -17.5t56.5 -48.5l10 56h59v-513l270 249h79
l-223 -201l229 -284h-90l-191 238l-74 -67v-171h-74v626q-19 40 -51 62.5t-72 22.5q-68 0 -102 -46t-34 -136v-44h167l-5 -47h-162v-438h-74v438z" />
    <glyph glyph-name=".notdef" horiz-adv-x="500" 
 />
    <glyph glyph-name=".null" horiz-adv-x="0" 
 />
    <glyph glyph-name="nonmarkingreturn" unicode="&#xd;" horiz-adv-x="500" 
 />
    <glyph glyph-name="NULL" horiz-adv-x="500" 
 />
    <glyph glyph-name="NULL" horiz-adv-x="500" 
 />
    <glyph glyph-name="space" unicode=" " horiz-adv-x="280" 
 />
    <glyph glyph-name="exclam" unicode="!" horiz-adv-x="265" 
d="M117 205l-34 495h100l-34 -495h-32zM183 0h-101v109h101v-109z" />
    <glyph glyph-name="quotedbl" unicode="&#x22;" horiz-adv-x="412" 
d="M170 700l-34 -281h-32l-34 281h100zM342 700l-34 -281h-32l-34 281h100z" />
    <glyph glyph-name="numbersign" unicode="#" horiz-adv-x="656" 
d="M245 243h135l30 213h-135zM392 0h-47l28 197h-135l-28 -197h-48l28 197h-150l10 46h147l30 213h-167l9 45h165l28 199h48l-28 -199h135l28 199h47l-28 -199h152l-11 -45h-148l-30 -213h169l-10 -46h-166z" />
    <glyph glyph-name="dollar" unicode="$" horiz-adv-x="600" 
d="M142 534q0 -49 29.5 -77t107.5 -48l4 -1v248q-63 -4 -102 -37.5t-39 -84.5zM477 183q0 49 -27.5 77.5t-102.5 50.5l-19 5v-272q69 5 109 42t40 97zM328 -10v-113h-45v114q-108 7 -172 62t-71 147l58 16q14 -83 58 -124t127 -47v284l-30 9q-102 29 -143 71t-41 112
q0 78 60 131t154 58v109h45v-110q77 -7 134 -51t76 -109l-53 -31q-17 60 -57 95t-100 42v-260l33 -10q97 -25 143 -70t46 -113q0 -90 -62.5 -148t-159.5 -64z" />
    <glyph glyph-name="percent" unicode="%" horiz-adv-x="826" 
d="M209 370q-63 0 -106 49t-43 121t43 121t106 49t106 -49t43 -121q0 -73 -42.5 -121.5t-106.5 -48.5zM658 710l-434 -720h-55l434 720h55zM209 422q41 0 66.5 32.5t25.5 85.5q0 52 -25.5 85t-66.5 33t-66 -33t-25 -85q0 -53 25 -85.5t66 -32.5zM617 -10q-63 0 -106 49
t-43 121t43 121t106 49t106 -49t43 -121q0 -73 -42.5 -121.5t-106.5 -48.5zM617 42q41 0 66.5 32.5t25.5 85.5q0 52 -25.5 85t-66.5 33t-66 -33t-25 -85q0 -53 25 -85.5t66 -32.5z" />
    <glyph glyph-name="ampersand" unicode="&#x26;" horiz-adv-x="724" 
d="M188 561q0 -30 12 -55t42 -55l47 -47q69 29 100 65.5t31 85.5q0 47 -32 76.5t-87 29.5q-52 0 -82.5 -27.5t-30.5 -72.5zM131 187q0 -63 44.5 -101t113.5 -38q45 0 88.5 20t80.5 58l-215 216q-58 -26 -85 -63.5t-27 -91.5zM689 0h-105l-88 88q-48 -48 -103 -73t-114 -25
q-101 0 -165 53t-64 139q0 60 42 111.5t117 83.5l-25 25q-33 33 -49.5 70t-16.5 75q0 72 52 117.5t131 45.5q80 0 130 -43t50 -110q0 -62 -42.5 -113t-113.5 -76l180 -183q30 45 48.5 98t22.5 104l60 -8q-5 -57 -29 -118.5t-62 -114.5z" />
    <glyph glyph-name="quotesingle" unicode="'" horiz-adv-x="240" 
d="M170 700l-34 -281h-32l-34 281h100z" />
    <glyph glyph-name="parenleft" unicode="(" horiz-adv-x="366" 
d="M68 297q0 147 58.5 266.5t168.5 195.5l31 -33q-96 -73 -145.5 -181.5t-49.5 -247.5t49.5 -247.5t145.5 -181.5l-31 -33q-110 76 -168.5 195.5t-58.5 266.5z" />
    <glyph glyph-name="parenright" unicode=")" horiz-adv-x="366" 
d="M298 297q0 -147 -58.5 -266.5t-168.5 -195.5l-31 33q96 73 145.5 181.5t49.5 247.5t-49.5 247.5t-145.5 181.5l31 33q110 -76 168.5 -195.5t58.5 -266.5z" />
    <glyph glyph-name="asterisk" unicode="*" horiz-adv-x="481" 
d="M368 410l-28 -20l-99 125l-100 -125l-28 20l89 134l-150 55l10 33l154 -43l7 160h35l7 -160l154 43l10 -33l-150 -55z" />
    <glyph glyph-name="plus" unicode="+" horiz-adv-x="633" 
d="M545 367v-55h-201v-201h-54v201h-201v55h201v200h54v-200h201z" />
    <glyph glyph-name="comma" unicode="," horiz-adv-x="243" 
d="M122 4h-51v105h101v-119q0 -65 -35 -100t-101 -35v46q47 0 66.5 21t19.5 69v13z" />
    <glyph glyph-name="hyphen" unicode="-" horiz-adv-x="391" 
d="M320 249h-249v65h249v-65z" />
    <glyph glyph-name="period" unicode="." horiz-adv-x="243" 
d="M172 0h-101v109h101v-109z" />
    <glyph glyph-name="slash" unicode="/" horiz-adv-x="413" 
d="M74 -153h-64l300 902h64z" />
    <glyph glyph-name="zero" unicode="0" horiz-adv-x="652" 
d="M326 -10q-121 0 -195.5 100t-74.5 260t74.5 260t195.5 100t195.5 -100.5t74.5 -259.5t-74.5 -259.5t-195.5 -100.5zM326 658q-88 0 -136 -80.5t-48 -227.5t48 -227.5t136 -80.5t135.5 81t47.5 227t-47.5 227t-135.5 81z" />
    <glyph glyph-name="one" unicode="1" horiz-adv-x="395" 
d="M285 710v-710h-78v565q-14 -26 -63 -65.5t-88 -55.5l-18 46q58 31 116 89.5t104 130.5h27z" />
    <glyph glyph-name="two" unicode="2" horiz-adv-x="563" 
d="M353 269q-30 -31 -74 -72t-141 -127h377l-7 -70h-471v32l191 187q96 93 133 161.5t37 137.5q0 63 -36.5 100t-99.5 37q-68 0 -107 -35t-39 -97q0 -25 14.5 -52t33.5 -42l-35 -34q-30 15 -51.5 52t-21.5 78q0 78 58 131.5t148 53.5q98 0 159 -52.5t61 -136.5
q0 -65 -29 -121.5t-100 -130.5z" />
    <glyph glyph-name="three" unicode="3" horiz-adv-x="578" 
d="M527 198q0 -90 -70.5 -149t-178.5 -59q-102 0 -165.5 49t-63.5 123q0 37 20 65.5t58 48.5l30 -35q-26 -18 -36.5 -36t-10.5 -40q0 -54 46 -90t111 -36q82 0 127 40.5t45 113.5q0 76 -50.5 118t-142.5 42h-17v48h17q85 1 127.5 35t42.5 101q0 57 -35 90.5t-97 33.5
q-65 0 -104.5 -30.5t-39.5 -82.5q0 -20 9 -35t28 -25l-24 -40q-35 12 -54 39.5t-19 65.5q0 64 58.5 110.5t147.5 46.5q99 0 156 -46t57 -127q0 -62 -50 -107t-119 -49v-2q89 -5 143 -55.5t54 -125.5z" />
    <glyph glyph-name="four" unicode="4" horiz-adv-x="630" 
d="M440 252h154v-57h-154v-195h-74v195h-330v44l330 461h74v-448zM110 252h256v361z" />
    <glyph glyph-name="five" unicode="5" horiz-adv-x="562" 
d="M145 700h347l-9 -76h-295l-27 -215q24 21 57.5 32.5t72.5 11.5q97 0 156.5 -59t59.5 -157q0 -109 -72.5 -178t-188.5 -69q-92 0 -151.5 46.5t-59.5 117.5q0 33 16 59.5t49 46.5l32 -37q-21 -19 -28.5 -33.5t-7.5 -32.5q0 -54 42 -86t110 -32q79 0 126 54t47 148
q0 73 -40.5 116t-112.5 43q-41 0 -73.5 -15t-58.5 -45h-35z" />
    <glyph glyph-name="six" unicode="6" horiz-adv-x="598" 
d="M331 429q94 0 153.5 -60t59.5 -158q0 -95 -67 -158t-168 -63q-114 0 -183.5 93t-69.5 241q0 168 83.5 277t219.5 109q78 0 128.5 -40t50.5 -100q0 -36 -18 -61t-47 -33l-26 33q14 12 21.5 25.5t7.5 29.5q0 45 -31 70t-87 25q-107 0 -170 -99t-55 -256q19 56 73 90.5
t125 34.5zM308 375q-71 0 -113.5 -45t-42.5 -121q0 -75 43.5 -121.5t112.5 -46.5q73 0 115.5 45.5t42.5 122.5q0 76 -42.5 121t-115.5 45z" />
    <glyph glyph-name="seven" unicode="7" horiz-adv-x="530" 
d="M51 624v76h463v-44l-55 -77q-91 -131 -142 -283t-51 -296h-72q12 175 60.5 312t150.5 279l24 33h-378z" />
    <glyph glyph-name="eight" unicode="8" horiz-adv-x="588" 
d="M498 546q0 -59 -37 -103t-102 -66q97 -37 137.5 -82.5t40.5 -115.5q0 -80 -69 -134.5t-173 -54.5q-111 0 -177.5 51t-66.5 137q0 60 40 107t117 77q-59 28 -87.5 70t-28.5 100q0 76 58.5 127t146.5 51q86 0 143.5 -46.5t57.5 -117.5zM297 661q-60 0 -95.5 -31.5
t-35.5 -85.5q0 -44 22 -75t65 -48l69 -29q63 33 89.5 69.5t26.5 84.5q0 52 -38.5 83.5t-102.5 31.5zM461 177q0 44 -29 74.5t-96 56.5l-93 37q-74 -39 -102 -77t-28 -88q0 -64 50 -102.5t132 -38.5q71 0 118.5 38.5t47.5 99.5z" />
    <glyph glyph-name="nine" unicode="9" horiz-adv-x="598" 
d="M267 271q-94 0 -153.5 60t-59.5 158q0 95 67 158t168 63q114 0 183.5 -93t69.5 -241q0 -168 -83.5 -277t-219.5 -109q-78 0 -128.5 40t-50.5 100q0 36 18 61t47 33l26 -33q-14 -12 -21.5 -25.5t-7.5 -29.5q0 -45 31 -70t87 -25q107 0 170 99t55 256q-19 -56 -73 -90.5
t-125 -34.5zM290 325q71 0 113.5 45t42.5 121q0 75 -43.5 121.5t-112.5 46.5q-73 0 -115.5 -45.5t-42.5 -122.5q0 -76 42.5 -121t115.5 -45z" />
    <glyph glyph-name="colon" unicode=":" horiz-adv-x="243" 
d="M172 0h-101v109h101v-109zM172 321h-101v109h101v-109z" />
    <glyph glyph-name="semicolon" unicode=";" horiz-adv-x="243" 
d="M122 4h-51v105h101v-119q0 -65 -35 -100t-101 -35v46q47 0 66.5 21t19.5 69v13zM172 321h-101v109h101v-109z" />
    <glyph glyph-name="less" unicode="&#x3c;" horiz-adv-x="507" 
d="M429 114l-347 190v68l347 189v-65l-294 -159l294 -157v-66z" />
    <glyph glyph-name="equal" unicode="=" horiz-adv-x="653" 
d="M555 381h-457v54h457v-54zM555 242h-457v54h457v-54z" />
    <glyph glyph-name="greater" unicode="&#x3e;" horiz-adv-x="507" 
d="M425 372v-68l-348 -190v66l295 157l-295 159v65z" />
    <glyph glyph-name="question" unicode="?" horiz-adv-x="525" 
d="M403 533q0 56 -39 90t-105 34q-67 0 -106.5 -33t-39.5 -91q0 -17 7 -36t21 -37l-46 -29q-20 21 -31 47.5t-11 54.5q0 76 57.5 126.5t147.5 50.5q99 0 156.5 -52.5t57.5 -134.5q0 -81 -52.5 -139.5t-147.5 -84.5v-104h-49v171q83 15 131.5 59t48.5 108zM295 0h-101v109
h101v-109z" />
    <glyph glyph-name="at" unicode="@" horiz-adv-x="968" 
d="M652 423h49l-65 -266q-11 -44 5.5 -68t57.5 -24q67 0 112 63.5t45 170.5q0 140 -95 222t-251 82q-164 0 -273.5 -112t-109.5 -284q0 -162 105 -262t273 -100q83 0 146 17.5t119 55.5l25 -35q-56 -42 -130 -64t-160 -22q-192 0 -314 114.5t-122 296.5q0 92 32.5 173.5
t93.5 142.5q62 62 143.5 95.5t171.5 33.5q175 0 287.5 -97.5t112.5 -256.5q0 -56 -13 -103.5t-39 -84.5q-30 -44 -74.5 -69t-90.5 -25q-56 0 -90 29t-34 79q-22 -48 -62.5 -77t-87.5 -29q-60 0 -97.5 40.5t-37.5 107.5q0 108 66.5 186.5t158.5 78.5q44 0 75 -23t38 -58z
M437 67q47 0 84 39.5t54 106.5l11 46q14 58 -7 95t-65 37q-62 0 -108 -67.5t-46 -156.5q0 -46 21 -73t56 -27z" />
    <glyph glyph-name="A" unicode="A" horiz-adv-x="719" 
d="M221 283h256l-129 307zM679 0h-84l-98 233h-297l-97 -233h-63l300 707h42z" />
    <glyph glyph-name="B" unicode="B" horiz-adv-x="682" 
d="M620 189q0 -91 -66.5 -140t-186.5 -49h-256v700h230q120 0 185 -46t65 -132q0 -66 -50 -111t-126 -49v-2q95 -3 150 -48.5t55 -122.5zM333 649h-145v-263h143q89 0 133.5 33.5t44.5 99.5q0 63 -45.5 96.5t-130.5 33.5zM538 192q0 70 -50 105.5t-148 35.5h-152v-282h168
q88 0 135 36t47 105z" />
    <glyph glyph-name="C" unicode="C" horiz-adv-x="719" 
d="M397 -10q-149 0 -249 101t-100 255q0 156 100.5 260t250.5 104q93 0 163 -42t116 -125l-46 -43q-39 78 -95.5 115t-136.5 37q-117 0 -190 -83t-73 -221q0 -135 74 -217t188 -82q82 0 139 37.5t95 117.5l46 -29q-47 -93 -117 -139t-165 -46z" />
    <glyph glyph-name="D" unicode="D" horiz-adv-x="748" 
d="M701 351q0 -162 -103 -256.5t-282 -94.5h-205v700h203q180 0 283.5 -94t103.5 -255zM614 351q0 140 -81 219.5t-226 79.5h-119v-600h121q145 0 225 79.5t80 221.5z" />
    <glyph glyph-name="E" unicode="E" horiz-adv-x="653" 
d="M593 0h-482v700h470v-53h-393v-261h296v-53h-296v-280h405v-53z" />
    <glyph glyph-name="F" unicode="F" horiz-adv-x="609" 
d="M188 0h-77v700h452v-53h-375v-276h296v-53h-296v-318z" />
    <glyph glyph-name="G" unicode="G" horiz-adv-x="773" 
d="M684 319v-319h-42l-26 108q-26 -52 -87 -85t-132 -33q-153 0 -251 100t-98 256t102.5 260t252.5 104q94 0 164.5 -41.5t116.5 -125.5l-46 -43q-39 78 -96 115t-138 37q-118 0 -192.5 -83.5t-74.5 -220.5q0 -138 74 -219.5t198 -81.5q83 0 141 50.5t58 123.5v98h76z" />
    <glyph glyph-name="H" unicode="H" horiz-adv-x="812" 
d="M188 0h-77v700h77v-316h436v316h77v-700h-77v334h-436v-334z" />
    <glyph glyph-name="I" unicode="I" horiz-adv-x="300" 
d="M111 700h77v-700h-77v700z" />
    <glyph glyph-name="J" unicode="J" horiz-adv-x="580" 
d="M257 47q72 0 110.5 47.5t38.5 134.5v471h77v-482q0 -100 -64.5 -164t-163.5 -64q-87 0 -145.5 50t-58.5 123q0 41 15 71t51 58l39 -35q-25 -23 -34 -43.5t-9 -45.5q0 -53 40.5 -87t103.5 -34z" />
    <glyph glyph-name="K" unicode="K" horiz-adv-x="720" 
d="M675 0h-101l-292 351l-94 -87v-264h-77v700h77v-368l384 368h85l-320 -298z" />
    <glyph glyph-name="L" unicode="L" horiz-adv-x="620" 
d="M564 0h-453v700h77v-647h376v-53z" />
    <glyph glyph-name="M" unicode="M" horiz-adv-x="913" 
d="M216 700l247 -587l239 587h100v-700h-77v613l-262 -619h-27l-264 619v-613h-61v700h105z" />
    <glyph glyph-name="N" unicode="N" horiz-adv-x="791" 
d="M183 700l436 -549v549h61v-704h-31l-477 602v-598h-61v700h72z" />
    <glyph glyph-name="O" unicode="O" horiz-adv-x="782" 
d="M391 -10q-147 0 -245 103.5t-98 256.5t98 256.5t245 103.5t245 -103.5t98 -256.5t-98 -256.5t-245 -103.5zM391 659q-116 0 -186 -84.5t-70 -224.5t70 -224.5t186 -84.5t186 84.5t70 224.5t-70 224.5t-186 84.5z" />
    <glyph glyph-name="P" unicode="P" horiz-adv-x="632" 
d="M603 494q0 -98 -69.5 -151t-196.5 -53h-149v-290h-77v700h226q129 0 197.5 -53t68.5 -153zM188 649v-307h145q96 0 142 37.5t46 114.5q0 79 -46 117t-142 38h-145z" />
    <glyph glyph-name="Q" unicode="Q" horiz-adv-x="782" 
d="M632 -138q-59 0 -105 33.5t-79 99.5q-15 -3 -29 -4t-28 -1q-147 0 -245 103.5t-98 256.5t98 256.5t245 103.5t245 -103.5t98 -256.5q0 -119 -62.5 -212t-165.5 -129q24 -51 52.5 -72t71.5 -21q29 0 51 21t21 53l50 -13q-1 -50 -36.5 -82.5t-83.5 -32.5zM391 659
q-116 0 -186 -84.5t-70 -224.5t70 -224.5t186 -84.5t186 84.5t70 224.5t-70 224.5t-186 84.5z" />
    <glyph glyph-name="R" unicode="R" horiz-adv-x="720" 
d="M355 649h-167v-286h167q90 0 136.5 37.5t46.5 111.5q0 68 -46 102.5t-137 34.5zM339 313h-151v-313h-77v700h252q126 0 193 -48t67 -141q0 -80 -53 -126t-140 -48v-3q58 -8 90 -35t52 -90l42 -115q10 -26 24 -50.5t31 -43.5h-86q-10 14 -22.5 38.5t-22.5 49.5l-43 114
q-24 67 -56.5 89t-99.5 22z" />
    <glyph glyph-name="S" unicode="S" horiz-adv-x="620" 
d="M308 46q81 0 128.5 36.5t47.5 100.5q0 49 -31 80t-104 50l-96 25q-102 27 -144 69.5t-42 113.5q0 82 67 135.5t170 53.5q81 0 147.5 -35t99.5 -94l-46 -40q-29 55 -81.5 85t-119.5 30q-73 0 -117 -33.5t-44 -88.5q0 -49 29.5 -77t106.5 -48l92 -24q98 -26 143.5 -70
t45.5 -113q0 -94 -71.5 -153t-180.5 -59q-92 0 -168.5 42.5t-109.5 111.5l46 35q38 -65 98 -99t134 -34z" />
    <glyph glyph-name="T" unicode="T" horiz-adv-x="725" 
d="M401 0h-77v649h-272v51h621v-51h-272v-649z" />
    <glyph glyph-name="U" unicode="U" horiz-adv-x="755" 
d="M597 278v422h61v-434q0 -127 -75 -201.5t-198 -74.5q-139 0 -213.5 72t-74.5 205v433h77v-421q0 -109 56.5 -169.5t156.5 -60.5q103 0 156.5 58t53.5 171z" />
    <glyph glyph-name="V" unicode="V" horiz-adv-x="719" 
d="M679 700l-301 -707h-42l-296 707h81l248 -597l247 597h63z" />
    <glyph glyph-name="W" unicode="W" horiz-adv-x="977" 
d="M696 -7h-42l-163 518l-162 -518h-42l-247 707h77l201 -576l147 468l-34 108h74l178 -571l193 571h61z" />
    <glyph glyph-name="X" unicode="X" horiz-adv-x="714" 
d="M338 332l-240 -332h-68l274 377l-249 323h90l212 -276l197 276h67l-231 -319l294 -381h-90z" />
    <glyph glyph-name="Y" unicode="Y" horiz-adv-x="670" 
d="M127 700l221 -349l220 349h67l-261 -409v-291h-76v291l-262 409h91z" />
    <glyph glyph-name="Z" unicode="Z" horiz-adv-x="690" 
d="M146 53h479v-53h-575v44l477 603h-451v53h547v-44z" />
    <glyph glyph-name="bracketleft" unicode="[" horiz-adv-x="343" 
d="M293 -154h-193v903h193v-34l-134 -9v-816l134 -10v-34z" />
    <glyph glyph-name="backslash" unicode="\" horiz-adv-x="413" 
d="M103 749l300 -902h-64l-300 902h64z" />
    <glyph glyph-name="bracketright" unicode="]" horiz-adv-x="343" 
d="M50 -120l134 10v816l-134 9v34h193v-903h-193v34z" />
    <glyph glyph-name="asciicircum" unicode="^" horiz-adv-x="510" 
d="M50 352l183 348h44l183 -348h-60l-145 274l-145 -274h-60z" />
    <glyph glyph-name="underscore" unicode="_" horiz-adv-x="480" 
d="M430 -129h-380v57h380v-57z" />
    <glyph glyph-name="grave" unicode="`" horiz-adv-x="500" 
d="M325 561h-41l-114 188h88z" />
    <glyph glyph-name="a" unicode="a" horiz-adv-x="556" 
d="M389 233v11l-87 -14q-92 -14 -128.5 -39.5t-36.5 -68.5q0 -39 23.5 -59.5t67.5 -20.5q63 0 112 56.5t49 134.5zM300 272l89 15v37q0 61 -31 90t-97 29q-50 0 -81 -20t-31 -54q0 -8 2.5 -16.5t7.5 -15.5l-41 -31q-13 14 -19.5 29.5t-6.5 32.5q0 56 48 91.5t129 35.5
q93 0 143 -41t50 -115v-339h-64l-8 119q-19 -54 -71.5 -91.5t-114.5 -37.5q-65 0 -103.5 34.5t-38.5 93.5q0 61 48.5 95.5t189.5 58.5z" />
    <glyph glyph-name="b" unicode="b" horiz-adv-x="627" 
d="M348 -10q-60 0 -104.5 26t-65.5 72l-8 -88h-66v749h74v-385q19 59 67.5 95t112.5 36q94 0 155.5 -68t61.5 -177q0 -111 -66.5 -185.5t-160.5 -74.5zM333 444q-66 0 -111 -56.5t-45 -134.5v-52q0 -71 45.5 -116.5t107.5 -45.5q75 0 120.5 57.5t45.5 153.5q0 87 -45 140.5
t-118 53.5z" />
    <glyph glyph-name="c" unicode="c" horiz-adv-x="534" 
d="M418 344q0 46 -31.5 73.5t-87.5 27.5q-75 0 -122 -55.5t-47 -144.5q0 -97 42.5 -149.5t119.5 -52.5q58 0 96 29.5t57 88.5l41 -10q-15 -75 -70 -118t-134 -43q-102 0 -166 67.5t-64 178.5q0 113 70 186t177 73q80 0 127.5 -42t47.5 -108q0 -24 -9.5 -47t-25.5 -38l-38 34
q8 10 12.5 23t4.5 27z" />
    <glyph glyph-name="d" unicode="d" horiz-adv-x="617" 
d="M294 41q66 0 111 56t45 133v54q0 71 -45.5 116.5t-108.5 45.5q-75 0 -120 -57.5t-45 -154.5q0 -87 44.5 -140t118.5 -53zM278 495q60 0 104.5 -25.5t66.5 -72.5v352h74v-749h-70l-4 121q-19 -59 -68 -95t-113 -36q-94 0 -155 67.5t-61 176.5q0 112 66.5 186.5t159.5 74.5
z" />
    <glyph glyph-name="e" unicode="e" horiz-adv-x="543" 
d="M449 161l41 -10q-17 -77 -70.5 -119t-135.5 -42q-101 0 -166.5 68.5t-65.5 177.5q0 114 65 186.5t162 72.5q100 0 156.5 -64.5t56.5 -180.5h-364q0 -99 45 -153t126 -54q56 0 92 28.5t58 89.5zM278 447q-59 0 -98 -40.5t-49 -112.5h279q-3 75 -36.5 114t-95.5 39z" />
    <glyph glyph-name="f" unicode="f" horiz-adv-x="346" 
d="M284 711q-47 0 -71.5 -33.5t-24.5 -99.5v-93h147l-5 -47h-142v-438h-74v438h-82v47h82v84q0 85 46 137t123 52q53 0 87.5 -27t34.5 -70q0 -13 -4.5 -26t-12.5 -21l-42 14q5 9 6.5 14.5t1.5 11.5q0 26 -19 41.5t-51 15.5z" />
    <glyph glyph-name="g" unicode="g" horiz-adv-x="580" 
d="M269 216q51 0 83 31.5t32 86.5t-32 86.5t-83 31.5t-83 -31.5t-32 -86.5t32 -86.5t83 -31.5zM538 -49q0 -78 -78 -127t-192 -49t-179 36.5t-65 103.5q0 42 36.5 70.5t102.5 36.5q-42 7 -65.5 30t-23.5 58q0 32 20 56t58 38q-35 22 -55 56t-20 74q0 68 54.5 114.5
t137.5 46.5q33 0 63.5 -8t55.5 -24q41 42 68.5 57t56.5 15q28 0 45.5 -17t17.5 -43q0 -15 -6 -30.5t-15 -25.5l-39 23q4 5 6.5 12t2.5 12q0 10 -5.5 15.5t-16.5 5.5q-19 0 -38 -12.5t-42 -40.5q20 -22 30 -47.5t10 -52.5q0 -68 -55.5 -114.5t-138.5 -46.5q-23 0 -44.5 4
t-40.5 11q-27 -12 -40 -26t-13 -30q0 -23 19.5 -34.5t58.5 -11.5h152q84 0 130.5 -35t46.5 -100zM469 -66q0 40 -28.5 61t-82.5 21h-110q-68 0 -113.5 -28t-45.5 -72t49 -69t130 -25q91 0 146 30t55 82z" />
    <glyph glyph-name="h" unicode="h" horiz-adv-x="611" 
d="M104 0v749h74v-381q21 60 67.5 93.5t109.5 33.5q75 0 117.5 -46.5t42.5 -127.5v-321h-74v306q0 61 -30.5 97.5t-85.5 36.5q-63 0 -105 -53.5t-42 -136.5v-250h-74z" />
    <glyph glyph-name="i" unicode="i" horiz-adv-x="282" 
d="M182 593h-82v113h82v-113zM104 485h74v-485h-74v485z" />
    <glyph glyph-name="j" unicode="j" horiz-adv-x="282" 
d="M182 593h-82v113h82v-113zM178 485v-525q0 -84 -40 -134.5t-109 -50.5q-55 0 -86.5 26t-31.5 71q0 12 4 23.5t10 19.5l45 -12q-3 -5 -4.5 -12t-1.5 -16q0 -26 16 -40.5t45 -14.5q42 0 60.5 29.5t18.5 98.5v537h74z" />
    <glyph glyph-name="k" unicode="k" horiz-adv-x="575" 
d="M533 0h-90l-191 238l-74 -67v-171h-74v749h74v-513l270 249h79l-223 -201z" />
    <glyph glyph-name="l" unicode="l" horiz-adv-x="282" 
d="M104 749h74v-749h-74v749z" />
    <glyph glyph-name="m" unicode="m" horiz-adv-x="910" 
d="M638 440q-60 0 -100.5 -54t-40.5 -138v-248h-74v306q0 65 -26.5 99.5t-77.5 34.5q-60 0 -100.5 -54t-40.5 -138v-248h-74v485h70l4 -118q20 61 64 94.5t104 33.5q62 0 99.5 -33t46.5 -96q20 60 66 94.5t107 34.5q71 0 111 -46t40 -128v-321h-74v306q0 65 -26.5 99.5
t-77.5 34.5z" />
    <glyph glyph-name="n" unicode="n" horiz-adv-x="611" 
d="M325 440q-63 0 -105 -53.5t-42 -136.5v-250h-74v485h70l4 -117q21 60 67.5 93.5t109.5 33.5q75 0 117.5 -46.5t42.5 -127.5v-321h-74v306q0 61 -30.5 97.5t-85.5 36.5z" />
    <glyph glyph-name="o" unicode="o" horiz-adv-x="583" 
d="M531 242q0 -108 -68.5 -180t-171.5 -72q-102 0 -170.5 72t-68.5 180t68.5 180.5t170.5 72.5q103 0 171.5 -72.5t68.5 -180.5zM451 242q0 94 -43 148.5t-117 54.5t-117 -55t-43 -148t43.5 -148t116.5 -55q74 0 117 55t43 148z" />
    <glyph glyph-name="p" unicode="p" horiz-adv-x="627" 
d="M333 444q-66 0 -111 -56.5t-45 -134.5v-52q0 -71 45.5 -116.5t107.5 -45.5q75 0 120.5 57.5t45.5 153.5q0 87 -45 140.5t-118 53.5zM348 -10q-60 0 -104.5 26t-65.5 72v-303h-74v700h70l4 -121q19 59 67.5 95t112.5 36q94 0 155.5 -68t61.5 -177q0 -111 -66.5 -185.5
t-160.5 -74.5z" />
    <glyph glyph-name="q" unicode="q" horiz-adv-x="627" 
d="M279 495q60 0 104.5 -26t66.5 -72l3 88h70v-700h-73v336q-19 -59 -68 -95t-113 -36q-94 0 -155.5 67.5t-61.5 176.5q0 111 67 186t160 75zM295 41q66 0 110.5 56t44.5 134v52q0 72 -45.5 117.5t-107.5 45.5q-75 0 -120.5 -58t-45.5 -154q0 -87 45 -140t119 -53z" />
    <glyph glyph-name="r" unicode="r" horiz-adv-x="493" 
d="M174 485l4 -145q23 70 67.5 113t97.5 43q50 0 79 -28t29 -75q0 -23 -8 -43t-22 -32l-39 33q6 8 9 18t3 22q0 25 -14.5 39t-41.5 14q-57 0 -108.5 -73.5t-51.5 -151.5v-219h-74v485h70z" />
    <glyph glyph-name="s" unicode="s" horiz-adv-x="503" 
d="M249 445q-49 0 -78.5 -20t-29.5 -54q0 -29 18.5 -45.5t65.5 -28.5l85 -21q72 -18 103 -48.5t31 -84.5q0 -67 -53.5 -110t-134.5 -43q-72 0 -127.5 31.5t-82.5 88.5l40 36q29 -52 72.5 -79t98.5 -27q53 0 85 22.5t32 61.5q0 33 -20 51t-77 32l-70 17q-70 17 -101.5 48
t-31.5 81q0 63 49 102.5t124 39.5q63 0 111.5 -27t81.5 -80l-37 -41q-20 44 -62.5 71t-91.5 27z" />
    <glyph glyph-name="t" unicode="t" horiz-adv-x="420" 
d="M109 438h-80v47h80l4 140l71 24v-164h175l-5 -47h-170v-306q0 -44 18.5 -66.5t54.5 -22.5t54.5 25t25.5 86l45 -5q-4 -75 -41.5 -117t-101.5 -42q-61 0 -96 34.5t-35 95.5z" />
    <glyph glyph-name="u" unicode="u" horiz-adv-x="602" 
d="M276 45q64 0 106 54t42 139v247h74v-485h-70l-4 122q-22 -65 -66.5 -98.5t-107.5 -33.5q-68 0 -111 48t-43 126v321h74v-307q0 -65 27 -99t79 -34z" />
    <glyph glyph-name="v" unicode="v" horiz-adv-x="525" 
d="M495 485l-211 -489h-44l-210 489h79l163 -385l160 385h63z" />
    <glyph glyph-name="w" unicode="w" horiz-adv-x="755" 
d="M529 -5h-36l-119 330l-122 -330h-35l-187 490h76l139 -375l102 288l-31 87h74l128 -375l146 375h61z" />
    <glyph glyph-name="x" unicode="x" horiz-adv-x="546" 
d="M506 0h-86l-154 215l-162 -215h-64l196 258l-163 227h86l126 -176l131 176h63l-164 -218z" />
    <glyph glyph-name="y" unicode="y" horiz-adv-x="525" 
d="M100 -225q-43 0 -72 25t-29 64q0 13 2.5 24.5t7.5 19.5l52 -14q-3 -12 -3.5 -16.5t-0.5 -10.5q0 -18 12 -29.5t30 -11.5q33 0 57.5 29t64.5 122l19 45l-210 463h79l170 -378l153 378h63l-225 -530q-40 -96 -79.5 -138t-90.5 -42z" />
    <glyph glyph-name="z" unicode="z" horiz-adv-x="526" 
d="M57 0v30l308 405h-291v50h390v-29l-307 -406h312v-50h-412z" />
    <glyph glyph-name="braceleft" unicode="{" horiz-adv-x="422" 
d="M184 148q0 62 -27 91.5t-97 31.5v50q70 2 97 31.5t27 91.5q0 11 -1.5 25t-6.5 45q-6 36 -8 53.5t-2 31.5q0 65 44.5 107.5t115.5 42.5q12 0 23.5 -1t22.5 -3l-5 -38q-70 8 -105.5 -21t-35.5 -95q0 -7 1.5 -19.5t6.5 -42.5q6 -40 8 -59t2 -32q0 -59 -35.5 -97.5
t-84.5 -44.5q49 -6 84.5 -44.5t35.5 -97.5q0 -13 -2 -32t-8 -59q-5 -30 -6.5 -42.5t-1.5 -19.5q0 -66 35.5 -95t105.5 -21l5 -38q-11 -2 -22.5 -3t-23.5 -1q-71 0 -115.5 42.5t-44.5 107.5q0 14 2 31.5t8 53.5q5 31 6.5 45t1.5 25z" />
    <glyph glyph-name="bar" unicode="|" horiz-adv-x="280" 
d="M170 -153h-60v902h60v-902z" />
    <glyph glyph-name="braceright" unicode="}" horiz-adv-x="422" 
d="M238 148q0 -11 1.5 -25t6.5 -45q6 -36 8 -53.5t2 -31.5q0 -65 -44.5 -107.5t-115.5 -42.5q-12 0 -23.5 1t-22.5 3l5 38q70 -8 105.5 21t35.5 95q0 7 -1.5 19.5t-6.5 42.5q-6 40 -8 59t-2 32q0 59 35.5 97.5t84.5 44.5q-49 6 -84.5 44.5t-35.5 97.5q0 13 2 32t8 59
q5 30 6.5 42.5t1.5 19.5q0 66 -35.5 95t-105.5 21l-5 38q11 2 22.5 3t23.5 1q71 0 115.5 -42.5t44.5 -107.5q0 -14 -2 -31.5t-8 -53.5q-5 -31 -6.5 -45t-1.5 -25q0 -62 27 -91.5t97 -31.5v-50q-70 -2 -97 -31.5t-27 -91.5z" />
    <glyph glyph-name="asciitilde" unicode="~" horiz-adv-x="563" 
d="M361 249q-17 0 -35 6t-54 24q-34 18 -51.5 23.5t-32.5 5.5q-21 0 -36.5 -14.5t-28.5 -46.5h-52q14 55 49 87t81 32q17 0 35 -6t54 -24q34 -18 51.5 -23.5t32.5 -5.5q21 0 36.5 14.5t28.5 46.5h53q-14 -55 -49.5 -87t-81.5 -32z" />
    <glyph glyph-name="uni00A0" unicode="&#xa0;" horiz-adv-x="500" 
 />
    <glyph glyph-name="exclamdown" unicode="&#xa1;" horiz-adv-x="265" 
d="M151 346l34 -495h-100l34 495h32zM185 442h-101v109h101v-109z" />
    <glyph glyph-name="cent" unicode="&#xa2;" horiz-adv-x="546" 
d="M455 168l41 -9q-15 -78 -71.5 -123.5t-136.5 -45.5l-9 -104h-40l9 107q-89 14 -142.5 82.5t-53.5 172.5q0 115 67 191t172 81l8 96h40l-8 -97q71 -7 112 -49.5t41 -106.5q0 -25 -10 -49.5t-26 -39.5l-37 35q8 11 13 25t5 28q0 42 -27 71.5t-75 35.5l-35 -425h6
q60 0 99.5 31t57.5 93zM132 258q0 -86 31 -139.5t89 -69.5l35 420q-70 -7 -112.5 -65t-42.5 -146z" />
    <glyph glyph-name="sterling" unicode="&#xa3;" horiz-adv-x="649" 
d="M626 106q0 -55 -42 -92t-102 -37q-30 0 -60.5 9.5t-63.5 29.5q-9 5 -35.5 24.5t-70.5 52.5q-22 -52 -55 -77.5t-77 -25.5q-45 0 -72 27.5t-27 72.5q0 44 32 74t79 30q19 0 40 -5.5t43 -17.5q2 15 2.5 31.5t0.5 34.5t-1 39.5t-2 43.5h-120v44h117q-2 33 -3.5 63t-1.5 56
q0 105 56 166t153 61q78 0 125.5 -39t47.5 -99q0 -36 -19.5 -66t-45.5 -39l-32 30q19 15 28 33.5t9 40.5q0 39 -31.5 63.5t-81.5 24.5q-61 0 -92.5 -40.5t-31.5 -117.5v-137h165v-44h-166q-2 -53 -8 -98t-15 -81q89 -57 130.5 -72t82.5 -15q53 0 77.5 30t13.5 81l38 4
q6 -11 11 -30t5 -33zM73 88q0 -24 13 -37.5t35 -13.5q30 0 52 22t33 65q-20 12 -38 17.5t-35 5.5q-27 0 -43.5 -16t-16.5 -43z" />
    <glyph glyph-name="yen" unicode="&#xa5;" horiz-adv-x="659" 
d="M572 250v-43h-204v-207h-76v207h-204v43h204v41l-35 59h-169v43h144l-182 307h91l201 -349l200 349h67l-181 -307h144v-43h-169l-35 -59v-41h204z" />
    <glyph glyph-name="section" unicode="&#xa7;" horiz-adv-x="603" 
d="M213 224l142 -111q37 -30 47 -38.5t17 -15.5q29 8 43.5 28t14.5 52q0 27 -19.5 55t-67.5 67l-142 111q-37 30 -47 38.5t-17 15.5q-29 -8 -43.5 -28t-14.5 -52q0 -27 19.5 -55t67.5 -67zM476 -74q0 -65 -50 -108t-123 -43q-63 0 -111.5 27t-81.5 80l37 41q20 -44 62.5 -71
t91.5 -27t78.5 26.5t29.5 70.5q0 36 -20 66t-74 70l-141 107q-59 44 -86.5 84.5t-27.5 81.5q0 52 23.5 87.5t66.5 49.5q-12 20 -17.5 42.5t-5.5 48.5q0 65 50 108t123 43q63 0 111.5 -27t81.5 -80l-37 -41q-20 44 -62.5 71t-91.5 27t-78.5 -26.5t-29.5 -70.5q0 -36 20 -66
t74 -70l141 -107q59 -44 86.5 -84.5t27.5 -81.5q0 -52 -23.5 -87.5t-66.5 -49.5q12 -20 17.5 -42.5t5.5 -48.5z" />
    <glyph glyph-name="dieresis" unicode="&#xa8;" horiz-adv-x="500" 
d="M207 593h-82v103h82v-103zM377 593h-82v103h82v-103z" />
    <glyph glyph-name="copyright" unicode="&#xa9;" horiz-adv-x="810" 
d="M405 710q152 0 256 -103t104 -257t-104 -257t-256 -103t-256 103t-104 257t104 257t256 103zM405 19q139 0 234.5 95.5t95.5 235.5t-95.5 235.5t-234.5 95.5t-234.5 -95.5t-95.5 -235.5t95.5 -235.5t234.5 -95.5zM417 132q-91 0 -152 60.5t-61 152.5q0 94 61.5 157
t152.5 63q57 0 99.5 -24.5t68.5 -73.5l-29 -32q-23 44 -56 65.5t-79 21.5q-67 0 -106.5 -46.5t-39.5 -127.5q0 -80 40 -126t106 -46q47 0 79.5 21t55.5 67l30 -25q-28 -53 -70.5 -80t-99.5 -27z" />
    <glyph glyph-name="ordfeminine" unicode="&#xaa;" horiz-adv-x="408" 
d="M273 523v9l-55 -9q-58 -9 -81.5 -26t-23.5 -46q0 -25 15.5 -38.5t43.5 -13.5q40 0 70.5 36.5t30.5 87.5zM212 555l61 10v26q0 41 -20.5 60t-64.5 19q-33 0 -53.5 -13.5t-20.5 -35.5q0 -8 2.5 -14.5t8.5 -13.5l-33 -25q-12 9 -18.5 22.5t-6.5 29.5q0 40 35.5 65t94.5 25
q70 0 106.5 -30t36.5 -87v-231h-60l-6 80q-13 -37 -48 -62t-79 -25q-45 0 -73 24.5t-28 65.5q0 43 35 68.5t131 41.5zM352 226h-297v43h297v-43z" />
    <glyph glyph-name="guillemotleft" unicode="&#xab;" horiz-adv-x="623" 
d="M275 34l-220 206v8l220 206h56l-180 -210l180 -210h-56zM512 34l-220 206v8l220 206h56l-180 -210l180 -210h-56z" />
    <glyph glyph-name="registered" unicode="&#xae;" horiz-adv-x="542" 
d="M55 494q0 92 62.5 154t153.5 62t153.5 -62t62.5 -154t-62.5 -154t-153.5 -62t-153.5 62t-62.5 154zM80 494q0 -82 55 -137t136 -55t136 55t55 137t-55 137t-136 55t-136 -55t-55 -137zM263 591h-42v-88h42q27 0 40.5 11.5t13.5 33.5q0 21 -14 32t-40 11zM257 481h-36
v-103h-43v236h98q41 0 64 -16.5t23 -47.5q0 -26 -19 -42t-50 -17v-1q21 -1 33.5 -11t18.5 -30l12 -34q4 -11 8.5 -19.5t11.5 -17.5h-48q-5 7 -8.5 15.5t-6.5 17.5l-14 38q-6 18 -15.5 25t-28.5 7z" />
    <glyph glyph-name="macron" unicode="&#xaf;" horiz-adv-x="500" 
d="M386 642v-50h-272v50h272z" />
    <glyph glyph-name="degree" unicode="&#xb0;" horiz-adv-x="385" 
d="M60 577q0 55 38.5 94t93.5 39q56 0 94.5 -38.5t38.5 -94.5q0 -55 -39 -93.5t-94 -38.5t-93.5 38.5t-38.5 93.5zM110 577q0 -34 24 -58t58 -24q35 0 59 24t24 58q0 35 -24 59t-59 24q-34 0 -58 -24t-24 -59z" />
    <glyph glyph-name="plusminus" unicode="&#xb1;" horiz-adv-x="639" 
d="M549 431v-54h-202v-173h-54v173h-202v54h202v171h54v-171h202zM549 100h-458v56h458v-56z" />
    <glyph glyph-name="twosuperior" unicode="&#xb2;" horiz-adv-x="367" 
d="M305 592q0 -51 -36.5 -96t-161.5 -136h213l-5 -58h-283v21l107 104q56 55 76 92t20 76q0 33 -19.5 53t-52.5 20t-52 -18t-19 -51q0 -15 8.5 -29t22.5 -24l-28 -25q-20 7 -34 29.5t-14 47.5q0 47 34.5 77.5t90.5 30.5q59 0 96 -31t37 -83z" />
    <glyph glyph-name="threesuperior" unicode="&#xb3;" horiz-adv-x="376" 
d="M331 415q0 -53 -43 -86t-110 -33q-59 0 -96.5 28t-37.5 72q0 24 15 42.5t38 26.5l24 -25q-16 -8 -23 -18.5t-7 -24.5q0 -28 21.5 -45.5t56.5 -17.5q44 0 67 21t23 61q0 42 -25 63.5t-73 21.5h-9v29h9q44 1 65.5 19.5t21.5 55.5q0 30 -19 47t-53 17q-32 0 -50.5 -14
t-18.5 -40q0 -12 6 -21t18 -15l-20 -27q-23 7 -36 23.5t-13 40.5q0 38 35 64t87 26q60 0 95.5 -26.5t35.5 -72.5q0 -37 -28.5 -62t-71.5 -27v-2q52 -3 84 -31t32 -70z" />
    <glyph glyph-name="acute" unicode="&#xb4;" horiz-adv-x="500" 
d="M165 561l67 188h88l-114 -188h-41z" />
    <glyph glyph-name="paragraph" unicode="&#xb6;" horiz-adv-x="539" 
d="M31 493q0 96 78.5 151.5t209.5 55.5h158v-55h-93v-661q0 -98 -43 -153.5t-120 -55.5q-61 0 -97.5 33t-36.5 89q0 13 4 27t11 24l48 -15q-4 -6 -5.5 -14t-1.5 -19q0 -35 20.5 -56t55.5 -21q53 0 79.5 39.5t26.5 117.5v308q-133 0 -213.5 55t-80.5 150z" />
    <glyph glyph-name="periodcentered" unicode="&#xb7;" horiz-adv-x="243" 
d="M172 226h-101v109h101v-109z" />
    <glyph glyph-name="cedilla" unicode="&#xb8;" horiz-adv-x="500" 
d="M238 -225q-33 0 -61 15.5t-42 41.5l29 28q14 -20 33 -30.5t41 -10.5q25 0 40.5 11.5t15.5 32.5q0 22 -25 34t-76 14l45 109h40l-32 -76q52 -5 79 -25.5t27 -55.5q0 -38 -32.5 -63t-81.5 -25z" />
    <glyph glyph-name="onesuperior" unicode="&#xb9;" horiz-adv-x="284" 
d="M202 705v-403h-64v309q-9 -15 -38 -38.5t-51 -32.5l-13 36q33 18 70.5 55t60.5 74h35z" />
    <glyph glyph-name="ordmasculine" unicode="&#xba;" horiz-adv-x="427" 
d="M386 532q0 -76 -49.5 -126.5t-123.5 -50.5t-123 50.5t-49 126.5t49 127t123 51t123.5 -51t49.5 -127zM314 532q0 67 -26.5 104t-74.5 37t-74.5 -37t-26.5 -104q0 -66 26.5 -103t74.5 -37t74.5 36.5t26.5 103.5zM362 226h-297v43h297v-43z" />
    <glyph glyph-name="guillemotright" unicode="&#xbb;" horiz-adv-x="623" 
d="M55 34l180 210l-180 210h56l220 -206v-8l-220 -206h-56zM292 34l180 210l-180 210h56l220 -206v-8l-220 -206h-56z" />
    <glyph glyph-name="onequarter" unicode="&#xbc;" horiz-adv-x="808" 
d="M184 -10h-55l434 720h55zM202 705v-403h-64v309q-9 -15 -38 -38.5t-51 -32.5l-13 36q33 18 70.5 55t60.5 74h35zM682 142h84v-36h-84v-106h-63v106h-185v27l183 265h65v-256zM483 142h136v198z" />
    <glyph glyph-name="onehalf" unicode="&#xbd;" horiz-adv-x="819" 
d="M202 705v-403h-64v309q-9 -15 -38 -38.5t-51 -32.5l-13 36q33 18 70.5 55t60.5 74h35zM184 -10h-55l434 720h55zM759 290q0 -51 -36.5 -96t-161.5 -136h213l-5 -58h-283v21l107 104q56 55 76 92t20 76q0 33 -19.5 53t-52.5 20t-52 -18t-19 -51q0 -15 8.5 -29t22.5 -24
l-28 -25q-20 7 -34 29.5t-14 47.5q0 47 34.5 77.5t90.5 30.5q59 0 96 -31t37 -83z" />
    <glyph glyph-name="threequarters" unicode="&#xbe;" horiz-adv-x="887" 
d="M761 142h84v-36h-84v-106h-63v106h-185v27l183 265h65v-256zM562 142h136v198zM263 -10h-55l434 720h55zM331 415q0 -53 -43 -86t-110 -33q-59 0 -96.5 28t-37.5 72q0 24 15 42.5t38 26.5l24 -25q-16 -8 -23 -18.5t-7 -24.5q0 -28 21.5 -45.5t56.5 -17.5q44 0 67 21
t23 61q0 42 -25 63.5t-73 21.5h-9v29h9q44 1 65.5 19.5t21.5 55.5q0 30 -19 47t-53 17q-32 0 -50.5 -14t-18.5 -40q0 -12 6 -21t18 -15l-20 -27q-23 7 -36 23.5t-13 40.5q0 38 35 64t87 26q60 0 95.5 -26.5t35.5 -72.5q0 -37 -28.5 -62t-71.5 -27v-2q52 -3 84 -31t32 -70z
" />
    <glyph glyph-name="questiondown" unicode="&#xbf;" horiz-adv-x="525" 
d="M122 18q0 -56 39 -90t105 -34q67 0 106.5 33t39.5 91q0 17 -7 36t-21 37l46 29q20 -21 31 -47.5t11 -54.5q0 -76 -57.5 -126.5t-147.5 -50.5q-99 0 -156.5 52.5t-57.5 134.5q0 81 52.5 139.5t147.5 84.5v104h49v-171q-83 -15 -131.5 -59t-48.5 -108zM230 551h101v-109
h-101v109z" />
    <glyph glyph-name="Agrave" unicode="&#xc0;" horiz-adv-x="719" 
d="M221 283h256l-129 307zM679 0h-84l-98 233h-297l-97 -233h-63l300 707h42zM394 770h-43l-107 161h91z" />
    <glyph glyph-name="Aacute" unicode="&#xc1;" horiz-adv-x="719" 
d="M221 283h256l-129 307zM679 0h-84l-98 233h-297l-97 -233h-63l300 707h42zM337 770l59 161h91l-107 -161h-43z" />
    <glyph glyph-name="Acircumflex" unicode="&#xc2;" horiz-adv-x="719" 
d="M221 283h256l-129 307zM679 0h-84l-98 233h-297l-97 -233h-63l300 707h42zM511 768h-43l-109 109l-109 -109h-43l134 180h34z" />
    <glyph glyph-name="Atilde" unicode="&#xc3;" horiz-adv-x="719" 
d="M221 283h256l-129 307zM679 0h-84l-98 233h-297l-97 -233h-63l300 707h42zM430 792q-14 0 -31 7.5t-49 32.5q-28 21 -41 27.5t-24 6.5q-21 0 -34.5 -19t-21.5 -58h-44q11 61 39 96.5t64 35.5q14 0 31 -7.5t49 -32.5q28 -21 41 -27.5t24 -6.5q21 0 34.5 19t21.5 58h44
q-11 -61 -39 -96.5t-64 -35.5z" />
    <glyph glyph-name="Adieresis" unicode="&#xc4;" horiz-adv-x="719" 
d="M221 283h256l-129 307zM679 0h-84l-98 233h-297l-97 -233h-63l300 707h42zM315 783h-82v103h82v-103zM485 783h-82v103h82v-103z" />
    <glyph glyph-name="Aring" unicode="&#xc5;" horiz-adv-x="719" 
d="M221 283h256l-129 307zM679 0h-84l-98 233h-297l-97 -233h-63l300 707h42zM359 744q-43 0 -74.5 31t-31.5 74q0 42 31.5 73t74.5 31t74.5 -31t31.5 -73q0 -43 -31.5 -74t-74.5 -31zM359 786q28 0 45.5 17.5t17.5 45.5q0 29 -17.5 46.5t-45.5 17.5t-45.5 -17.5
t-17.5 -46.5q0 -28 17.5 -45.5t45.5 -17.5z" />
    <glyph glyph-name="AE" unicode="&#xc6;" horiz-adv-x="1053" 
d="M511 283v364l-228 -364h228zM993 0h-482v233h-259l-146 -233h-66l441 700h500v-53h-393v-261h296v-53h-296v-280h405v-53z" />
    <glyph glyph-name="Ccedilla" unicode="&#xc7;" horiz-adv-x="719" 
d="M479 -137q0 -38 -32.5 -63t-81.5 -25q-33 0 -61 15.5t-42 41.5l29 28q14 -20 33 -30.5t41 -10.5q25 0 40.5 11.5t15.5 32.5q0 22 -25 34t-76 14l34 82q-134 16 -220 114t-86 239q0 156 100.5 260t250.5 104q93 0 163 -42t116 -125l-46 -43q-39 78 -95.5 115t-136.5 37
q-117 0 -190 -83t-73 -221q0 -135 74 -217t188 -82q82 0 139 37.5t95 117.5l46 -29q-47 -93 -117 -139t-165 -46h-5l-19 -46q52 -5 79 -25.5t27 -55.5z" />
    <glyph glyph-name="Egrave" unicode="&#xc8;" horiz-adv-x="653" 
d="M593 0h-482v700h470v-53h-393v-261h296v-53h-296v-280h405v-53zM395 770h-43l-107 161h91z" />
    <glyph glyph-name="Eacute" unicode="&#xc9;" horiz-adv-x="653" 
d="M593 0h-482v700h470v-53h-393v-261h296v-53h-296v-280h405v-53zM338 770l59 161h91l-107 -161h-43z" />
    <glyph glyph-name="Ecircumflex" unicode="&#xca;" horiz-adv-x="653" 
d="M593 0h-482v700h470v-53h-393v-261h296v-53h-296v-280h405v-53zM512 768h-43l-109 109l-109 -109h-43l134 180h34z" />
    <glyph glyph-name="Edieresis" unicode="&#xcb;" horiz-adv-x="653" 
d="M593 0h-482v700h470v-53h-393v-261h296v-53h-296v-280h405v-53zM316 783h-82v103h82v-103zM486 783h-82v103h82v-103z" />
    <glyph glyph-name="Igrave" unicode="&#xcc;" horiz-adv-x="300" 
d="M111 700h77v-700h-77v700zM184 770h-43l-107 161h91z" />
    <glyph glyph-name="Iacute" unicode="&#xcd;" horiz-adv-x="300" 
d="M111 700h77v-700h-77v700zM127 770l59 161h91l-107 -161h-43z" />
    <glyph glyph-name="Icircumflex" unicode="&#xce;" horiz-adv-x="300" 
d="M111 700h77v-700h-77v700zM301 768h-43l-109 109l-109 -109h-43l134 180h34z" />
    <glyph glyph-name="Idieresis" unicode="&#xcf;" horiz-adv-x="300" 
d="M111 700h77v-700h-77v700zM105 783h-82v103h82v-103zM275 783h-82v103h82v-103z" />
    <glyph glyph-name="Eth" unicode="&#xd0;" horiz-adv-x="767" 
d="M720 351q0 -162 -103 -256.5t-282 -94.5h-205v334h-90v50h90v316h203q180 0 283.5 -94t103.5 -255zM207 334v-284h121q145 0 225 79.5t80 221.5q0 140 -81 219.5t-226 79.5h-119v-266h161v-50h-161z" />
    <glyph glyph-name="Ntilde" unicode="&#xd1;" horiz-adv-x="791" 
d="M183 700l436 -549v549h61v-704h-31l-477 602v-598h-61v700h72zM466 792q-14 0 -31 7.5t-49 32.5q-28 21 -41 27.5t-24 6.5q-21 0 -34.5 -19t-21.5 -58h-44q11 61 39 96.5t64 35.5q14 0 31 -7.5t49 -32.5q28 -21 41 -27.5t24 -6.5q21 0 34.5 19t21.5 58h44
q-11 -61 -39 -96.5t-64 -35.5z" />
    <glyph glyph-name="Ograve" unicode="&#xd2;" horiz-adv-x="782" 
d="M391 -10q-147 0 -245 103.5t-98 256.5t98 256.5t245 103.5t245 -103.5t98 -256.5t-98 -256.5t-245 -103.5zM391 659q-116 0 -186 -84.5t-70 -224.5t70 -224.5t186 -84.5t186 84.5t70 224.5t-70 224.5t-186 84.5zM426 770h-43l-107 161h91z" />
    <glyph glyph-name="Oacute" unicode="&#xd3;" horiz-adv-x="782" 
d="M391 -10q-147 0 -245 103.5t-98 256.5t98 256.5t245 103.5t245 -103.5t98 -256.5t-98 -256.5t-245 -103.5zM391 659q-116 0 -186 -84.5t-70 -224.5t70 -224.5t186 -84.5t186 84.5t70 224.5t-70 224.5t-186 84.5zM369 770l59 161h91l-107 -161h-43z" />
    <glyph glyph-name="Ocircumflex" unicode="&#xd4;" horiz-adv-x="782" 
d="M391 -10q-147 0 -245 103.5t-98 256.5t98 256.5t245 103.5t245 -103.5t98 -256.5t-98 -256.5t-245 -103.5zM391 659q-116 0 -186 -84.5t-70 -224.5t70 -224.5t186 -84.5t186 84.5t70 224.5t-70 224.5t-186 84.5zM543 768h-43l-109 109l-109 -109h-43l134 180h34z" />
    <glyph glyph-name="Otilde" unicode="&#xd5;" horiz-adv-x="782" 
d="M391 -10q-147 0 -245 103.5t-98 256.5t98 256.5t245 103.5t245 -103.5t98 -256.5t-98 -256.5t-245 -103.5zM391 659q-116 0 -186 -84.5t-70 -224.5t70 -224.5t186 -84.5t186 84.5t70 224.5t-70 224.5t-186 84.5zM462 792q-14 0 -31 7.5t-49 32.5q-28 21 -41 27.5t-24 6.5
q-21 0 -34.5 -19t-21.5 -58h-44q11 61 39 96.5t64 35.5q14 0 31 -7.5t49 -32.5q28 -21 41 -27.5t24 -6.5q21 0 34.5 19t21.5 58h44q-11 -61 -39 -96.5t-64 -35.5z" />
    <glyph glyph-name="Odieresis" unicode="&#xd6;" horiz-adv-x="782" 
d="M391 -10q-147 0 -245 103.5t-98 256.5t98 256.5t245 103.5t245 -103.5t98 -256.5t-98 -256.5t-245 -103.5zM391 659q-116 0 -186 -84.5t-70 -224.5t70 -224.5t186 -84.5t186 84.5t70 224.5t-70 224.5t-186 84.5zM347 783h-82v103h82v-103zM517 783h-82v103h82v-103z" />
    <glyph glyph-name="multiply" unicode="&#xd7;" horiz-adv-x="549" 
d="M459 190l-39 -39l-144 147l-144 -147l-38 39l145 146l-145 145l38 40l144 -147l144 147l39 -40l-147 -145z" />
    <glyph glyph-name="Oslash" unicode="&#xd8;" horiz-adv-x="782" 
d="M391 659q-116 0 -186 -84.5t-70 -224.5q0 -59 13.5 -110t39.5 -91l385 430q-35 39 -81 59.5t-101 20.5zM391 41q116 0 186 84.5t70 224.5q0 53 -11 100.5t-33 86.5l-384 -427q34 -34 77.5 -51.5t94.5 -17.5zM734 350q0 -153 -98 -256.5t-245 -103.5q-60 0 -114 19t-99 55
l-92 -103l-38 33l94 104q-45 50 -69.5 115t-24.5 137q0 153 98 256.5t245 103.5q64 0 121.5 -21.5t102.5 -62.5l81 90l38 -33l-84 -93q41 -49 62.5 -111t21.5 -129z" />
    <glyph glyph-name="Ugrave" unicode="&#xd9;" horiz-adv-x="755" 
d="M597 278v422h61v-434q0 -127 -75 -201.5t-198 -74.5q-139 0 -213.5 72t-74.5 205v433h77v-421q0 -109 56.5 -169.5t156.5 -60.5q103 0 156.5 58t53.5 171zM412 770h-43l-107 161h91z" />
    <glyph glyph-name="Uacute" unicode="&#xda;" horiz-adv-x="755" 
d="M597 278v422h61v-434q0 -127 -75 -201.5t-198 -74.5q-139 0 -213.5 72t-74.5 205v433h77v-421q0 -109 56.5 -169.5t156.5 -60.5q103 0 156.5 58t53.5 171zM355 770l59 161h91l-107 -161h-43z" />
    <glyph glyph-name="Ucircumflex" unicode="&#xdb;" horiz-adv-x="755" 
d="M597 278v422h61v-434q0 -127 -75 -201.5t-198 -74.5q-139 0 -213.5 72t-74.5 205v433h77v-421q0 -109 56.5 -169.5t156.5 -60.5q103 0 156.5 58t53.5 171zM529 768h-43l-109 109l-109 -109h-43l134 180h34z" />
    <glyph glyph-name="Udieresis" unicode="&#xdc;" horiz-adv-x="755" 
d="M597 278v422h61v-434q0 -127 -75 -201.5t-198 -74.5q-139 0 -213.5 72t-74.5 205v433h77v-421q0 -109 56.5 -169.5t156.5 -60.5q103 0 156.5 58t53.5 171zM333 783h-82v103h82v-103zM503 783h-82v103h82v-103z" />
    <glyph glyph-name="Yacute" unicode="&#xdd;" horiz-adv-x="670" 
d="M127 700l221 -349l220 349h67l-261 -409v-291h-76v291l-262 409h91zM313 770l59 161h91l-107 -161h-43z" />
    <glyph glyph-name="Thorn" unicode="&#xde;" horiz-adv-x="632" 
d="M188 161v-161h-77v700h77v-129h149q129 0 197.5 -53t68.5 -153q0 -98 -69.5 -151t-196.5 -53h-149zM188 520v-307h145q96 0 142 37.5t46 114.5q0 79 -46 117t-142 38h-145z" />
    <glyph glyph-name="germandbls" unicode="&#xdf;" horiz-adv-x="663" 
d="M519 612q0 -39 -22 -72.5t-76 -72.5q-40 -29 -53.5 -45.5t-13.5 -34.5q0 -22 21.5 -39.5t91.5 -47.5q79 -34 112.5 -70t33.5 -87q0 -67 -47 -110t-120 -43q-62 0 -112 31.5t-77 88.5l40 36q30 -54 66.5 -80t83.5 -26q44 0 70 22.5t26 61.5q0 35 -24.5 58.5t-91.5 51.5
q-74 31 -104.5 61.5t-30.5 74.5q0 33 19 62t73 72q45 35 60.5 58t15.5 50q0 46 -33 71.5t-92 25.5q-72 0 -114.5 -50t-42.5 -138v-521h-74v514q0 110 66.5 177.5t164.5 67.5q83 0 133.5 -40.5t50.5 -106.5z" />
    <glyph glyph-name="agrave" unicode="&#xe0;" horiz-adv-x="556" 
d="M389 233v11l-87 -14q-92 -14 -128.5 -39.5t-36.5 -68.5q0 -39 23.5 -59.5t67.5 -20.5q63 0 112 56.5t49 134.5zM300 272l89 15v37q0 61 -31 90t-97 29q-50 0 -81 -20t-31 -54q0 -8 2.5 -16.5t7.5 -15.5l-41 -31q-13 14 -19.5 29.5t-6.5 32.5q0 56 48 91.5t129 35.5
q93 0 143 -41t50 -115v-339h-64l-8 119q-19 -54 -71.5 -91.5t-114.5 -37.5q-65 0 -103.5 34.5t-38.5 93.5q0 61 48.5 95.5t189.5 58.5zM302 561h-41l-114 188h88z" />
    <glyph glyph-name="aacute" unicode="&#xe1;" horiz-adv-x="556" 
d="M389 233v11l-87 -14q-92 -14 -128.5 -39.5t-36.5 -68.5q0 -39 23.5 -59.5t67.5 -20.5q63 0 112 56.5t49 134.5zM300 272l89 15v37q0 61 -31 90t-97 29q-50 0 -81 -20t-31 -54q0 -8 2.5 -16.5t7.5 -15.5l-41 -31q-13 14 -19.5 29.5t-6.5 32.5q0 56 48 91.5t129 35.5
q93 0 143 -41t50 -115v-339h-64l-8 119q-19 -54 -71.5 -91.5t-114.5 -37.5q-65 0 -103.5 34.5t-38.5 93.5q0 61 48.5 95.5t189.5 58.5zM248 561l67 188h88l-114 -188h-41z" />
    <glyph glyph-name="acircumflex" unicode="&#xe2;" horiz-adv-x="556" 
d="M389 233v11l-87 -14q-92 -14 -128.5 -39.5t-36.5 -68.5q0 -39 23.5 -59.5t67.5 -20.5q63 0 112 56.5t49 134.5zM300 272l89 15v37q0 61 -31 90t-97 29q-50 0 -81 -20t-31 -54q0 -8 2.5 -16.5t7.5 -15.5l-41 -31q-13 14 -19.5 29.5t-6.5 32.5q0 56 48 91.5t129 35.5
q93 0 143 -41t50 -115v-339h-64l-8 119q-19 -54 -71.5 -91.5t-114.5 -37.5q-65 0 -103.5 34.5t-38.5 93.5q0 61 48.5 95.5t189.5 58.5zM256 752h34l136 -200h-43l-109 129l-109 -129h-43z" />
    <glyph glyph-name="atilde" unicode="&#xe3;" horiz-adv-x="556" 
d="M389 233v11l-87 -14q-92 -14 -128.5 -39.5t-36.5 -68.5q0 -39 23.5 -59.5t67.5 -20.5q63 0 112 56.5t49 134.5zM300 272l89 15v37q0 61 -31 90t-97 29q-50 0 -81 -20t-31 -54q0 -8 2.5 -16.5t7.5 -15.5l-41 -31q-13 14 -19.5 29.5t-6.5 32.5q0 56 48 91.5t129 35.5
q93 0 143 -41t50 -115v-339h-64l-8 119q-19 -54 -71.5 -91.5t-114.5 -37.5q-65 0 -103.5 34.5t-38.5 93.5q0 61 48.5 95.5t189.5 58.5zM345 587q-14 0 -31 7.5t-49 32.5q-28 21 -41 27.5t-24 6.5q-21 0 -34.5 -19t-21.5 -58h-44q11 61 39 96.5t64 35.5q14 0 31 -7.5
t49 -32.5q28 -21 41 -27.5t24 -6.5q21 0 34.5 19t21.5 58h44q-11 -61 -39 -96.5t-64 -35.5z" />
    <glyph glyph-name="adieresis" unicode="&#xe4;" horiz-adv-x="556" 
d="M389 233v11l-87 -14q-92 -14 -128.5 -39.5t-36.5 -68.5q0 -39 23.5 -59.5t67.5 -20.5q63 0 112 56.5t49 134.5zM300 272l89 15v37q0 61 -31 90t-97 29q-50 0 -81 -20t-31 -54q0 -8 2.5 -16.5t7.5 -15.5l-41 -31q-13 14 -19.5 29.5t-6.5 32.5q0 56 48 91.5t129 35.5
q93 0 143 -41t50 -115v-339h-64l-8 119q-19 -54 -71.5 -91.5t-114.5 -37.5q-65 0 -103.5 34.5t-38.5 93.5q0 61 48.5 95.5t189.5 58.5zM230 593h-82v103h82v-103zM400 593h-82v103h82v-103z" />
    <glyph glyph-name="aring" unicode="&#xe5;" horiz-adv-x="556" 
d="M389 233v11l-87 -14q-92 -14 -128.5 -39.5t-36.5 -68.5q0 -39 23.5 -59.5t67.5 -20.5q63 0 112 56.5t49 134.5zM300 272l89 15v37q0 61 -31 90t-97 29q-50 0 -81 -20t-31 -54q0 -8 2.5 -16.5t7.5 -15.5l-41 -31q-13 14 -19.5 29.5t-6.5 32.5q0 56 48 91.5t129 35.5
q93 0 143 -41t50 -115v-339h-64l-8 119q-19 -54 -71.5 -91.5t-114.5 -37.5q-65 0 -103.5 34.5t-38.5 93.5q0 61 48.5 95.5t189.5 58.5zM274 557q-44 0 -75 31t-31 74q0 42 31.5 72.5t74.5 30.5t74.5 -30.5t31.5 -72.5q0 -43 -31 -74t-75 -31zM274 598q29 0 46 17.5t17 46.5
q0 28 -17.5 46t-45.5 18t-45.5 -18t-17.5 -46q0 -29 17 -46.5t46 -17.5z" />
    <glyph glyph-name="ae" unicode="&#xe6;" horiz-adv-x="873" 
d="M779 161l41 -10q-17 -77 -70.5 -119t-135.5 -42q-69 0 -121.5 34t-78.5 96q-26 -61 -81 -95.5t-129 -34.5q-63 0 -102.5 35t-39.5 93q0 61 48.5 95.5t189.5 58.5l89 15v37q0 61 -31 90t-97 29q-50 0 -81 -20t-31 -54q0 -8 2.5 -16.5t7.5 -15.5l-41 -31q-13 14 -19.5 29.5
t-6.5 32.5q0 56 48 91.5t129 35.5q60 0 104 -24.5t64 -68.5q29 45 74 69t98 24q100 0 156.5 -64.5t56.5 -180.5h-364q0 -99 45 -153t126 -54q56 0 92 28.5t58 89.5zM608 447q-59 0 -98 -40.5t-49 -112.5h279q-3 75 -36.5 114t-95.5 39zM389 233v11l-87 -14
q-92 -14 -128.5 -39.5t-36.5 -68.5q0 -38 24.5 -59t66.5 -21q70 0 115.5 54t45.5 137z" />
    <glyph glyph-name="ccedilla" unicode="&#xe7;" horiz-adv-x="534" 
d="M374 -137q0 -38 -32.5 -63t-81.5 -25q-33 0 -61 15.5t-42 41.5l29 28q14 -20 33 -30.5t41 -10.5q25 0 40.5 11.5t15.5 32.5q0 22 -25 34t-76 14l33 81q-89 12 -142.5 78t-53.5 166q0 113 70 186t177 73q80 0 127.5 -42t47.5 -108q0 -24 -9.5 -47t-25.5 -38l-38 34
q8 10 12.5 23t4.5 27q0 46 -31.5 73.5t-87.5 27.5q-75 0 -122 -55.5t-47 -144.5q0 -97 42.5 -149.5t119.5 -52.5q58 0 96 29.5t57 88.5l41 -10q-15 -74 -69.5 -117.5t-129.5 -43.5l-19 -46q52 -5 79 -25.5t27 -55.5z" />
    <glyph glyph-name="egrave" unicode="&#xe8;" horiz-adv-x="543" 
d="M449 161l41 -10q-17 -77 -70.5 -119t-135.5 -42q-101 0 -166.5 68.5t-65.5 177.5q0 114 65 186.5t162 72.5q100 0 156.5 -64.5t56.5 -180.5h-364q0 -99 45 -153t126 -54q56 0 92 28.5t58 89.5zM278 447q-59 0 -98 -40.5t-49 -112.5h279q-3 75 -36.5 114t-95.5 39z
M313 561h-41l-114 188h88z" />
    <glyph glyph-name="eacute" unicode="&#xe9;" horiz-adv-x="543" 
d="M449 161l41 -10q-17 -77 -70.5 -119t-135.5 -42q-101 0 -166.5 68.5t-65.5 177.5q0 114 65 186.5t162 72.5q100 0 156.5 -64.5t56.5 -180.5h-364q0 -99 45 -153t126 -54q56 0 92 28.5t58 89.5zM278 447q-59 0 -98 -40.5t-49 -112.5h279q-3 75 -36.5 114t-95.5 39z
M259 561l67 188h88l-114 -188h-41z" />
    <glyph glyph-name="ecircumflex" unicode="&#xea;" horiz-adv-x="543" 
d="M449 161l41 -10q-17 -77 -70.5 -119t-135.5 -42q-101 0 -166.5 68.5t-65.5 177.5q0 114 65 186.5t162 72.5q100 0 156.5 -64.5t56.5 -180.5h-364q0 -99 45 -153t126 -54q56 0 92 28.5t58 89.5zM278 447q-59 0 -98 -40.5t-49 -112.5h279q-3 75 -36.5 114t-95.5 39z
M267 752h34l136 -200h-43l-109 129l-109 -129h-43z" />
    <glyph glyph-name="edieresis" unicode="&#xeb;" horiz-adv-x="543" 
d="M449 161l41 -10q-17 -77 -70.5 -119t-135.5 -42q-101 0 -166.5 68.5t-65.5 177.5q0 114 65 186.5t162 72.5q100 0 156.5 -64.5t56.5 -180.5h-364q0 -99 45 -153t126 -54q56 0 92 28.5t58 89.5zM278 447q-59 0 -98 -40.5t-49 -112.5h279q-3 75 -36.5 114t-95.5 39z
M241 593h-82v103h82v-103zM411 593h-82v103h82v-103z" />
    <glyph glyph-name="igrave" unicode="&#xec;" horiz-adv-x="282" 
d="M104 485h74v-485h-74v485zM169 561h-41l-114 188h88z" />
    <glyph glyph-name="iacute" unicode="&#xed;" horiz-adv-x="282" 
d="M104 485h74v-485h-74v485zM115 561l67 188h88l-114 -188h-41z" />
    <glyph glyph-name="icircumflex" unicode="&#xee;" horiz-adv-x="282" 
d="M123 752h34l122 -200h-43l-95 129l-95 -129h-43zM104 485h74v-485h-74v485z" />
    <glyph glyph-name="idieresis" unicode="&#xef;" horiz-adv-x="282" 
d="M104 485h74v-485h-74v485zM97 593h-82v103h82v-103zM267 593h-82v103h82v-103z" />
    <glyph glyph-name="eth" unicode="&#xf0;" horiz-adv-x="583" 
d="M531 282q0 -129 -67.5 -210.5t-172.5 -81.5q-102 0 -170.5 72t-68.5 180t68.5 180.5t170.5 72.5q43 0 84 -19t68 -52q-10 58 -42.5 113.5t-79.5 95.5l-124 -68l-20 38l106 58q-36 23 -78 35.5t-89 15.5l4 48q62 -4 117 -22t101 -48l85 47l20 -38l-68 -37
q75 -64 115.5 -162.5t40.5 -217.5zM451 242q0 94 -43 148.5t-117 54.5t-117 -55t-43 -148t43.5 -148t116.5 -55q74 0 117 55t43 148z" />
    <glyph glyph-name="ntilde" unicode="&#xf1;" horiz-adv-x="611" 
d="M325 440q-63 0 -105 -53.5t-42 -136.5v-250h-74v485h70l4 -117q21 60 67.5 93.5t109.5 33.5q75 0 117.5 -46.5t42.5 -127.5v-321h-74v306q0 61 -30.5 97.5t-85.5 36.5zM385 587q-14 0 -31 7.5t-49 32.5q-28 21 -41 27.5t-24 6.5q-21 0 -34.5 -19t-21.5 -58h-44
q11 61 39 96.5t64 35.5q14 0 31 -7.5t49 -32.5q28 -21 41 -27.5t24 -6.5q21 0 34.5 19t21.5 58h44q-11 -61 -39 -96.5t-64 -35.5z" />
    <glyph glyph-name="ograve" unicode="&#xf2;" horiz-adv-x="583" 
d="M531 242q0 -108 -68.5 -180t-171.5 -72q-102 0 -170.5 72t-68.5 180t68.5 180.5t170.5 72.5q103 0 171.5 -72.5t68.5 -180.5zM451 242q0 94 -43 148.5t-117 54.5t-117 -55t-43 -148t43.5 -148t116.5 -55q74 0 117 55t43 148zM319 561h-41l-114 188h88z" />
    <glyph glyph-name="oacute" unicode="&#xf3;" horiz-adv-x="583" 
d="M531 242q0 -108 -68.5 -180t-171.5 -72q-102 0 -170.5 72t-68.5 180t68.5 180.5t170.5 72.5q103 0 171.5 -72.5t68.5 -180.5zM451 242q0 94 -43 148.5t-117 54.5t-117 -55t-43 -148t43.5 -148t116.5 -55q74 0 117 55t43 148zM265 561l67 188h88l-114 -188h-41z" />
    <glyph glyph-name="ocircumflex" unicode="&#xf4;" horiz-adv-x="583" 
d="M531 242q0 -108 -68.5 -180t-171.5 -72q-102 0 -170.5 72t-68.5 180t68.5 180.5t170.5 72.5q103 0 171.5 -72.5t68.5 -180.5zM451 242q0 94 -43 148.5t-117 54.5t-117 -55t-43 -148t43.5 -148t116.5 -55q74 0 117 55t43 148zM273 752h34l136 -200h-43l-109 129l-109 -129
h-43z" />
    <glyph glyph-name="otilde" unicode="&#xf5;" horiz-adv-x="583" 
d="M531 242q0 -108 -68.5 -180t-171.5 -72q-102 0 -170.5 72t-68.5 180t68.5 180.5t170.5 72.5q103 0 171.5 -72.5t68.5 -180.5zM451 242q0 94 -43 148.5t-117 54.5t-117 -55t-43 -148t43.5 -148t116.5 -55q74 0 117 55t43 148zM362 587q-14 0 -31 7.5t-49 32.5
q-28 21 -41 27.5t-24 6.5q-21 0 -34.5 -19t-21.5 -58h-44q11 61 39 96.5t64 35.5q14 0 31 -7.5t49 -32.5q28 -21 41 -27.5t24 -6.5q21 0 34.5 19t21.5 58h44q-11 -61 -39 -96.5t-64 -35.5z" />
    <glyph glyph-name="odieresis" unicode="&#xf6;" horiz-adv-x="583" 
d="M531 242q0 -108 -68.5 -180t-171.5 -72q-102 0 -170.5 72t-68.5 180t68.5 180.5t170.5 72.5q103 0 171.5 -72.5t68.5 -180.5zM451 242q0 94 -43 148.5t-117 54.5t-117 -55t-43 -148t43.5 -148t116.5 -55q74 0 117 55t43 148zM247 593h-82v103h82v-103zM417 593h-82v103
h82v-103z" />
    <glyph glyph-name="divide" unicode="&#xf7;" horiz-adv-x="633" 
d="M367 472h-98v99h98v-99zM545 312h-456v55h456v-55zM367 107h-98v99h98v-99z" />
    <glyph glyph-name="oslash" unicode="&#xf8;" horiz-adv-x="583" 
d="M291 445q-74 0 -117 -55t-43 -148q0 -36 7 -66.5t20 -55.5l240 282q-21 21 -48 32t-59 11zM291 39q74 0 117 55t43 148q0 34 -6.5 64t-18.5 55l-239 -281q21 -20 47.5 -30.5t56.5 -10.5zM531 242q0 -108 -68.5 -180t-171.5 -72q-39 0 -75 11.5t-66 34.5l-62 -73l-36 32
l62 74q-30 34 -46 78.5t-16 94.5q0 108 68.5 180.5t170.5 72.5q40 0 76.5 -12t67.5 -36l60 70l36 -32l-61 -71q30 -34 45.5 -78t15.5 -94z" />
    <glyph glyph-name="ugrave" unicode="&#xf9;" horiz-adv-x="602" 
d="M276 45q64 0 106 54t42 139v247h74v-485h-70l-4 122q-22 -65 -66.5 -98.5t-107.5 -33.5q-68 0 -111 48t-43 126v321h74v-307q0 -65 27 -99t79 -34zM325 561h-41l-114 188h88z" />
    <glyph glyph-name="uacute" unicode="&#xfa;" horiz-adv-x="602" 
d="M276 45q64 0 106 54t42 139v247h74v-485h-70l-4 122q-22 -65 -66.5 -98.5t-107.5 -33.5q-68 0 -111 48t-43 126v321h74v-307q0 -65 27 -99t79 -34zM271 561l67 188h88l-114 -188h-41z" />
    <glyph glyph-name="ucircumflex" unicode="&#xfb;" horiz-adv-x="602" 
d="M276 45q64 0 106 54t42 139v247h74v-485h-70l-4 122q-22 -65 -66.5 -98.5t-107.5 -33.5q-68 0 -111 48t-43 126v321h74v-307q0 -65 27 -99t79 -34zM279 752h34l136 -200h-43l-109 129l-109 -129h-43z" />
    <glyph glyph-name="udieresis" unicode="&#xfc;" horiz-adv-x="602" 
d="M276 45q64 0 106 54t42 139v247h74v-485h-70l-4 122q-22 -65 -66.5 -98.5t-107.5 -33.5q-68 0 -111 48t-43 126v321h74v-307q0 -65 27 -99t79 -34zM253 593h-82v103h82v-103zM423 593h-82v103h82v-103z" />
    <glyph glyph-name="yacute" unicode="&#xfd;" horiz-adv-x="525" 
d="M100 -225q-43 0 -72 25t-29 64q0 13 2.5 24.5t7.5 19.5l52 -14q-3 -12 -3.5 -16.5t-0.5 -10.5q0 -18 12 -29.5t30 -11.5q33 0 57.5 29t64.5 122l19 45l-210 463h79l170 -378l153 378h63l-225 -530q-40 -96 -79.5 -138t-90.5 -42zM246 561l67 188h88l-114 -188h-41z" />
    <glyph glyph-name="thorn" unicode="&#xfe;" horiz-adv-x="628" 
d="M334 444q-66 0 -111 -56.5t-45 -134.5v-52q0 -71 45.5 -116.5t107.5 -45.5q75 0 120.5 57.5t45.5 153.5q0 87 -45 140.5t-118 53.5zM349 -10q-60 0 -104.5 26t-65.5 72v-303h-74v964h74v-385q19 59 67.5 95t112.5 36q94 0 155.5 -68t61.5 -177q0 -111 -66.5 -185.5
t-160.5 -74.5z" />
    <glyph glyph-name="ydieresis" unicode="&#xff;" horiz-adv-x="525" 
d="M100 -225q-43 0 -72 25t-29 64q0 13 2.5 24.5t7.5 19.5l52 -14q-3 -12 -3.5 -16.5t-0.5 -10.5q0 -18 12 -29.5t30 -11.5q33 0 57.5 29t64.5 122l19 45l-210 463h79l170 -378l153 378h63l-225 -530q-40 -96 -79.5 -138t-90.5 -42zM228 593h-82v103h82v-103zM398 593h-82
v103h82v-103z" />
    <glyph glyph-name="Amacron" unicode="&#x100;" horiz-adv-x="719" 
d="M221 283h256l-129 307zM679 0h-84l-98 233h-297l-97 -233h-63l300 707h42zM495 842v-50h-272v50h272z" />
    <glyph glyph-name="amacron" unicode="&#x101;" horiz-adv-x="556" 
d="M389 233v11l-87 -14q-92 -14 -128.5 -39.5t-36.5 -68.5q0 -39 23.5 -59.5t67.5 -20.5q63 0 112 56.5t49 134.5zM300 272l89 15v37q0 61 -31 90t-97 29q-50 0 -81 -20t-31 -54q0 -8 2.5 -16.5t7.5 -15.5l-41 -31q-13 14 -19.5 29.5t-6.5 32.5q0 56 48 91.5t129 35.5
q93 0 143 -41t50 -115v-339h-64l-8 119q-19 -54 -71.5 -91.5t-114.5 -37.5q-65 0 -103.5 34.5t-38.5 93.5q0 61 48.5 95.5t189.5 58.5zM410 642v-50h-272v50h272z" />
    <glyph glyph-name="Abreve" unicode="&#x102;" horiz-adv-x="719" 
d="M221 283h256l-129 307zM679 0h-84l-98 233h-297l-97 -233h-63l300 707h42zM463 938h36q0 -72 -39 -116.5t-101 -44.5t-101 44.5t-39 116.5h36q4 -47 32.5 -76t71.5 -29t71.5 29t32.5 76z" />
    <glyph glyph-name="abreve" unicode="&#x103;" horiz-adv-x="556" 
d="M389 233v11l-87 -14q-92 -14 -128.5 -39.5t-36.5 -68.5q0 -39 23.5 -59.5t67.5 -20.5q63 0 112 56.5t49 134.5zM300 272l89 15v37q0 61 -31 90t-97 29q-50 0 -81 -20t-31 -54q0 -8 2.5 -16.5t7.5 -15.5l-41 -31q-13 14 -19.5 29.5t-6.5 32.5q0 56 48 91.5t129 35.5
q93 0 143 -41t50 -115v-339h-64l-8 119q-19 -54 -71.5 -91.5t-114.5 -37.5q-65 0 -103.5 34.5t-38.5 93.5q0 61 48.5 95.5t189.5 58.5zM378 742h36q0 -77 -39.5 -125.5t-100.5 -48.5t-100.5 48.5t-39.5 125.5h36q4 -50 33.5 -84t70.5 -34t70.5 34t33.5 84z" />
    <glyph glyph-name="Aogonek" unicode="&#x104;" horiz-adv-x="719" 
d="M646 -113l38 -15q-17 -47 -51 -72t-80 -25q-39 0 -68.5 25.5t-29.5 64.5q0 41 29 76.5t103 78.5l-90 213h-297l-97 -233h-63l300 707h42l297 -707h-50q-74 -44 -96.5 -69.5t-22.5 -53.5q0 -26 16 -41t41 -15q28 0 46 15t33 51zM221 283h256l-129 307z" />
    <glyph glyph-name="aogonek" unicode="&#x105;" horiz-adv-x="556" 
d="M389 233v11l-87 -14q-92 -14 -128.5 -39.5t-36.5 -68.5q0 -39 23.5 -59.5t67.5 -20.5q63 0 112 56.5t49 134.5zM479 -113l38 -15q-17 -47 -51 -72t-80 -25q-39 0 -68.5 25.5t-29.5 64.5q0 38 25.5 71.5t84.5 70.5l-8 112q-19 -54 -71.5 -91.5t-114.5 -37.5
q-65 0 -103.5 34.5t-38.5 93.5q0 61 48.5 95.5t189.5 58.5l89 15v37q0 61 -31 90t-97 29q-50 0 -81 -20t-31 -54q0 -8 2.5 -16.5t7.5 -15.5l-41 -31q-13 14 -19.5 29.5t-6.5 32.5q0 56 48 91.5t129 35.5q93 0 143 -41t50 -115v-339q-74 -44 -96.5 -69.5t-22.5 -53.5
q0 -26 16 -41t41 -15q28 0 46 15t33 51z" />
    <glyph glyph-name="Cacute" unicode="&#x106;" horiz-adv-x="719" 
d="M397 -10q-149 0 -249 101t-100 255q0 156 100.5 260t250.5 104q93 0 163 -42t116 -125l-46 -43q-39 78 -95.5 115t-136.5 37q-117 0 -190 -83t-73 -221q0 -135 74 -217t188 -82q82 0 139 37.5t95 117.5l46 -29q-47 -93 -117 -139t-165 -46zM378 770l59 161h91l-107 -161
h-43z" />
    <glyph glyph-name="cacute" unicode="&#x107;" horiz-adv-x="534" 
d="M418 344q0 46 -31.5 73.5t-87.5 27.5q-75 0 -122 -55.5t-47 -144.5q0 -97 42.5 -149.5t119.5 -52.5q58 0 96 29.5t57 88.5l41 -10q-15 -75 -70 -118t-134 -43q-102 0 -166 67.5t-64 178.5q0 113 70 186t177 73q80 0 127.5 -42t47.5 -108q0 -24 -9.5 -47t-25.5 -38l-38 34
q8 10 12.5 23t4.5 27zM269 561l67 188h88l-114 -188h-41z" />
    <glyph glyph-name="Ccircumflex" unicode="&#x108;" horiz-adv-x="719" 
d="M397 -10q-149 0 -249 101t-100 255q0 156 100.5 260t250.5 104q93 0 163 -42t116 -125l-46 -43q-39 78 -95.5 115t-136.5 37q-117 0 -190 -83t-73 -221q0 -135 74 -217t188 -82q82 0 139 37.5t95 117.5l46 -29q-47 -93 -117 -139t-165 -46zM552 768h-43l-109 109
l-109 -109h-43l134 180h34z" />
    <glyph glyph-name="ccircumflex" unicode="&#x109;" horiz-adv-x="534" 
d="M418 344q0 46 -31.5 73.5t-87.5 27.5q-75 0 -122 -55.5t-47 -144.5q0 -97 42.5 -149.5t119.5 -52.5q58 0 96 29.5t57 88.5l41 -10q-15 -75 -70 -118t-134 -43q-102 0 -166 67.5t-64 178.5q0 113 70 186t177 73q80 0 127.5 -42t47.5 -108q0 -24 -9.5 -47t-25.5 -38l-38 34
q8 10 12.5 23t4.5 27zM277 752h34l136 -200h-43l-109 129l-109 -129h-43z" />
    <glyph glyph-name="Cdotaccent" unicode="&#x10a;" horiz-adv-x="719" 
d="M397 -10q-149 0 -249 101t-100 255q0 156 100.5 260t250.5 104q93 0 163 -42t116 -125l-46 -43q-39 78 -95.5 115t-136.5 37q-117 0 -190 -83t-73 -221q0 -135 74 -217t188 -82q82 0 139 37.5t95 117.5l46 -29q-47 -93 -117 -139t-165 -46zM441 793h-82v113h82v-113z" />
    <glyph glyph-name="cdotaccent" unicode="&#x10b;" horiz-adv-x="534" 
d="M418 344q0 46 -31.5 73.5t-87.5 27.5q-75 0 -122 -55.5t-47 -144.5q0 -97 42.5 -149.5t119.5 -52.5q58 0 96 29.5t57 88.5l41 -10q-15 -75 -70 -118t-134 -43q-102 0 -166 67.5t-64 178.5q0 113 70 186t177 73q80 0 127.5 -42t47.5 -108q0 -24 -9.5 -47t-25.5 -38l-38 34
q8 10 12.5 23t4.5 27zM336 593h-82v113h82v-113z" />
    <glyph glyph-name="Ccaron" unicode="&#x10c;" horiz-adv-x="719" 
d="M397 -10q-149 0 -249 101t-100 255q0 156 100.5 260t250.5 104q93 0 163 -42t116 -125l-46 -43q-39 78 -95.5 115t-136.5 37q-117 0 -190 -83t-73 -221q0 -135 74 -217t188 -82q82 0 139 37.5t95 117.5l46 -29q-47 -93 -117 -139t-165 -46zM552 943l-136 -180h-34
l-134 180h43l109 -109l109 109h43z" />
    <glyph glyph-name="ccaron" unicode="&#x10d;" horiz-adv-x="534" 
d="M418 344q0 46 -31.5 73.5t-87.5 27.5q-75 0 -122 -55.5t-47 -144.5q0 -97 42.5 -149.5t119.5 -52.5q58 0 96 29.5t57 88.5l41 -10q-15 -75 -70 -118t-134 -43q-102 0 -166 67.5t-64 178.5q0 113 70 186t177 73q80 0 127.5 -42t47.5 -108q0 -24 -9.5 -47t-25.5 -38l-38 34
q8 10 12.5 23t4.5 27zM447 752l-136 -200h-34l-134 200h43l109 -129l109 129h43z" />
    <glyph glyph-name="Dcaron" unicode="&#x10e;" horiz-adv-x="748" 
d="M701 351q0 -162 -103 -256.5t-282 -94.5h-205v700h203q180 0 283.5 -94t103.5 -255zM614 351q0 140 -81 219.5t-226 79.5h-119v-600h121q145 0 225 79.5t80 221.5zM507 943l-136 -180h-34l-134 180h43l109 -109l109 109h43z" />
    <glyph glyph-name="dcaron" unicode="&#x10f;" horiz-adv-x="617" 
d="M294 41q66 0 111 56t45 133v54q0 71 -45.5 116.5t-108.5 45.5q-75 0 -120 -57.5t-45 -154.5q0 -87 44.5 -140t118.5 -53zM278 495q60 0 104.5 -25.5t66.5 -72.5v352h74v-749h-70l-4 121q-19 -59 -68 -95t-113 -36q-94 0 -155 67.5t-61 176.5q0 112 66.5 186.5t159.5 74.5
zM640 749h79l-68 -205h-36z" />
    <glyph glyph-name="Dcroat" unicode="&#x110;" horiz-adv-x="767" 
d="M720 351q0 -162 -103 -256.5t-282 -94.5h-205v334h-90v50h90v316h203q180 0 283.5 -94t103.5 -255zM207 334v-284h121q145 0 225 79.5t80 221.5q0 140 -81 219.5t-226 79.5h-119v-266h161v-50h-161z" />
    <glyph glyph-name="dcroat" unicode="&#x111;" horiz-adv-x="617" 
d="M294 41q66 0 111 56t45 133v54q0 71 -45.5 116.5t-108.5 45.5q-75 0 -120 -57.5t-45 -154.5q0 -87 44.5 -140t118.5 -53zM453 0l-4 121q-19 -59 -68 -95t-113 -36q-94 0 -155 67.5t-61 176.5q0 112 66.5 186.5t159.5 74.5q60 0 104.5 -25.5t66.5 -72.5v201h-158v44h158
v107h74v-107h80v-44h-80v-598h-70z" />
    <glyph glyph-name="Emacron" unicode="&#x112;" horiz-adv-x="653" 
d="M593 0h-482v700h470v-53h-393v-261h296v-53h-296v-280h405v-53zM496 842v-50h-272v50h272z" />
    <glyph glyph-name="emacron" unicode="&#x113;" horiz-adv-x="543" 
d="M449 161l41 -10q-17 -77 -70.5 -119t-135.5 -42q-101 0 -166.5 68.5t-65.5 177.5q0 114 65 186.5t162 72.5q100 0 156.5 -64.5t56.5 -180.5h-364q0 -99 45 -153t126 -54q56 0 92 28.5t58 89.5zM278 447q-59 0 -98 -40.5t-49 -112.5h279q-3 75 -36.5 114t-95.5 39z
M421 642v-50h-272v50h272z" />
    <glyph glyph-name="Ebreve" unicode="&#x114;" horiz-adv-x="653" 
d="M593 0h-482v700h470v-53h-393v-261h296v-53h-296v-280h405v-53zM464 938h36q0 -72 -39 -116.5t-101 -44.5t-101 44.5t-39 116.5h36q4 -47 32.5 -76t71.5 -29t71.5 29t32.5 76z" />
    <glyph glyph-name="ebreve" unicode="&#x115;" horiz-adv-x="543" 
d="M449 161l41 -10q-17 -77 -70.5 -119t-135.5 -42q-101 0 -166.5 68.5t-65.5 177.5q0 114 65 186.5t162 72.5q100 0 156.5 -64.5t56.5 -180.5h-364q0 -99 45 -153t126 -54q56 0 92 28.5t58 89.5zM278 447q-59 0 -98 -40.5t-49 -112.5h279q-3 75 -36.5 114t-95.5 39z
M389 742h36q0 -77 -39.5 -125.5t-100.5 -48.5t-100.5 48.5t-39.5 125.5h36q4 -50 33.5 -84t70.5 -34t70.5 34t33.5 84z" />
    <glyph glyph-name="Edotaccent" unicode="&#x116;" horiz-adv-x="653" 
d="M593 0h-482v700h470v-53h-393v-261h296v-53h-296v-280h405v-53zM401 793h-82v113h82v-113z" />
    <glyph glyph-name="edotaccent" unicode="&#x117;" horiz-adv-x="543" 
d="M449 161l41 -10q-17 -77 -70.5 -119t-135.5 -42q-101 0 -166.5 68.5t-65.5 177.5q0 114 65 186.5t162 72.5q100 0 156.5 -64.5t56.5 -180.5h-364q0 -99 45 -153t126 -54q56 0 92 28.5t58 89.5zM278 447q-59 0 -98 -40.5t-49 -112.5h279q-3 75 -36.5 114t-95.5 39z
M326 593h-82v113h82v-113z" />
    <glyph glyph-name="Eogonek" unicode="&#x118;" horiz-adv-x="653" 
d="M547 -113l38 -15q-17 -47 -51 -72t-80 -25q-39 0 -68.5 25.5t-29.5 64.5q0 36 23.5 68.5t75.5 66.5h-344v700h470v-53h-393v-261h296v-53h-296v-280h405v-53h-63q-74 -44 -96.5 -69.5t-22.5 -53.5q0 -26 16 -41t41 -15q28 0 46 15t33 51z" />
    <glyph glyph-name="eogonek" unicode="&#x119;" horiz-adv-x="543" 
d="M424 -113l38 -15q-17 -47 -51 -72t-80 -25q-39 0 -68.5 25.5t-29.5 64.5q0 35 21 65.5t67 61.5l-22.5 -1.5t-14.5 -0.5q-101 0 -166.5 68.5t-65.5 177.5q0 114 65 186.5t162 72.5q100 0 156.5 -64.5t56.5 -180.5h-364q0 -99 45 -153t126 -54q56 0 92 28.5t58 89.5l41 -10
q-8 -39 -32.5 -74.5t-87.5 -87.5q-52 -43 -67 -65.5t-15 -46.5q0 -26 16 -41t41 -15q28 0 46 15t33 51zM278 447q-59 0 -98 -41t-49 -112h279q-3 75 -36.5 114t-95.5 39z" />
    <glyph glyph-name="Ecaron" unicode="&#x11a;" horiz-adv-x="653" 
d="M593 0h-482v700h470v-53h-393v-261h296v-53h-296v-280h405v-53zM512 943l-136 -180h-34l-134 180h43l109 -109l109 109h43z" />
    <glyph glyph-name="ecaron" unicode="&#x11b;" horiz-adv-x="543" 
d="M449 161l41 -10q-17 -77 -70.5 -119t-135.5 -42q-101 0 -166.5 68.5t-65.5 177.5q0 114 65 186.5t162 72.5q100 0 156.5 -64.5t56.5 -180.5h-364q0 -99 45 -153t126 -54q56 0 92 28.5t58 89.5zM278 447q-59 0 -98 -40.5t-49 -112.5h279q-3 75 -36.5 114t-95.5 39z
M437 752l-136 -200h-34l-134 200h43l109 -129l109 129h43z" />
    <glyph glyph-name="Gcircumflex" unicode="&#x11c;" horiz-adv-x="773" 
d="M684 319v-319h-42l-26 108q-26 -52 -87 -85t-132 -33q-153 0 -251 100t-98 256t102.5 260t252.5 104q94 0 164.5 -41.5t116.5 -125.5l-46 -43q-39 78 -96 115t-138 37q-118 0 -192.5 -83.5t-74.5 -220.5q0 -138 74 -219.5t198 -81.5q83 0 141 50.5t58 123.5v98h76z
M554 768h-43l-109 109l-109 -109h-43l134 180h34z" />
    <glyph glyph-name="gcircumflex" unicode="&#x11d;" horiz-adv-x="580" 
d="M269 216q51 0 83 31.5t32 86.5t-32 86.5t-83 31.5t-83 -31.5t-32 -86.5t32 -86.5t83 -31.5zM538 -49q0 -78 -78 -127t-192 -49t-179 36.5t-65 103.5q0 42 36.5 70.5t102.5 36.5q-42 7 -65.5 30t-23.5 58q0 32 20 56t58 38q-35 22 -55 56t-20 74q0 68 54.5 114.5
t137.5 46.5q33 0 63.5 -8t55.5 -24q41 42 68.5 57t56.5 15q28 0 45.5 -17t17.5 -43q0 -15 -6 -30.5t-15 -25.5l-39 23q4 5 6.5 12t2.5 12q0 10 -5.5 15.5t-16.5 5.5q-19 0 -38 -12.5t-42 -40.5q20 -22 30 -47.5t10 -52.5q0 -68 -55.5 -114.5t-138.5 -46.5q-23 0 -44.5 4
t-40.5 11q-27 -12 -40 -26t-13 -30q0 -23 19.5 -34.5t58.5 -11.5h152q84 0 130.5 -35t46.5 -100zM469 -66q0 40 -28.5 61t-82.5 21h-110q-68 0 -113.5 -28t-45.5 -72t49 -69t130 -25q91 0 146 30t55 82zM259 752h34l136 -200h-43l-109 129l-109 -129h-43z" />
    <glyph glyph-name="Gbreve" unicode="&#x11e;" horiz-adv-x="773" 
d="M684 319v-319h-42l-26 108q-26 -52 -87 -85t-132 -33q-153 0 -251 100t-98 256t102.5 260t252.5 104q94 0 164.5 -41.5t116.5 -125.5l-46 -43q-39 78 -96 115t-138 37q-118 0 -192.5 -83.5t-74.5 -220.5q0 -138 74 -219.5t198 -81.5q83 0 141 50.5t58 123.5v98h76z
M506 938h36q0 -72 -39 -116.5t-101 -44.5t-101 44.5t-39 116.5h36q4 -47 32.5 -76t71.5 -29t71.5 29t32.5 76z" />
    <glyph glyph-name="gbreve" unicode="&#x11f;" horiz-adv-x="580" 
d="M269 216q51 0 83 31.5t32 86.5t-32 86.5t-83 31.5t-83 -31.5t-32 -86.5t32 -86.5t83 -31.5zM538 -49q0 -78 -78 -127t-192 -49t-179 36.5t-65 103.5q0 42 36.5 70.5t102.5 36.5q-42 7 -65.5 30t-23.5 58q0 32 20 56t58 38q-35 22 -55 56t-20 74q0 68 54.5 114.5
t137.5 46.5q33 0 63.5 -8t55.5 -24q41 42 68.5 57t56.5 15q28 0 45.5 -17t17.5 -43q0 -15 -6 -30.5t-15 -25.5l-39 23q4 5 6.5 12t2.5 12q0 10 -5.5 15.5t-16.5 5.5q-19 0 -38 -12.5t-42 -40.5q20 -22 30 -47.5t10 -52.5q0 -68 -55.5 -114.5t-138.5 -46.5q-23 0 -44.5 4
t-40.5 11q-27 -12 -40 -26t-13 -30q0 -23 19.5 -34.5t58.5 -11.5h152q84 0 130.5 -35t46.5 -100zM469 -66q0 40 -28.5 61t-82.5 21h-110q-68 0 -113.5 -28t-45.5 -72t49 -69t130 -25q91 0 146 30t55 82zM381 742h36q0 -77 -39.5 -125.5t-100.5 -48.5t-100.5 48.5
t-39.5 125.5h36q4 -50 33.5 -84t70.5 -34t70.5 34t33.5 84z" />
    <glyph glyph-name="Gdotaccent" unicode="&#x120;" horiz-adv-x="773" 
d="M684 319v-319h-42l-26 108q-26 -52 -87 -85t-132 -33q-153 0 -251 100t-98 256t102.5 260t252.5 104q94 0 164.5 -41.5t116.5 -125.5l-46 -43q-39 78 -96 115t-138 37q-118 0 -192.5 -83.5t-74.5 -220.5q0 -138 74 -219.5t198 -81.5q83 0 141 50.5t58 123.5v98h76z
M443 793h-82v113h82v-113z" />
    <glyph glyph-name="gdotaccent" unicode="&#x121;" horiz-adv-x="580" 
d="M269 216q51 0 83 31.5t32 86.5t-32 86.5t-83 31.5t-83 -31.5t-32 -86.5t32 -86.5t83 -31.5zM538 -49q0 -78 -78 -127t-192 -49t-179 36.5t-65 103.5q0 42 36.5 70.5t102.5 36.5q-42 7 -65.5 30t-23.5 58q0 32 20 56t58 38q-35 22 -55 56t-20 74q0 68 54.5 114.5
t137.5 46.5q33 0 63.5 -8t55.5 -24q41 42 68.5 57t56.5 15q28 0 45.5 -17t17.5 -43q0 -15 -6 -30.5t-15 -25.5l-39 23q4 5 6.5 12t2.5 12q0 10 -5.5 15.5t-16.5 5.5q-19 0 -38 -12.5t-42 -40.5q20 -22 30 -47.5t10 -52.5q0 -68 -55.5 -114.5t-138.5 -46.5q-23 0 -44.5 4
t-40.5 11q-27 -12 -40 -26t-13 -30q0 -23 19.5 -34.5t58.5 -11.5h152q84 0 130.5 -35t46.5 -100zM469 -66q0 40 -28.5 61t-82.5 21h-110q-68 0 -113.5 -28t-45.5 -72t49 -69t130 -25q91 0 146 30t55 82zM318 593h-82v113h82v-113z" />
    <glyph glyph-name="Gcommaaccent" unicode="&#x122;" horiz-adv-x="773" 
d="M684 319v-319h-42l-26 108q-26 -52 -87 -85t-132 -33q-153 0 -251 100t-98 256t102.5 260t252.5 104q94 0 164.5 -41.5t116.5 -125.5l-46 -43q-39 78 -96 115t-138 37q-118 0 -192.5 -83.5t-74.5 -220.5q0 -138 74 -219.5t198 -81.5q83 0 141 50.5t58 123.5v98h76z
M400 -143h-47v85h97v-91q0 -54 -32.5 -83.5t-93.5 -29.5v46q42 0 59 15t17 53v5z" />
    <glyph glyph-name="gcommaaccent" unicode="&#x123;" horiz-adv-x="580" 
d="M269 216q51 0 83 31.5t32 86.5t-32 86.5t-83 31.5t-83 -31.5t-32 -86.5t32 -86.5t83 -31.5zM538 -49q0 -78 -78 -127t-192 -49t-179 36.5t-65 103.5q0 42 36.5 70.5t102.5 36.5q-42 7 -65.5 30t-23.5 58q0 32 20 56t58 38q-35 22 -55 56t-20 74q0 68 54.5 114.5
t137.5 46.5q33 0 63.5 -8t55.5 -24q41 42 68.5 57t56.5 15q28 0 45.5 -17t17.5 -43q0 -15 -6 -30.5t-15 -25.5l-39 23q4 5 6.5 12t2.5 12q0 10 -5.5 15.5t-16.5 5.5q-19 0 -38 -12.5t-42 -40.5q20 -22 30 -47.5t10 -52.5q0 -68 -55.5 -114.5t-138.5 -46.5q-23 0 -44.5 4
t-40.5 11q-27 -12 -40 -26t-13 -30q0 -23 19.5 -34.5t58.5 -11.5h152q84 0 130.5 -35t46.5 -100zM469 -66q0 40 -28.5 61t-82.5 21h-110q-68 0 -113.5 -28t-45.5 -72t49 -69t130 -25q91 0 146 30t55 82zM277 652h47v-85h-97v91q0 54 32.5 83.5t93.5 29.5v-46q-42 0 -59 -15
t-17 -53v-5z" />
    <glyph glyph-name="Hcircumflex" unicode="&#x124;" horiz-adv-x="812" 
d="M188 0h-77v700h77v-316h436v316h77v-700h-77v334h-436v-334zM558 768h-43l-109 109l-109 -109h-43l134 180h34z" />
    <glyph glyph-name="hcircumflex" unicode="&#x125;" horiz-adv-x="611" 
d="M104 0v749h74v-381q21 60 67.5 93.5t109.5 33.5q75 0 117.5 -46.5t42.5 -127.5v-321h-74v306q0 61 -30.5 97.5t-85.5 36.5q-63 0 -105 -53.5t-42 -136.5v-250h-74zM461 798h-43l-109 109l-109 -109h-43l134 180h34z" />
    <glyph glyph-name="Hbar" unicode="&#x126;" horiz-adv-x="849" 
d="M207 466v-132h436v132h-436zM643 284h-436v-284h-77v466h-90v50h90v184h77v-184h436v184h77v-184h89v-50h-89v-466h-77v284z" />
    <glyph glyph-name="hbar" unicode="&#x127;" horiz-adv-x="611" 
d="M325 440q-63 0 -105 -53.5t-42 -136.5v-250h-74v598h-81v44h81v107h74v-107h157v-44h-157v-230q21 60 67.5 93.5t109.5 33.5q75 0 117.5 -46.5t42.5 -127.5v-321h-74v306q0 61 -30.5 97.5t-85.5 36.5z" />
    <glyph glyph-name="Itilde" unicode="&#x128;" horiz-adv-x="300" 
d="M111 700h77v-700h-77v700zM220 792q-14 0 -31 7.5t-49 32.5q-28 21 -41 27.5t-24 6.5q-21 0 -34.5 -19t-21.5 -58h-44q11 61 39 96.5t64 35.5q14 0 31 -7.5t49 -32.5q28 -21 41 -27.5t24 -6.5q21 0 34.5 19t21.5 58h44q-11 -61 -39 -96.5t-64 -35.5z" />
    <glyph glyph-name="itilde" unicode="&#x129;" horiz-adv-x="282" 
d="M251 719h44q-11 -62 -37 -97t-62 -35q-15 0 -30 8.5t-40 35.5q-18 19 -26.5 24.5t-16.5 5.5q-19 0 -31 -17t-21 -60h-44q11 62 37 97t62 35q15 0 30 -8.5t40 -35.5q18 -19 26.5 -24.5t16.5 -5.5q19 0 31 17t21 60zM104 485h74v-485h-74v485z" />
    <glyph glyph-name="Imacron" unicode="&#x12a;" horiz-adv-x="300" 
d="M111 700h77v-700h-77v700zM285 842v-50h-272v50h272z" />
    <glyph glyph-name="imacron" unicode="&#x12b;" horiz-adv-x="282" 
d="M257 642v-50h-232v50h232zM104 485h74v-485h-74v485z" />
    <glyph glyph-name="Ibreve" unicode="&#x12c;" horiz-adv-x="300" 
d="M111 700h77v-700h-77v700zM253 938h36q0 -72 -39 -116.5t-101 -44.5t-101 44.5t-39 116.5h36q4 -47 32.5 -76t71.5 -29t71.5 29t32.5 76z" />
    <glyph glyph-name="ibreve" unicode="&#x12d;" horiz-adv-x="282" 
d="M141 624q39 0 64.5 32.5t29.5 85.5h36q0 -79 -35.5 -126.5t-94.5 -47.5t-94.5 47.5t-35.5 126.5h36q4 -53 29.5 -85.5t64.5 -32.5zM104 485h74v-485h-74v485z" />
    <glyph glyph-name="Iogonek" unicode="&#x12e;" horiz-adv-x="300" 
d="M205 -113l38 -15q-17 -47 -51 -72t-80 -25q-39 0 -68.5 25.5t-29.5 64.5q0 37 23 69.5t74 67.5v698h77v-700q-74 -44 -96.5 -69.5t-22.5 -53.5q0 -26 16 -41t41 -15q28 0 46 15t33 51z" />
    <glyph glyph-name="iogonek" unicode="&#x12f;" horiz-adv-x="282" 
d="M182 593h-82v113h82v-113zM195 -113l38 -15q-17 -47 -51 -72t-80 -25q-39 0 -68.5 25.5t-29.5 64.5q0 37 23 69t77 67v484h74v-485q-74 -44 -96.5 -69.5t-22.5 -53.5q0 -26 16 -41t41 -15q28 0 46 15t33 51z" />
    <glyph glyph-name="Idotaccent" unicode="&#x130;" horiz-adv-x="300" 
d="M111 700h77v-700h-77v700zM190 793h-82v113h82v-113z" />
    <glyph glyph-name="dotlessi" unicode="&#x131;" horiz-adv-x="282" 
d="M104 485h74v-485h-74v485z" />
    <glyph glyph-name="Jcircumflex" unicode="&#x134;" horiz-adv-x="580" 
d="M257 47q72 0 110.5 47.5t38.5 134.5v471h77v-482q0 -100 -64.5 -164t-163.5 -64q-87 0 -145.5 50t-58.5 123q0 41 15 71t51 58l39 -35q-25 -23 -34 -43.5t-9 -45.5q0 -53 40.5 -87t103.5 -34zM600 768h-43l-109 109l-109 -109h-43l134 180h34z" />
    <glyph glyph-name="jcircumflex" unicode="&#x135;" horiz-adv-x="282" 
d="M123 752h34l122 -200h-43l-95 129l-95 -129h-43zM178 485v-525q0 -84 -40 -134.5t-109 -50.5q-55 0 -86.5 26t-31.5 71q0 12 4 23.5t10 19.5l45 -12q-3 -5 -4.5 -12t-1.5 -16q0 -26 16 -40.5t45 -14.5q42 0 60.5 29.5t18.5 98.5v537h74z" />
    <glyph glyph-name="Kcommaaccent" unicode="&#x136;" horiz-adv-x="720" 
d="M675 0h-101l-292 351l-94 -87v-264h-77v700h77v-368l384 368h85l-320 -298zM346 -143h-47v85h97v-91q0 -54 -32.5 -83.5t-93.5 -29.5v46q42 0 59 15t17 53v5z" />
    <glyph glyph-name="kcommaaccent" unicode="&#x137;" horiz-adv-x="575" 
d="M533 0h-90l-191 238l-74 -67v-171h-74v749h74v-513l270 249h79l-223 -201zM290 -143h-47v85h97v-91q0 -54 -32.5 -83.5t-93.5 -29.5v46q42 0 59 15t17 53v5z" />
    <glyph glyph-name="kgreenlandic" unicode="&#x138;" horiz-adv-x="575" 
d="M533 0h-90l-191 238l-74 -67v-171h-74v485h74v-249l270 249h79l-223 -201z" />
    <glyph glyph-name="Lacute" unicode="&#x139;" horiz-adv-x="620" 
d="M564 0h-453v700h77v-647h376v-53zM132 770l59 161h91l-107 -161h-43z" />
    <glyph glyph-name="lacute" unicode="&#x13a;" horiz-adv-x="282" 
d="M104 749h74v-749h-74v749zM119 810l59 161h91l-107 -161h-43z" />
    <glyph glyph-name="Lcommaaccent" unicode="&#x13b;" horiz-adv-x="620" 
d="M564 0h-453v700h77v-647h376v-53zM335 -143h-47v85h97v-91q0 -54 -32.5 -83.5t-93.5 -29.5v46q42 0 59 15t17 53v5z" />
    <glyph glyph-name="lcommaaccent" unicode="&#x13c;" horiz-adv-x="282" 
d="M104 749h74v-749h-74v749zM139 -143h-47v85h97v-91q0 -54 -32.5 -83.5t-93.5 -29.5v46q42 0 59 15t17 53v5z" />
    <glyph glyph-name="Lcaron" unicode="&#x13d;" horiz-adv-x="620" 
d="M564 0h-453v700h77v-647h376v-53zM420 749h79l-68 -205h-36z" />
    <glyph glyph-name="lcaron" unicode="&#x13e;" horiz-adv-x="282" 
d="M104 749h74v-749h-74v749zM304 749h79l-68 -205h-36z" />
    <glyph glyph-name="Ldot" unicode="&#x13f;" horiz-adv-x="620" 
d="M564 0h-453v700h77v-647h376v-53zM466 294h-82v113h82v-113z" />
    <glyph glyph-name="ldot" unicode="&#x140;" horiz-adv-x="378" 
d="M104 749h74v-749h-74v749zM363 318h-82v113h82v-113z" />
    <glyph glyph-name="Lslash" unicode="&#x141;" horiz-adv-x="632" 
d="M576 53v-53h-453v272l-83 -37v52l83 37v376h77v-340l191 83v-52l-191 -84v-254h376z" />
    <glyph glyph-name="lslash" unicode="&#x142;" horiz-adv-x="322" 
d="M198 381v-381h-74v343l-104 -66v55l104 67v350h74v-313l104 66v-55z" />
    <glyph glyph-name="Nacute" unicode="&#x143;" horiz-adv-x="791" 
d="M183 700l436 -549v549h61v-704h-31l-477 602v-598h-61v700h72zM373 770l59 161h91l-107 -161h-43z" />
    <glyph glyph-name="nacute" unicode="&#x144;" horiz-adv-x="611" 
d="M325 440q-63 0 -105 -53.5t-42 -136.5v-250h-74v485h70l4 -117q21 60 67.5 93.5t109.5 33.5q75 0 117.5 -46.5t42.5 -127.5v-321h-74v306q0 61 -30.5 97.5t-85.5 36.5zM288 561l67 188h88l-114 -188h-41z" />
    <glyph glyph-name="Ncommaaccent" unicode="&#x145;" horiz-adv-x="791" 
d="M183 700l436 -549v549h61v-704h-31l-477 602v-598h-61v700h72zM393 -143h-47v85h97v-91q0 -54 -32.5 -83.5t-93.5 -29.5v46q42 0 59 15t17 53v5z" />
    <glyph glyph-name="ncommaaccent" unicode="&#x146;" horiz-adv-x="611" 
d="M325 440q-63 0 -105 -53.5t-42 -136.5v-250h-74v485h70l4 -117q21 60 67.5 93.5t109.5 33.5q75 0 117.5 -46.5t42.5 -127.5v-321h-74v306q0 61 -30.5 97.5t-85.5 36.5zM312 -143h-47v85h97v-91q0 -54 -32.5 -83.5t-93.5 -29.5v46q42 0 59 15t17 53v5z" />
    <glyph glyph-name="Ncaron" unicode="&#x147;" horiz-adv-x="791" 
d="M183 700l436 -549v549h61v-704h-31l-477 602v-598h-61v700h72zM547 943l-136 -180h-34l-134 180h43l109 -109l109 109h43z" />
    <glyph glyph-name="ncaron" unicode="&#x148;" horiz-adv-x="611" 
d="M325 440q-63 0 -105 -53.5t-42 -136.5v-250h-74v485h70l4 -117q21 60 67.5 93.5t109.5 33.5q75 0 117.5 -46.5t42.5 -127.5v-321h-74v306q0 61 -30.5 97.5t-85.5 36.5zM466 752l-136 -200h-34l-134 200h43l109 -129l109 129h43z" />
    <glyph glyph-name="Eng" unicode="&#x14a;" horiz-adv-x="791" 
d="M531 -225q-55 0 -86.5 26t-31.5 71q0 12 4 23.5t10 19.5l45 -12q-3 -5 -4.5 -12t-1.5 -16q0 -26 16 -40.5t45 -14.5q46 0 69 35.5t23 107.5v71l-447 564v-598h-61v700h72l436 -549v549h61v-740q0 -84 -40 -134.5t-109 -50.5z" />
    <glyph glyph-name="eng" unicode="&#x14b;" horiz-adv-x="611" 
d="M366 -225q-55 0 -86.5 26t-31.5 71q0 12 4 23.5t10 19.5l45 -12q-3 -5 -4.5 -12t-1.5 -16q0 -26 16 -40.5t45 -14.5q42 0 60.5 29.5t18.5 98.5v358q0 61 -30.5 97.5t-85.5 36.5q-63 0 -105 -53.5t-42 -136.5v-250h-74v485h70l4 -117q21 60 67.5 93.5t109.5 33.5
q75 0 117.5 -46.5t42.5 -127.5v-361q0 -84 -40 -134.5t-109 -50.5z" />
    <glyph glyph-name="Omacron" unicode="&#x14c;" horiz-adv-x="782" 
d="M391 -10q-147 0 -245 103.5t-98 256.5t98 256.5t245 103.5t245 -103.5t98 -256.5t-98 -256.5t-245 -103.5zM391 659q-116 0 -186 -84.5t-70 -224.5t70 -224.5t186 -84.5t186 84.5t70 224.5t-70 224.5t-186 84.5zM527 842v-50h-272v50h272z" />
    <glyph glyph-name="omacron" unicode="&#x14d;" horiz-adv-x="583" 
d="M531 242q0 -108 -68.5 -180t-171.5 -72q-102 0 -170.5 72t-68.5 180t68.5 180.5t170.5 72.5q103 0 171.5 -72.5t68.5 -180.5zM451 242q0 94 -43 148.5t-117 54.5t-117 -55t-43 -148t43.5 -148t116.5 -55q74 0 117 55t43 148zM427 642v-50h-272v50h272z" />
    <glyph glyph-name="Obreve" unicode="&#x14e;" horiz-adv-x="782" 
d="M391 -10q-147 0 -245 103.5t-98 256.5t98 256.5t245 103.5t245 -103.5t98 -256.5t-98 -256.5t-245 -103.5zM391 659q-116 0 -186 -84.5t-70 -224.5t70 -224.5t186 -84.5t186 84.5t70 224.5t-70 224.5t-186 84.5zM495 938h36q0 -72 -39 -116.5t-101 -44.5t-101 44.5
t-39 116.5h36q4 -47 32.5 -76t71.5 -29t71.5 29t32.5 76z" />
    <glyph glyph-name="obreve" unicode="&#x14f;" horiz-adv-x="583" 
d="M531 242q0 -108 -68.5 -180t-171.5 -72q-102 0 -170.5 72t-68.5 180t68.5 180.5t170.5 72.5q103 0 171.5 -72.5t68.5 -180.5zM451 242q0 94 -43 148.5t-117 54.5t-117 -55t-43 -148t43.5 -148t116.5 -55q74 0 117 55t43 148zM395 742h36q0 -77 -39.5 -125.5t-100.5 -48.5
t-100.5 48.5t-39.5 125.5h36q4 -50 33.5 -84t70.5 -34t70.5 34t33.5 84z" />
    <glyph glyph-name="Ohungarumlaut" unicode="&#x150;" horiz-adv-x="782" 
d="M391 -10q-147 0 -245 103.5t-98 256.5t98 256.5t245 103.5t245 -103.5t98 -256.5t-98 -256.5t-245 -103.5zM391 659q-116 0 -186 -84.5t-70 -224.5t70 -224.5t186 -84.5t186 84.5t70 224.5t-70 224.5t-186 84.5zM276 770l74 161h81l-113 -161h-42zM436 770l74 161h81
l-113 -161h-42z" />
    <glyph glyph-name="ohungarumlaut" unicode="&#x151;" horiz-adv-x="583" 
d="M531 242q0 -108 -68.5 -180t-171.5 -72q-102 0 -170.5 72t-68.5 180t68.5 180.5t170.5 72.5q103 0 171.5 -72.5t68.5 -180.5zM451 242q0 94 -43 148.5t-117 54.5t-117 -55t-43 -148t43.5 -148t116.5 -55q74 0 117 55t43 148zM186 561l74 188h81l-113 -188h-42zM346 561
l74 188h81l-113 -188h-42z" />
    <glyph glyph-name="OE" unicode="&#x152;" horiz-adv-x="1103" 
d="M1043 0h-610q-179 0 -282 94.5t-103 256.5q0 161 103.5 255t283.5 94h596v-53h-393v-261h296v-53h-296v-280h405v-53zM561 650h-119q-145 0 -226 -79.5t-81 -219.5q0 -142 80 -221.5t225 -79.5h121v600z" />
    <glyph glyph-name="oe" unicode="&#x153;" horiz-adv-x="938" 
d="M844 161l41 -10q-17 -77 -70.5 -119t-135.5 -42q-62 0 -112.5 28.5t-80.5 82.5q-31 -54 -81.5 -82.5t-113.5 -28.5q-102 0 -170.5 72t-68.5 180t68.5 180.5t170.5 72.5q63 0 114 -29.5t83 -84.5q30 55 78 84.5t108 29.5q100 0 156.5 -64.5t56.5 -180.5h-364
q0 -99 45 -153t126 -54q56 0 92 28.5t58 89.5zM673 447q-59 0 -98 -40.5t-49 -112.5h279q-3 75 -36.5 114t-95.5 39zM451 242q0 94 -43 148.5t-117 54.5t-117 -55t-43 -148t43.5 -148t116.5 -55q74 0 117 55t43 148z" />
    <glyph glyph-name="Racute" unicode="&#x154;" horiz-adv-x="720" 
d="M355 649h-167v-286h167q90 0 136.5 37.5t46.5 111.5q0 68 -46 102.5t-137 34.5zM339 313h-151v-313h-77v700h252q126 0 193 -48t67 -141q0 -80 -53 -126t-140 -48v-3q58 -8 90 -35t52 -90l42 -115q10 -26 24 -50.5t31 -43.5h-86q-10 14 -22.5 38.5t-22.5 49.5l-43 114
q-24 67 -56.5 89t-99.5 22zM319 770l59 161h91l-107 -161h-43z" />
    <glyph glyph-name="racute" unicode="&#x155;" horiz-adv-x="493" 
d="M174 485l4 -145q23 70 67.5 113t97.5 43q50 0 79 -28t29 -75q0 -23 -8 -43t-22 -32l-39 33q6 8 9 18t3 22q0 25 -14.5 39t-41.5 14q-57 0 -108.5 -73.5t-51.5 -151.5v-219h-74v485h70zM236 561l67 188h88l-114 -188h-41z" />
    <glyph glyph-name="Rcommaaccent" unicode="&#x156;" horiz-adv-x="720" 
d="M355 649h-167v-286h167q90 0 136.5 37.5t46.5 111.5q0 68 -46 102.5t-137 34.5zM339 313h-151v-313h-77v700h252q126 0 193 -48t67 -141q0 -80 -53 -126t-140 -48v-3q58 -8 90 -35t52 -90l42 -115q10 -26 24 -50.5t31 -43.5h-86q-10 14 -22.5 38.5t-22.5 49.5l-43 114
q-24 67 -56.5 89t-99.5 22zM339 -143h-47v85h97v-91q0 -54 -32.5 -83.5t-93.5 -29.5v46q42 0 59 15t17 53v5z" />
    <glyph glyph-name="rcommaaccent" unicode="&#x157;" horiz-adv-x="493" 
d="M174 485l4 -145q23 70 67.5 113t97.5 43q50 0 79 -28t29 -75q0 -23 -8 -43t-22 -32l-39 33q6 8 9 18t3 22q0 25 -14.5 39t-41.5 14q-57 0 -108.5 -73.5t-51.5 -151.5v-219h-74v485h70zM139 -143h-47v85h97v-91q0 -54 -32.5 -83.5t-93.5 -29.5v46q42 0 59 15t17 53v5z" />
    <glyph glyph-name="Rcaron" unicode="&#x158;" horiz-adv-x="720" 
d="M355 649h-167v-286h167q90 0 136.5 37.5t46.5 111.5q0 68 -46 102.5t-137 34.5zM339 313h-151v-313h-77v700h252q126 0 193 -48t67 -141q0 -80 -53 -126t-140 -48v-3q58 -8 90 -35t52 -90l42 -115q10 -26 24 -50.5t31 -43.5h-86q-10 14 -22.5 38.5t-22.5 49.5l-43 114
q-24 67 -56.5 89t-99.5 22zM493 943l-136 -180h-34l-134 180h43l109 -109l109 109h43z" />
    <glyph glyph-name="rcaron" unicode="&#x159;" horiz-adv-x="493" 
d="M174 485l4 -145q23 70 67.5 113t97.5 43q50 0 79 -28t29 -75q0 -23 -8 -43t-22 -32l-39 33q6 8 9 18t3 22q0 25 -14.5 39t-41.5 14q-57 0 -108.5 -73.5t-51.5 -151.5v-219h-74v485h70zM414 752l-136 -200h-34l-134 200h43l109 -129l109 129h43z" />
    <glyph glyph-name="Sacute" unicode="&#x15a;" horiz-adv-x="620" 
d="M308 46q81 0 128.5 36.5t47.5 100.5q0 49 -31 80t-104 50l-96 25q-102 27 -144 69.5t-42 113.5q0 82 67 135.5t170 53.5q81 0 147.5 -35t99.5 -94l-46 -40q-29 55 -81.5 85t-119.5 30q-73 0 -117 -33.5t-44 -88.5q0 -49 29.5 -77t106.5 -48l92 -24q98 -26 143.5 -70
t45.5 -113q0 -94 -71.5 -153t-180.5 -59q-92 0 -168.5 42.5t-109.5 111.5l46 35q38 -65 98 -99t134 -34zM291 770l59 161h91l-107 -161h-43z" />
    <glyph glyph-name="sacute" unicode="&#x15b;" horiz-adv-x="503" 
d="M249 445q-49 0 -78.5 -20t-29.5 -54q0 -29 18.5 -45.5t65.5 -28.5l85 -21q72 -18 103 -48.5t31 -84.5q0 -67 -53.5 -110t-134.5 -43q-72 0 -127.5 31.5t-82.5 88.5l40 36q29 -52 72.5 -79t98.5 -27q53 0 85 22.5t32 61.5q0 33 -20 51t-77 32l-70 17q-70 17 -101.5 48
t-31.5 81q0 63 49 102.5t124 39.5q63 0 111.5 -27t81.5 -80l-37 -41q-20 44 -62.5 71t-91.5 27zM223 561l67 188h88l-114 -188h-41z" />
    <glyph glyph-name="Scircumflex" unicode="&#x15c;" horiz-adv-x="620" 
d="M308 46q81 0 128.5 36.5t47.5 100.5q0 49 -31 80t-104 50l-96 25q-102 27 -144 69.5t-42 113.5q0 82 67 135.5t170 53.5q81 0 147.5 -35t99.5 -94l-46 -40q-29 55 -81.5 85t-119.5 30q-73 0 -117 -33.5t-44 -88.5q0 -49 29.5 -77t106.5 -48l92 -24q98 -26 143.5 -70
t45.5 -113q0 -94 -71.5 -153t-180.5 -59q-92 0 -168.5 42.5t-109.5 111.5l46 35q38 -65 98 -99t134 -34zM465 768h-43l-109 109l-109 -109h-43l134 180h34z" />
    <glyph glyph-name="scircumflex" unicode="&#x15d;" horiz-adv-x="503" 
d="M249 445q-49 0 -78.5 -20t-29.5 -54q0 -29 18.5 -45.5t65.5 -28.5l85 -21q72 -18 103 -48.5t31 -84.5q0 -67 -53.5 -110t-134.5 -43q-72 0 -127.5 31.5t-82.5 88.5l40 36q29 -52 72.5 -79t98.5 -27q53 0 85 22.5t32 61.5q0 33 -20 51t-77 32l-70 17q-70 17 -101.5 48
t-31.5 81q0 63 49 102.5t124 39.5q63 0 111.5 -27t81.5 -80l-37 -41q-20 44 -62.5 71t-91.5 27zM241 752h34l136 -200h-43l-109 129l-109 -129h-43z" />
    <glyph glyph-name="Scedilla" unicode="&#x15e;" horiz-adv-x="620" 
d="M392 -137q0 -38 -32.5 -63t-81.5 -25q-33 0 -61 15.5t-42 41.5l29 28q14 -20 33 -30.5t41 -10.5q25 0 40.5 11.5t15.5 32.5q0 22 -25 34t-76 14l34 81q-80 9 -144 50t-93 102l46 35q38 -65 98 -99t134 -34q81 0 128.5 36.5t47.5 100.5q0 49 -31 80t-104 50l-96 25
q-102 27 -144 69.5t-42 113.5q0 82 67 135.5t170 53.5q81 0 147.5 -35t99.5 -94l-46 -40q-29 55 -81.5 85t-119.5 30q-73 0 -117 -33.5t-44 -88.5q0 -49 29.5 -77t106.5 -48l92 -24q98 -26 143.5 -70t45.5 -113q0 -94 -71.5 -153t-180.5 -59h-3l-19 -46q52 -5 79 -25.5
t27 -55.5z" />
    <glyph glyph-name="scedilla" unicode="&#x15f;" horiz-adv-x="503" 
d="M338 -137q0 -38 -32.5 -63t-81.5 -25q-33 0 -61 15.5t-42 41.5l29 28q14 -20 33 -30.5t41 -10.5q25 0 40.5 11.5t15.5 32.5q0 22 -25 34t-76 14l34 82q-58 9 -101.5 39t-65.5 78l40 36q29 -52 72.5 -79t98.5 -27q53 0 85 22.5t32 61.5q0 33 -20 51t-77 32l-70 17
q-70 17 -101.5 48t-31.5 81q0 63 49 102.5t124 39.5q63 0 111.5 -27t81.5 -80l-37 -41q-20 44 -62.5 71t-91.5 27t-78.5 -20t-29.5 -54q0 -29 18.5 -45.5t65.5 -28.5l85 -21q72 -18 103 -48.5t31 -84.5q0 -67 -53.5 -110t-134.5 -43h-5l-19 -46q52 -5 79 -25.5t27 -55.5z
" />
    <glyph glyph-name="Scaron" unicode="&#x160;" horiz-adv-x="620" 
d="M308 46q81 0 128.5 36.5t47.5 100.5q0 49 -31 80t-104 50l-96 25q-102 27 -144 69.5t-42 113.5q0 82 67 135.5t170 53.5q81 0 147.5 -35t99.5 -94l-46 -40q-29 55 -81.5 85t-119.5 30q-73 0 -117 -33.5t-44 -88.5q0 -49 29.5 -77t106.5 -48l92 -24q98 -26 143.5 -70
t45.5 -113q0 -94 -71.5 -153t-180.5 -59q-92 0 -168.5 42.5t-109.5 111.5l46 35q38 -65 98 -99t134 -34zM465 943l-136 -180h-34l-134 180h43l109 -109l109 109h43z" />
    <glyph glyph-name="scaron" unicode="&#x161;" horiz-adv-x="503" 
d="M249 445q-49 0 -78.5 -20t-29.5 -54q0 -29 18.5 -45.5t65.5 -28.5l85 -21q72 -18 103 -48.5t31 -84.5q0 -67 -53.5 -110t-134.5 -43q-72 0 -127.5 31.5t-82.5 88.5l40 36q29 -52 72.5 -79t98.5 -27q53 0 85 22.5t32 61.5q0 33 -20 51t-77 32l-70 17q-70 17 -101.5 48
t-31.5 81q0 63 49 102.5t124 39.5q63 0 111.5 -27t81.5 -80l-37 -41q-20 44 -62.5 71t-91.5 27zM411 752l-136 -200h-34l-134 200h43l109 -129l109 129h43z" />
    <glyph glyph-name="Tcommaaccent" unicode="&#x162;" horiz-adv-x="725" 
d="M464 -137q0 -38 -32.5 -63t-81.5 -25q-33 0 -61 15.5t-42 41.5l29 28q14 -20 33 -30.5t41 -10.5q25 0 40.5 11.5t15.5 32.5q0 22 -25 34t-76 14l37 89h-18v649h-272v51h621v-51h-272v-649h-19l-24 -56q52 -5 79 -25.5t27 -55.5z" />
    <glyph glyph-name="tcommaaccent" unicode="&#x163;" horiz-adv-x="420" 
d="M312 -137q0 -38 -32.5 -63t-81.5 -25q-33 0 -61 15.5t-42 41.5l29 28q14 -20 33 -30.5t41 -10.5q25 0 40.5 11.5t15.5 32.5q0 22 -25 34t-76 14l36 86q-39 13 -60 45t-21 78l1 318h-80v47h80l4 140l71 24v-164h175l-5 -47h-170v-306q0 -44 18.5 -66.5t54.5 -22.5t54.5 25
t25.5 86l45 -5q-4 -75 -41.5 -117t-101.5 -42h-13l-20 -46q52 -5 79 -25.5t27 -55.5z" />
    <glyph glyph-name="Tcaron" unicode="&#x164;" horiz-adv-x="725" 
d="M401 0h-77v649h-272v51h621v-51h-272v-649zM514 943l-136 -180h-34l-134 180h43l109 -109l109 109h43z" />
    <glyph glyph-name="tcaron" unicode="&#x165;" horiz-adv-x="420" 
d="M109 438h-80v47h80l4 140l71 24v-164h175l-5 -47h-170v-306q0 -44 18.5 -66.5t54.5 -22.5t54.5 25t25.5 86l45 -5q-4 -75 -41.5 -117t-101.5 -42q-61 0 -96 34.5t-35 95.5zM293 779h79l-68 -205h-36z" />
    <glyph glyph-name="Tbar" unicode="&#x166;" horiz-adv-x="725" 
d="M551 384v-50h-150v-334h-77v334h-150v50h150v265h-272v51h621v-51h-272v-265h150z" />
    <glyph glyph-name="tbar" unicode="&#x167;" horiz-adv-x="434" 
d="M344 154l45 -5q-4 -75 -41.5 -117t-101.5 -42q-61 0 -96 34.5t-35 95.5v158h-80v47h81v113h-80v47h80l4 140l71 24v-164h175l-5 -47h-170v-113h172v-47h-172v-146q0 -44 18.5 -66.5t54.5 -22.5t54.5 25t25.5 86z" />
    <glyph glyph-name="Utilde" unicode="&#x168;" horiz-adv-x="755" 
d="M597 278v422h61v-434q0 -127 -75 -201.5t-198 -74.5q-139 0 -213.5 72t-74.5 205v433h77v-421q0 -109 56.5 -169.5t156.5 -60.5q103 0 156.5 58t53.5 171zM448 792q-14 0 -31 7.5t-49 32.5q-28 21 -41 27.5t-24 6.5q-21 0 -34.5 -19t-21.5 -58h-44q11 61 39 96.5t64 35.5
q14 0 31 -7.5t49 -32.5q28 -21 41 -27.5t24 -6.5q21 0 34.5 19t21.5 58h44q-11 -61 -39 -96.5t-64 -35.5z" />
    <glyph glyph-name="utilde" unicode="&#x169;" horiz-adv-x="602" 
d="M276 45q64 0 106 54t42 139v247h74v-485h-70l-4 122q-22 -65 -66.5 -98.5t-107.5 -33.5q-68 0 -111 48t-43 126v321h74v-307q0 -65 27 -99t79 -34zM368 587q-14 0 -31 7.5t-49 32.5q-28 21 -41 27.5t-24 6.5q-21 0 -34.5 -19t-21.5 -58h-44q11 61 39 96.5t64 35.5
q14 0 31 -7.5t49 -32.5q28 -21 41 -27.5t24 -6.5q21 0 34.5 19t21.5 58h44q-11 -61 -39 -96.5t-64 -35.5z" />
    <glyph glyph-name="Umacron" unicode="&#x16a;" horiz-adv-x="755" 
d="M597 278v422h61v-434q0 -127 -75 -201.5t-198 -74.5q-139 0 -213.5 72t-74.5 205v433h77v-421q0 -109 56.5 -169.5t156.5 -60.5q103 0 156.5 58t53.5 171zM513 842v-50h-272v50h272z" />
    <glyph glyph-name="umacron" unicode="&#x16b;" horiz-adv-x="602" 
d="M276 45q64 0 106 54t42 139v247h74v-485h-70l-4 122q-22 -65 -66.5 -98.5t-107.5 -33.5q-68 0 -111 48t-43 126v321h74v-307q0 -65 27 -99t79 -34zM433 642v-50h-272v50h272z" />
    <glyph glyph-name="Ubreve" unicode="&#x16c;" horiz-adv-x="755" 
d="M597 278v422h61v-434q0 -127 -75 -201.5t-198 -74.5q-139 0 -213.5 72t-74.5 205v433h77v-421q0 -109 56.5 -169.5t156.5 -60.5q103 0 156.5 58t53.5 171zM481 938h36q0 -72 -39 -116.5t-101 -44.5t-101 44.5t-39 116.5h36q4 -47 32.5 -76t71.5 -29t71.5 29t32.5 76z" />
    <glyph glyph-name="ubreve" unicode="&#x16d;" horiz-adv-x="602" 
d="M276 45q64 0 106 54t42 139v247h74v-485h-70l-4 122q-22 -65 -66.5 -98.5t-107.5 -33.5q-68 0 -111 48t-43 126v321h74v-307q0 -65 27 -99t79 -34zM401 742h36q0 -77 -39.5 -125.5t-100.5 -48.5t-100.5 48.5t-39.5 125.5h36q4 -50 33.5 -84t70.5 -34t70.5 34t33.5 84z
" />
    <glyph glyph-name="Uring" unicode="&#x16e;" horiz-adv-x="755" 
d="M597 278v422h61v-434q0 -127 -75 -201.5t-198 -74.5q-139 0 -213.5 72t-74.5 205v433h77v-421q0 -109 56.5 -169.5t156.5 -60.5q103 0 156.5 58t53.5 171zM377 744q-43 0 -74.5 31t-31.5 74q0 42 31.5 73t74.5 31t74.5 -31t31.5 -73q0 -43 -31.5 -74t-74.5 -31zM377 786
q28 0 45.5 17.5t17.5 45.5q0 29 -17.5 46.5t-45.5 17.5t-45.5 -17.5t-17.5 -46.5q0 -28 17.5 -45.5t45.5 -17.5z" />
    <glyph glyph-name="uring" unicode="&#x16f;" horiz-adv-x="602" 
d="M276 45q64 0 106 54t42 139v247h74v-485h-70l-4 122q-22 -65 -66.5 -98.5t-107.5 -33.5q-68 0 -111 48t-43 126v321h74v-307q0 -65 27 -99t79 -34zM297 557q-44 0 -75 31t-31 74q0 42 31.5 72.5t74.5 30.5t74.5 -30.5t31.5 -72.5q0 -43 -31 -74t-75 -31zM297 598
q29 0 46 17.5t17 46.5q0 28 -17.5 46t-45.5 18t-45.5 -18t-17.5 -46q0 -29 17 -46.5t46 -17.5z" />
    <glyph glyph-name="Uhungarumlaut" unicode="&#x170;" horiz-adv-x="755" 
d="M597 278v422h61v-434q0 -127 -75 -201.5t-198 -74.5q-139 0 -213.5 72t-74.5 205v433h77v-421q0 -109 56.5 -169.5t156.5 -60.5q103 0 156.5 58t53.5 171zM262 770l74 161h81l-113 -161h-42zM422 770l74 161h81l-113 -161h-42z" />
    <glyph glyph-name="uhungarumlaut" unicode="&#x171;" horiz-adv-x="602" 
d="M276 45q64 0 106 54t42 139v247h74v-485h-70l-4 122q-22 -65 -66.5 -98.5t-107.5 -33.5q-68 0 -111 48t-43 126v321h74v-307q0 -65 27 -99t79 -34zM192 561l74 188h81l-113 -188h-42zM352 561l74 188h81l-113 -188h-42z" />
    <glyph glyph-name="Uogonek" unicode="&#x172;" horiz-adv-x="755" 
d="M421 -225q-39 0 -68.5 25.5t-29.5 64.5q0 33 20.5 63.5t63.5 62.5q-4 -1 -8.5 -1h-13.5q-139 0 -213.5 72t-74.5 205v433h77v-421q0 -109 56.5 -169.5t156.5 -60.5q103 0 156.5 58t53.5 171v422h61v-434q0 -95 -44 -162.5t-123 -95.5q-58 -37 -85.5 -69t-27.5 -62
q0 -26 16 -41t41 -15q28 0 46 15t33 51l38 -15q-17 -47 -51 -72t-80 -25z" />
    <glyph glyph-name="uogonek" unicode="&#x173;" horiz-adv-x="602" 
d="M515 -113l38 -15q-17 -47 -51 -72t-80 -25q-39 0 -68.5 25.5t-29.5 64.5q0 37 24 70t80 68l-4 119q-22 -65 -66.5 -98.5t-107.5 -33.5q-68 0 -111 48t-43 126v321h74v-307q0 -65 27 -99t79 -34q64 0 106 54t42 139v247h74v-485q-74 -44 -96.5 -69.5t-22.5 -53.5
q0 -26 16 -41t41 -15q28 0 46 15t33 51z" />
    <glyph glyph-name="Wcircumflex" unicode="&#x174;" horiz-adv-x="977" 
d="M696 -7h-42l-163 518l-162 -518h-42l-247 707h77l201 -576l147 468l-34 108h74l178 -571l193 571h61zM640 768h-43l-109 109l-109 -109h-43l134 180h34z" />
    <glyph glyph-name="wcircumflex" unicode="&#x175;" horiz-adv-x="755" 
d="M529 -5h-36l-119 330l-122 -330h-35l-187 490h76l139 -375l102 288l-31 87h74l128 -375l146 375h61zM359 752h34l136 -200h-43l-109 129l-109 -129h-43z" />
    <glyph glyph-name="Ycircumflex" unicode="&#x176;" horiz-adv-x="670" 
d="M127 700l221 -349l220 349h67l-261 -409v-291h-76v291l-262 409h91zM487 768h-43l-109 109l-109 -109h-43l134 180h34z" />
    <glyph glyph-name="ycircumflex" unicode="&#x177;" horiz-adv-x="525" 
d="M100 -225q-43 0 -72 25t-29 64q0 13 2.5 24.5t7.5 19.5l52 -14q-3 -12 -3.5 -16.5t-0.5 -10.5q0 -18 12 -29.5t30 -11.5q33 0 57.5 29t64.5 122l19 45l-210 463h79l170 -378l153 378h63l-225 -530q-40 -96 -79.5 -138t-90.5 -42zM254 752h34l136 -200h-43l-109 129
l-109 -129h-43z" />
    <glyph glyph-name="Ydieresis" unicode="&#x178;" horiz-adv-x="670" 
d="M127 700l221 -349l220 349h67l-261 -409v-291h-76v291l-262 409h91zM291 783h-82v103h82v-103zM461 783h-82v103h82v-103z" />
    <glyph glyph-name="Zacute" unicode="&#x179;" horiz-adv-x="690" 
d="M146 53h479v-53h-575v44l477 603h-451v53h547v-44zM312 770l59 161h91l-107 -161h-43z" />
    <glyph glyph-name="zacute" unicode="&#x17a;" horiz-adv-x="526" 
d="M57 0v30l308 405h-291v50h390v-29l-307 -406h312v-50h-412zM237 561l67 188h88l-114 -188h-41z" />
    <glyph glyph-name="Zdotaccent" unicode="&#x17b;" horiz-adv-x="690" 
d="M146 53h479v-53h-575v44l477 603h-451v53h547v-44zM375 793h-82v113h82v-113z" />
    <glyph glyph-name="zdotaccent" unicode="&#x17c;" horiz-adv-x="526" 
d="M57 0v30l308 405h-291v50h390v-29l-307 -406h312v-50h-412zM304 593h-82v113h82v-113z" />
    <glyph glyph-name="Zcaron" unicode="&#x17d;" horiz-adv-x="690" 
d="M146 53h479v-53h-575v44l477 603h-451v53h547v-44zM486 943l-136 -180h-34l-134 180h43l109 -109l109 109h43z" />
    <glyph glyph-name="zcaron" unicode="&#x17e;" horiz-adv-x="526" 
d="M57 0v30l308 405h-291v50h390v-29l-307 -406h312v-50h-412zM415 752l-136 -200h-34l-134 200h43l109 -129l109 129h43z" />
    <glyph glyph-name="florin" unicode="&#x192;" horiz-adv-x="518" 
d="M54 -184q-46 0 -75 27.5t-29 69.5q0 20 10 41.5t24 34.5l40 -18q-11 -17 -16 -30.5t-5 -22.5q0 -25 13 -39t37 -14q39 0 60 30.5t32 109.5l48 351h-105l6 43h104l15 108q13 100 55.5 151.5t110.5 51.5q48 0 79 -25.5t31 -64.5q0 -20 -9.5 -40t-24.5 -34l-40 18
q12 20 16.5 31t4.5 20q0 22 -15 34t-41 12q-39 0 -60 -30.5t-32 -109.5l-17 -122h128l-6 -43h-127l-46 -337q-13 -100 -55.5 -151.5t-110.5 -51.5z" />
    <glyph glyph-name="AEacute" unicode="&#x1fc;" horiz-adv-x="1053" 
d="M511 283v364l-228 -364h228zM993 0h-482v233h-259l-146 -233h-66l441 700h500v-53h-393v-261h296v-53h-296v-280h405v-53zM711 770l59 161h91l-107 -161h-43z" />
    <glyph glyph-name="aeacute" unicode="&#x1fd;" horiz-adv-x="873" 
d="M779 161l41 -10q-17 -77 -70.5 -119t-135.5 -42q-69 0 -121.5 34t-78.5 96q-26 -61 -81 -95.5t-129 -34.5q-63 0 -102.5 35t-39.5 93q0 61 48.5 95.5t189.5 58.5l89 15v37q0 61 -31 90t-97 29q-50 0 -81 -20t-31 -54q0 -8 2.5 -16.5t7.5 -15.5l-41 -31q-13 14 -19.5 29.5
t-6.5 32.5q0 56 48 91.5t129 35.5q60 0 104 -24.5t64 -68.5q29 45 74 69t98 24q100 0 156.5 -64.5t56.5 -180.5h-364q0 -99 45 -153t126 -54q56 0 92 28.5t58 89.5zM608 447q-59 0 -98 -40.5t-49 -112.5h279q-3 75 -36.5 114t-95.5 39zM389 233v11l-87 -14
q-92 -14 -128.5 -39.5t-36.5 -68.5q0 -38 24.5 -59t66.5 -21q70 0 115.5 54t45.5 137zM416 561l67 188h88l-114 -188h-41z" />
    <glyph glyph-name="Oslashacute" unicode="&#x1fe;" horiz-adv-x="782" 
d="M391 659q-116 0 -186 -84.5t-70 -224.5q0 -59 13.5 -110t39.5 -91l385 430q-35 39 -81 59.5t-101 20.5zM391 41q116 0 186 84.5t70 224.5q0 53 -11 100.5t-33 86.5l-384 -427q34 -34 77.5 -51.5t94.5 -17.5zM734 350q0 -153 -98 -256.5t-245 -103.5q-60 0 -114 19t-99 55
l-92 -103l-38 33l94 104q-45 50 -69.5 115t-24.5 137q0 153 98 256.5t245 103.5q64 0 121.5 -21.5t102.5 -62.5l81 90l38 -33l-84 -93q41 -49 62.5 -111t21.5 -129zM369 770l59 161h91l-107 -161h-43z" />
    <glyph glyph-name="oslashacute" unicode="&#x1ff;" horiz-adv-x="583" 
d="M291 445q-74 0 -117 -55t-43 -148q0 -36 7 -66.5t20 -55.5l240 282q-21 21 -48 32t-59 11zM291 39q74 0 117 55t43 148q0 34 -6.5 64t-18.5 55l-239 -281q21 -20 47.5 -30.5t56.5 -10.5zM531 242q0 -108 -68.5 -180t-171.5 -72q-39 0 -75 11.5t-66 34.5l-62 -73l-36 32
l62 74q-30 34 -46 78.5t-16 94.5q0 108 68.5 180.5t170.5 72.5q40 0 76.5 -12t67.5 -36l60 70l36 -32l-61 -71q30 -34 45.5 -78t15.5 -94zM265 561l67 188h88l-114 -188h-41z" />
    <glyph glyph-name="Scommaaccent" unicode="&#x218;" horiz-adv-x="620" 
d="M308 46q81 0 128.5 36.5t47.5 100.5q0 49 -31 80t-104 50l-96 25q-102 27 -144 69.5t-42 113.5q0 82 67 135.5t170 53.5q81 0 147.5 -35t99.5 -94l-46 -40q-29 55 -81.5 85t-119.5 30q-73 0 -117 -33.5t-44 -88.5q0 -49 29.5 -77t106.5 -48l92 -24q98 -26 143.5 -70
t45.5 -113q0 -94 -71.5 -153t-180.5 -59q-92 0 -168.5 42.5t-109.5 111.5l46 35q38 -65 98 -99t134 -34zM311 -143h-47v85h97v-91q0 -54 -32.5 -83.5t-93.5 -29.5v46q42 0 59 15t17 53v5z" />
    <glyph glyph-name="scommaaccent" unicode="&#x219;" horiz-adv-x="503" 
d="M249 445q-49 0 -78.5 -20t-29.5 -54q0 -29 18.5 -45.5t65.5 -28.5l85 -21q72 -18 103 -48.5t31 -84.5q0 -67 -53.5 -110t-134.5 -43q-72 0 -127.5 31.5t-82.5 88.5l40 36q29 -52 72.5 -79t98.5 -27q53 0 85 22.5t32 61.5q0 33 -20 51t-77 32l-70 17q-70 17 -101.5 48
t-31.5 81q0 63 49 102.5t124 39.5q63 0 111.5 -27t81.5 -80l-37 -41q-20 44 -62.5 71t-91.5 27zM257 -143h-47v85h97v-91q0 -54 -32.5 -83.5t-93.5 -29.5v46q42 0 59 15t17 53v5z" />
    <glyph glyph-name="uni021A" unicode="&#x21a;" horiz-adv-x="725" 
d="M401 0h-77v649h-272v51h621v-51h-272v-649zM360 -143h-47v85h97v-91q0 -54 -32.5 -83.5t-93.5 -29.5v46q42 0 59 15t17 53v5z" />
    <glyph glyph-name="uni021B" unicode="&#x21b;" horiz-adv-x="420" 
d="M109 438h-80v47h80l4 140l71 24v-164h175l-5 -47h-170v-306q0 -44 18.5 -66.5t54.5 -22.5t54.5 25t25.5 86l45 -5q-4 -75 -41.5 -117t-101.5 -42q-61 0 -96 34.5t-35 95.5zM226 -143h-47v85h97v-91q0 -54 -32.5 -83.5t-93.5 -29.5v46q42 0 59 15t17 53v5z" />
    <glyph glyph-name="uni0237" unicode="&#x237;" horiz-adv-x="282" 
d="M178 485v-525q0 -84 -40 -134.5t-109 -50.5q-55 0 -86.5 26t-31.5 71q0 12 4 23.5t10 19.5l45 -12q-3 -5 -4.5 -12t-1.5 -16q0 -26 16 -40.5t45 -14.5q42 0 60.5 29.5t18.5 98.5v537h74z" />
    <glyph glyph-name="circumflex" unicode="&#x2c6;" horiz-adv-x="500" 
d="M232 752h34l136 -200h-43l-109 129l-109 -129h-43z" />
    <glyph glyph-name="caron" unicode="&#x2c7;" horiz-adv-x="500" 
d="M402 752l-136 -200h-34l-134 200h43l109 -129l109 129h43z" />
    <glyph glyph-name="breve" unicode="&#x2d8;" horiz-adv-x="500" 
d="M354 742h36q0 -77 -39.5 -125.5t-100.5 -48.5t-100.5 48.5t-39.5 125.5h36q4 -50 33.5 -84t70.5 -34t70.5 34t33.5 84z" />
    <glyph glyph-name="dotaccent" unicode="&#x2d9;" horiz-adv-x="500" 
d="M292 593h-82v113h82v-113z" />
    <glyph glyph-name="ring" unicode="&#x2da;" horiz-adv-x="500" 
d="M250 557q-44 0 -75 31t-31 74q0 42 31.5 72.5t74.5 30.5t74.5 -30.5t31.5 -72.5q0 -43 -31 -74t-75 -31zM250 598q29 0 46 17.5t17 46.5q0 28 -17.5 46t-45.5 18t-45.5 -18t-17.5 -46q0 -29 17 -46.5t46 -17.5z" />
    <glyph glyph-name="ogonek" unicode="&#x2db;" horiz-adv-x="500" 
d="M238 -225q-39 0 -68.5 25.5t-29.5 64.5q0 42 31.5 79t117.5 86l25 -30q-74 -44 -96.5 -69.5t-22.5 -53.5q0 -26 16 -41t41 -15q28 0 46 15t33 51l38 -15q-17 -47 -51 -72t-80 -25z" />
    <glyph glyph-name="tilde" unicode="&#x2dc;" horiz-adv-x="500" 
d="M321 587q-14 0 -31 7.5t-49 32.5q-28 21 -41 27.5t-24 6.5q-21 0 -34.5 -19t-21.5 -58h-44q11 61 39 96.5t64 35.5q14 0 31 -7.5t49 -32.5q28 -21 41 -27.5t24 -6.5q21 0 34.5 19t21.5 58h44q-11 -61 -39 -96.5t-64 -35.5z" />
    <glyph glyph-name="hungarumlaut" unicode="&#x2dd;" horiz-adv-x="500" 
d="M93 561l74 188h81l-113 -188h-42zM253 561l74 188h81l-113 -188h-42z" />
    <glyph glyph-name="Wgrave" unicode="&#x1e80;" horiz-adv-x="977" 
d="M696 -7h-42l-163 518l-162 -518h-42l-247 707h77l201 -576l147 468l-34 108h74l178 -571l193 571h61zM523 770h-43l-107 161h91z" />
    <glyph glyph-name="wgrave" unicode="&#x1e81;" horiz-adv-x="755" 
d="M529 -5h-36l-119 330l-122 -330h-35l-187 490h76l139 -375l102 288l-31 87h74l128 -375l146 375h61zM405 561h-41l-114 188h88z" />
    <glyph glyph-name="Wacute" unicode="&#x1e82;" horiz-adv-x="977" 
d="M696 -7h-42l-163 518l-162 -518h-42l-247 707h77l201 -576l147 468l-34 108h74l178 -571l193 571h61zM466 770l59 161h91l-107 -161h-43z" />
    <glyph glyph-name="wacute" unicode="&#x1e83;" horiz-adv-x="755" 
d="M529 -5h-36l-119 330l-122 -330h-35l-187 490h76l139 -375l102 288l-31 87h74l128 -375l146 375h61zM351 561l67 188h88l-114 -188h-41z" />
    <glyph glyph-name="Wdieresis" unicode="&#x1e84;" horiz-adv-x="977" 
d="M696 -7h-42l-163 518l-162 -518h-42l-247 707h77l201 -576l147 468l-34 108h74l178 -571l193 571h61zM444 783h-82v103h82v-103zM614 783h-82v103h82v-103z" />
    <glyph glyph-name="wdieresis" unicode="&#x1e85;" horiz-adv-x="755" 
d="M529 -5h-36l-119 330l-122 -330h-35l-187 490h76l139 -375l102 288l-31 87h74l128 -375l146 375h61zM333 593h-82v103h82v-103zM503 593h-82v103h82v-103z" />
    <glyph glyph-name="Ygrave" unicode="&#x1ef2;" horiz-adv-x="670" 
d="M127 700l221 -349l220 349h67l-261 -409v-291h-76v291l-262 409h91zM370 770h-43l-107 161h91z" />
    <glyph glyph-name="ygrave" unicode="&#x1ef3;" horiz-adv-x="525" 
d="M100 -225q-43 0 -72 25t-29 64q0 13 2.5 24.5t7.5 19.5l52 -14q-3 -12 -3.5 -16.5t-0.5 -10.5q0 -18 12 -29.5t30 -11.5q33 0 57.5 29t64.5 122l19 45l-210 463h79l170 -378l153 378h63l-225 -530q-40 -96 -79.5 -138t-90.5 -42zM300 561h-41l-114 188h88z" />
    <glyph glyph-name="endash" unicode="&#x2013;" horiz-adv-x="562" 
d="M491 253h-420v57h420v-57z" />
    <glyph glyph-name="emdash" unicode="&#x2014;" horiz-adv-x="862" 
d="M791 253h-720v57h720v-57z" />
    <glyph glyph-name="quoteleft" unicode="&#x2018;" horiz-adv-x="240" 
d="M119 562h50v-105h-100v118q0 65 35 100t101 35v-46q-48 0 -67 -20.5t-19 -68.5v-13z" />
    <glyph glyph-name="quoteright" unicode="&#x2019;" horiz-adv-x="240" 
d="M121 595h-50v105h100v-118q0 -65 -35 -100t-101 -35v46q48 0 67 20.5t19 68.5v13z" />
    <glyph glyph-name="quotesinglbase" unicode="&#x201a;" horiz-adv-x="240" 
d="M121 4h-50v105h100v-118q0 -65 -35 -100t-101 -35v46q48 0 67 20.5t19 68.5v13z" />
    <glyph glyph-name="quotedblleft" unicode="&#x201c;" horiz-adv-x="444" 
d="M119 562h50v-105h-100v118q0 65 35 100t101 35v-46q-48 0 -67 -20.5t-19 -68.5v-13zM323 562h50v-105h-100v118q0 65 35 100t101 35v-46q-48 0 -67 -20.5t-19 -68.5v-13z" />
    <glyph glyph-name="quotedblright" unicode="&#x201d;" horiz-adv-x="445" 
d="M121 595h-50v105h100v-118q0 -65 -35 -100t-101 -35v46q48 0 67 20.5t19 68.5v13zM326 595h-50v105h100v-118q0 -65 -35 -100t-101 -35v46q48 0 67 20.5t19 68.5v13z" />
    <glyph glyph-name="quotedblbase" unicode="&#x201e;" horiz-adv-x="445" 
d="M121 4h-50v105h100v-118q0 -65 -35 -100t-101 -35v46q48 0 67 20.5t19 68.5v13zM326 4h-50v105h100v-118q0 -65 -35 -100t-101 -35v46q48 0 67 20.5t19 68.5v13z" />
    <glyph glyph-name="dagger" unicode="&#x2020;" horiz-adv-x="448" 
d="M248 285h-48v278h-140v48h140v138h48v-138h140v-48h-140v-278z" />
    <glyph glyph-name="daggerdbl" unicode="&#x2021;" horiz-adv-x="448" 
d="M248 285h-48v132h-140v48h140v104h-140v48h140v132h48v-132h140v-48h-140v-104h140v-48h-140v-132z" />
    <glyph glyph-name="bullet" unicode="&#x2022;" horiz-adv-x="382" 
d="M192 151q-50 0 -85.5 35.5t-35.5 84.5q0 50 36 85.5t85 35.5t84 -35.5t35 -85.5t-35 -85t-84 -35z" />
    <glyph glyph-name="ellipsis" unicode="&#x2026;" horiz-adv-x="683" 
d="M612 0h-101v109h101v-109zM392 0h-101v109h101v-109zM172 0h-101v109h101v-109z" />
    <glyph glyph-name="perthousand" unicode="&#x2030;" horiz-adv-x="1319" 
d="M658 710l-434 -720h-55l434 720h55zM209 370q-63 0 -106 49t-43 121t43 121t106 49t106 -49t43 -121q0 -73 -42.5 -121.5t-106.5 -48.5zM209 422q41 0 66.5 32.5t25.5 85.5q0 52 -25.5 85t-66.5 33t-66 -33t-25 -85q0 -53 25 -85.5t66 -32.5zM617 -10q-63 0 -106 49
t-43 121t43 121t106 49t106 -49t43 -121q0 -73 -42.5 -121.5t-106.5 -48.5zM984 -10q-63 0 -106 49t-43 121t43 121t106 49t106 -49t43 -121q0 -73 -42.5 -121.5t-106.5 -48.5zM617 42q41 0 66.5 32.5t25.5 85.5q0 52 -25.5 85t-66.5 33t-66 -33t-25 -85q0 -53 25 -85.5
t66 -32.5zM984 42q41 0 66.5 32.5t25.5 85.5q0 52 -25.5 85t-66.5 33t-66 -33t-25 -85q0 -53 25 -85.5t66 -32.5z" />
    <glyph glyph-name="guilsinglleft" unicode="&#x2039;" horiz-adv-x="386" 
d="M275 34l-220 206v8l220 206h56l-180 -210l180 -210h-56z" />
    <glyph glyph-name="guilsinglright" unicode="&#x203a;" horiz-adv-x="386" 
d="M55 34l180 210l-180 210h56l220 -206v-8l-220 -206h-56z" />
    <glyph glyph-name="fraction" unicode="&#x2044;" horiz-adv-x="183" 
d="M-98 -10h-55l434 720h55z" />
    <glyph glyph-name="uni2070" unicode="&#x2070;" horiz-adv-x="416" 
d="M208 296q-73 0 -117.5 56.5t-44.5 148.5t44.5 148.5t117.5 56.5t117.5 -56.5t44.5 -148.5t-44.5 -148.5t-117.5 -56.5zM208 669q-45 0 -67 -42t-22 -126t22 -126t67 -42q44 0 66 42t22 126t-22 126t-66 42z" />
    <glyph glyph-name="uni2074" unicode="&#x2074;" horiz-adv-x="402" 
d="M282 444h84v-36h-84v-106h-63v106h-185v27l183 265h65v-256zM83 444h136v198z" />
    <glyph glyph-name="uni2075" unicode="&#x2075;" horiz-adv-x="369" 
d="M103 700h207l-7 -61h-173l-13 -100q15 11 34.5 17t40.5 6q57 0 93 -34t36 -90q0 -64 -43.5 -103t-113.5 -39q-56 0 -91.5 26.5t-35.5 69.5q0 21 11 37t31 26l26 -24q-13 -11 -17.5 -19.5t-4.5 -19.5q0 -27 20 -43t54 -16q43 0 67.5 28t24.5 77q0 39 -21.5 62t-58.5 23
q-21 0 -38 -7t-32 -23h-22z" />
    <glyph glyph-name="uni2076" unicode="&#x2076;" horiz-adv-x="386" 
d="M218 550q53 0 88 -34t35 -89q0 -57 -40.5 -94t-102.5 -37q-68 0 -110 53.5t-42 138.5q0 94 50.5 156t131.5 62q49 0 79 -23t30 -59q0 -20 -9.5 -34t-25.5 -19l-27 19q7 6 11 13.5t4 16.5q0 24 -15.5 36.5t-45.5 12.5q-55 0 -87 -51t-30 -133q10 30 39 47.5t67 17.5z
M197 510q-37 0 -57 -23t-20 -65t20.5 -66.5t56.5 -24.5q37 0 57.5 23.5t20.5 67.5q0 42 -20.5 65t-57.5 23z" />
    <glyph glyph-name="uni2077" unicode="&#x2077;" horiz-adv-x="344" 
d="M44 639v61h275v-28l-40 -61q-46 -72 -70.5 -151t-24.5 -158h-62q10 89 37 161t81 150l18 26h-214z" />
    <glyph glyph-name="uni2078" unicode="&#x2078;" horiz-adv-x="382" 
d="M314 612q0 -29 -18.5 -52t-53.5 -37q50 -19 73 -45.5t23 -65.5q0 -51 -42 -83.5t-106 -32.5q-66 0 -105.5 29t-39.5 77q0 33 22.5 58.5t64.5 40.5q-33 16 -49.5 40t-16.5 56q0 48 35.5 78.5t89.5 30.5q53 0 88 -26.5t35 -67.5zM191 670q-31 0 -50 -15t-19 -41
q0 -22 13 -37.5t44 -27.5l34 -14q29 16 42.5 34t13.5 42q0 27 -21.5 43t-56.5 16zM277 398q0 24 -15.5 40t-51.5 30l-53 20q-36 -17 -51.5 -37.5t-15.5 -46.5q0 -33 27.5 -52.5t72.5 -19.5q38 0 62.5 18t24.5 48z" />
    <glyph glyph-name="uni2079" unicode="&#x2079;" horiz-adv-x="386" 
d="M189 492q37 0 57 23t20 65t-20.5 66.5t-56.5 24.5q-37 0 -57.5 -23.5t-20.5 -67.5q0 -42 20.5 -65t57.5 -23zM168 452q-53 0 -88 34t-35 89q0 57 40.5 94t102.5 37q68 0 110 -53.5t42 -138.5q0 -94 -50.5 -156t-131.5 -62q-49 0 -79 23t-30 59q0 20 9.5 34t25.5 19
l27 -19q-7 -6 -11 -13.5t-4 -16.5q0 -24 15.5 -36.5t45.5 -12.5q55 0 87 51t30 133q-10 -30 -39 -47.5t-67 -17.5z" />
    <glyph glyph-name="uni2080" unicode="&#x2080;" horiz-adv-x="416" 
d="M208 -106q-73 0 -117.5 56.5t-44.5 148.5t44.5 148.5t117.5 56.5t117.5 -56.5t44.5 -148.5t-44.5 -148.5t-117.5 -56.5zM208 267q-45 0 -67 -42t-22 -126t22 -126t67 -42q44 0 66 42t22 126t-22 126t-66 42z" />
    <glyph glyph-name="uni2081" unicode="&#x2081;" horiz-adv-x="284" 
d="M202 303v-403h-64v309q-9 -15 -38 -38.5t-51 -32.5l-13 36q33 18 70.5 55t60.5 74h35z" />
    <glyph glyph-name="uni2082" unicode="&#x2082;" horiz-adv-x="367" 
d="M305 190q0 -51 -36.5 -96t-161.5 -136h213l-5 -58h-283v21l107 104q56 55 76 92t20 76q0 33 -19.5 53t-52.5 20t-52 -18t-19 -51q0 -15 8.5 -29t22.5 -24l-28 -25q-20 7 -34 29.5t-14 47.5q0 47 34.5 77.5t90.5 30.5q59 0 96 -31t37 -83z" />
    <glyph glyph-name="uni2083" unicode="&#x2083;" horiz-adv-x="376" 
d="M331 13q0 -53 -43 -86t-110 -33q-59 0 -96.5 28t-37.5 72q0 24 15 42.5t38 26.5l24 -25q-16 -8 -23 -18.5t-7 -24.5q0 -28 21.5 -45.5t56.5 -17.5q44 0 67 21t23 61q0 42 -25 63.5t-73 21.5h-9v29h9q44 1 65.5 19.5t21.5 55.5q0 30 -19 47t-53 17q-32 0 -50.5 -14
t-18.5 -40q0 -12 6 -21t18 -15l-20 -27q-23 7 -36 23.5t-13 40.5q0 38 35 64t87 26q60 0 95.5 -26.5t35.5 -72.5q0 -37 -28.5 -62t-71.5 -27v-2q52 -3 84 -31t32 -70z" />
    <glyph glyph-name="uni2084" unicode="&#x2084;" horiz-adv-x="402" 
d="M282 42h84v-36h-84v-106h-63v106h-185v27l183 265h65v-256zM83 42h136v198z" />
    <glyph glyph-name="uni2085" unicode="&#x2085;" horiz-adv-x="369" 
d="M103 298h207l-7 -61h-173l-13 -100q15 11 34.5 17t40.5 6q57 0 93 -34t36 -90q0 -64 -43.5 -103t-113.5 -39q-56 0 -91.5 26.5t-35.5 69.5q0 21 11 37t31 26l26 -24q-13 -11 -17.5 -19.5t-4.5 -19.5q0 -27 20 -43t54 -16q43 0 67.5 28t24.5 77q0 39 -21.5 62t-58.5 23
q-21 0 -38 -7t-32 -23h-22z" />
    <glyph glyph-name="uni2086" unicode="&#x2086;" horiz-adv-x="386" 
d="M218 148q53 0 88 -34t35 -89q0 -57 -40.5 -94t-102.5 -37q-68 0 -110 53.5t-42 138.5q0 94 50.5 156t131.5 62q49 0 79 -23t30 -59q0 -20 -9.5 -34t-25.5 -19l-27 19q7 6 11 13.5t4 16.5q0 24 -15.5 36.5t-45.5 12.5q-55 0 -87 -51t-30 -133q10 30 39 47.5t67 17.5z
M197 108q-37 0 -57 -23t-20 -65t20.5 -66.5t56.5 -24.5q37 0 57.5 23.5t20.5 67.5q0 42 -20.5 65t-57.5 23z" />
    <glyph glyph-name="uni2087" unicode="&#x2087;" horiz-adv-x="344" 
d="M44 237v61h275v-28l-40 -61q-46 -72 -70.5 -151t-24.5 -158h-62q10 89 37 161t81 150l18 26h-214z" />
    <glyph glyph-name="uni2088" unicode="&#x2088;" horiz-adv-x="382" 
d="M314 210q0 -29 -18.5 -52t-53.5 -37q50 -19 73 -45.5t23 -65.5q0 -51 -42 -83.5t-106 -32.5q-66 0 -105.5 29t-39.5 77q0 33 22.5 58.5t64.5 40.5q-33 16 -49.5 40t-16.5 56q0 48 35.5 78.5t89.5 30.5q53 0 88 -26.5t35 -67.5zM191 268q-31 0 -50 -15t-19 -41
q0 -22 13 -37.5t44 -27.5l34 -14q29 16 42.5 34t13.5 42q0 27 -21.5 43t-56.5 16zM277 -4q0 24 -15.5 40t-51.5 30l-53 20q-36 -17 -51.5 -37.5t-15.5 -46.5q0 -33 27.5 -52.5t72.5 -19.5q38 0 62.5 18t24.5 48z" />
    <glyph glyph-name="uni2089" unicode="&#x2089;" horiz-adv-x="386" 
d="M189 90q37 0 57 23t20 65t-20.5 66.5t-56.5 24.5q-37 0 -57.5 -23.5t-20.5 -67.5q0 -42 20.5 -65t57.5 -23zM168 50q-53 0 -88 34t-35 89q0 57 40.5 94t102.5 37q68 0 110 -53.5t42 -138.5q0 -94 -50.5 -156t-131.5 -62q-49 0 -79 23t-30 59q0 20 9.5 34t25.5 19l27 -19
q-7 -6 -11 -13.5t-4 -16.5q0 -24 15.5 -36.5t45.5 -12.5q55 0 87 51t30 133q-10 -30 -39 -47.5t-67 -17.5z" />
    <glyph glyph-name="Euro" unicode="&#x20ac;" horiz-adv-x="643" 
d="M560 196l45 -21q-28 -90 -85 -137.5t-135 -47.5q-99 0 -169.5 70t-92.5 190h-93v43h87q-1 20 -1.5 31.5t-0.5 21.5q0 9 0.5 19.5t1.5 27.5h-87v43h92q21 125 92.5 199.5t172.5 74.5q79 0 136.5 -47t80.5 -127l-53 -28q-21 77 -61.5 113.5t-104.5 36.5q-75 0 -122 -57
t-61 -165h229l-10 -43h-223q-1 -7 -1 -16.5v-28.5q0 -11 0.5 -23.5t1.5 -31.5h202l-10 -43h-187q16 -98 63.5 -151t119.5 -53q67 0 109.5 37t63.5 113z" />
    <glyph glyph-name="trademark" unicode="&#x2122;" horiz-adv-x="843" 
d="M225 397h-56v273h-114v30h284v-30h-114v-273zM471 700l88 -219l88 219h67v-303h-56v252l-102 -253h-20l-101 253v-252h-35v303h71z" />
    <glyph glyph-name="uni2153" unicode="&#x2153;" horiz-adv-x="817" 
d="M184 -10h-55l434 720h55zM202 705v-403h-64v309q-9 -15 -38 -38.5t-51 -32.5l-13 36q33 18 70.5 55t60.5 74h35zM774 113q0 -53 -43 -86t-110 -33q-59 0 -96.5 28t-37.5 72q0 24 15 42.5t38 26.5l24 -25q-16 -8 -23 -18.5t-7 -24.5q0 -28 21.5 -45.5t56.5 -17.5
q44 0 67 21t23 61q0 42 -25 63.5t-73 21.5h-9v29h9q44 1 65.5 19.5t21.5 55.5q0 30 -19 47t-53 17q-32 0 -50.5 -14t-18.5 -40q0 -12 6 -21t18 -15l-20 -27q-23 7 -36 23.5t-13 40.5q0 38 35 64t87 26q60 0 95.5 -26.5t35.5 -72.5q0 -37 -28.5 -62t-71.5 -27v-2
q52 -3 84 -31t32 -70z" />
    <glyph glyph-name="uni2154" unicode="&#x2154;" horiz-adv-x="896" 
d="M263 -10h-55l434 720h55zM853 113q0 -53 -43 -86t-110 -33q-59 0 -96.5 28t-37.5 72q0 24 15 42.5t38 26.5l24 -25q-16 -8 -23 -18.5t-7 -24.5q0 -28 21.5 -45.5t56.5 -17.5q44 0 67 21t23 61q0 42 -25 63.5t-73 21.5h-9v29h9q44 1 65.5 19.5t21.5 55.5q0 30 -19 47
t-53 17q-32 0 -50.5 -14t-18.5 -40q0 -12 6 -21t18 -15l-20 -27q-23 7 -36 23.5t-13 40.5q0 38 35 64t87 26q60 0 95.5 -26.5t35.5 -72.5q0 -37 -28.5 -62t-71.5 -27v-2q52 -3 84 -31t32 -70zM305 592q0 -51 -36.5 -96t-161.5 -136h213l-5 -58h-283v21l107 104q56 55 76 92
t20 76q0 33 -19.5 53t-52.5 20t-52 -18t-19 -51q0 -15 8.5 -29t22.5 -24l-28 -25q-20 7 -34 29.5t-14 47.5q0 47 34.5 77.5t90.5 30.5q59 0 96 -31t37 -83z" />
    <glyph glyph-name="uni215B" unicode="&#x215b;" horiz-adv-x="823" 
d="M757 310q0 -29 -18.5 -52t-53.5 -37q50 -19 73 -45.5t23 -65.5q0 -51 -42 -83.5t-106 -32.5q-66 0 -105.5 29t-39.5 77q0 33 22.5 58.5t64.5 40.5q-33 16 -49.5 40t-16.5 56q0 48 35.5 78.5t89.5 30.5q53 0 88 -26.5t35 -67.5zM634 368q-31 0 -50 -15t-19 -41
q0 -22 13 -37.5t44 -27.5l34 -14q29 16 42.5 34t13.5 42q0 27 -21.5 43t-56.5 16zM720 96q0 24 -15.5 40t-51.5 30l-53 20q-36 -17 -51.5 -37.5t-15.5 -46.5q0 -33 27.5 -52.5t72.5 -19.5q38 0 62.5 18t24.5 48zM184 -10h-55l434 720h55zM202 705v-403h-64v309
q-9 -15 -38 -38.5t-51 -32.5l-13 36q33 18 70.5 55t60.5 74h35z" />
    <glyph glyph-name="uni215C" unicode="&#x215c;" horiz-adv-x="902" 
d="M836 310q0 -29 -18.5 -52t-53.5 -37q50 -19 73 -45.5t23 -65.5q0 -51 -42 -83.5t-106 -32.5q-66 0 -105.5 29t-39.5 77q0 33 22.5 58.5t64.5 40.5q-33 16 -49.5 40t-16.5 56q0 48 35.5 78.5t89.5 30.5q53 0 88 -26.5t35 -67.5zM713 368q-31 0 -50 -15t-19 -41
q0 -22 13 -37.5t44 -27.5l34 -14q29 16 42.5 34t13.5 42q0 27 -21.5 43t-56.5 16zM799 96q0 24 -15.5 40t-51.5 30l-53 20q-36 -17 -51.5 -37.5t-15.5 -46.5q0 -33 27.5 -52.5t72.5 -19.5q38 0 62.5 18t24.5 48zM263 -10h-55l434 720h55zM331 415q0 -53 -43 -86t-110 -33
q-59 0 -96.5 28t-37.5 72q0 24 15 42.5t38 26.5l24 -25q-16 -8 -23 -18.5t-7 -24.5q0 -28 21.5 -45.5t56.5 -17.5q44 0 67 21t23 61q0 42 -25 63.5t-73 21.5h-9v29h9q44 1 65.5 19.5t21.5 55.5q0 30 -19 47t-53 17q-32 0 -50.5 -14t-18.5 -40q0 -12 6 -21t18 -15l-20 -27
q-23 7 -36 23.5t-13 40.5q0 38 35 64t87 26q60 0 95.5 -26.5t35.5 -72.5q0 -37 -28.5 -62t-71.5 -27v-2q52 -3 84 -31t32 -70z" />
    <glyph glyph-name="uni215D" unicode="&#x215d;" horiz-adv-x="888" 
d="M249 -10h-55l434 720h55zM822 310q0 -29 -18.5 -52t-53.5 -37q50 -19 73 -45.5t23 -65.5q0 -51 -42 -83.5t-106 -32.5q-66 0 -105.5 29t-39.5 77q0 33 22.5 58.5t64.5 40.5q-33 16 -49.5 40t-16.5 56q0 48 35.5 78.5t89.5 30.5q53 0 88 -26.5t35 -67.5zM699 368
q-31 0 -50 -15t-19 -41q0 -22 13 -37.5t44 -27.5l34 -14q29 16 42.5 34t13.5 42q0 27 -21.5 43t-56.5 16zM785 96q0 24 -15.5 40t-51.5 30l-53 20q-36 -17 -51.5 -37.5t-15.5 -46.5q0 -33 27.5 -52.5t72.5 -19.5q38 0 62.5 18t24.5 48zM103 700h207l-7 -61h-173l-13 -100
q15 11 34.5 17t40.5 6q57 0 93 -34t36 -90q0 -64 -43.5 -103t-113.5 -39q-56 0 -91.5 26.5t-35.5 69.5q0 21 11 37t31 26l26 -24q-13 -11 -17.5 -19.5t-4.5 -19.5q0 -27 20 -43t54 -16q43 0 67.5 28t24.5 77q0 39 -21.5 62t-58.5 23q-21 0 -38 -7t-32 -23h-22z" />
    <glyph glyph-name="uni215E" unicode="&#x215e;" horiz-adv-x="823" 
d="M757 310q0 -29 -18.5 -52t-53.5 -37q50 -19 73 -45.5t23 -65.5q0 -51 -42 -83.5t-106 -32.5q-66 0 -105.5 29t-39.5 77q0 33 22.5 58.5t64.5 40.5q-33 16 -49.5 40t-16.5 56q0 48 35.5 78.5t89.5 30.5q53 0 88 -26.5t35 -67.5zM634 368q-31 0 -50 -15t-19 -41
q0 -22 13 -37.5t44 -27.5l34 -14q29 16 42.5 34t13.5 42q0 27 -21.5 43t-56.5 16zM720 96q0 24 -15.5 40t-51.5 30l-53 20q-36 -17 -51.5 -37.5t-15.5 -46.5q0 -33 27.5 -52.5t72.5 -19.5q38 0 62.5 18t24.5 48zM184 -10h-55l434 720h55zM44 639v61h275v-28l-40 -61
q-46 -72 -70.5 -151t-24.5 -158h-62q10 89 37 161t81 150l18 26h-214z" />
    <glyph glyph-name="minus" unicode="&#x2212;" horiz-adv-x="633" 
d="M545 313h-456v55h456v-55z" />
    <glyph glyph-name="approxequal" unicode="&#x2248;" horiz-adv-x="653" 
d="M221 397q-30 0 -60.5 -10.5t-62.5 -30.5v55q33 20 64 30.5t59 10.5q21 0 42.5 -4t62.5 -16q40 -12 61.5 -16t41.5 -4q32 0 63.5 10t62.5 31v-55q-31 -21 -62.5 -31t-63.5 -10q-20 0 -41.5 4t-61.5 16q-41 12 -62.5 16t-42.5 4zM221 266q-30 0 -60.5 -10.5t-62.5 -30.5v56
q32 20 62.5 30.5t60.5 10.5q21 0 42.5 -4t62.5 -16q40 -12 61.5 -16t41.5 -4q32 0 63.5 10t62.5 31v-56q-32 -20 -64 -30.5t-62 -10.5q-20 0 -41.5 4t-61.5 16q-41 12 -62.5 16t-42.5 4z" />
    <glyph glyph-name="notequal" unicode="&#x2260;" horiz-adv-x="653" 
d="M555 292v-51h-274l-85 -111h-59l85 111h-124v51h163l70 92h-233v50h272l87 114h59l-87 -114h126v-50h-165l-70 -92h235z" />
    <glyph glyph-name="lessequal" unicode="&#x2264;" horiz-adv-x="530" 
d="M442 205l-349 162v61l349 161v-59l-286 -132l286 -133v-60zM442 100h-349v56h349v-56z" />
    <glyph glyph-name="greaterequal" unicode="&#x2265;" horiz-adv-x="530" 
d="M437 428v-61l-348 -162v60l285 133l-285 132v59zM437 156v-56h-348v56h348z" />
    <glyph glyph-name="commaaccent" unicode="&#xf6c3;" horiz-adv-x="500" 
d="M252 -143h-47v85h97v-91q0 -54 -32.5 -83.5t-93.5 -29.5v46q42 0 59 15t17 53v5z" />
    <glyph glyph-name="idotaccent" horiz-adv-x="282" 
d="M104 485h74v-485h-74v485zM182 593h-82v113h82v-113z" />
    <glyph glyph-name="a.ord" horiz-adv-x="408" 
d="M273 445v9l-55 -9q-58 -9 -81.5 -26t-23.5 -46q0 -25 15.5 -38.5t43.5 -13.5q40 0 70.5 36.5t30.5 87.5zM212 477l61 10v26q0 41 -20.5 60t-64.5 19q-33 0 -53.5 -13.5t-20.5 -35.5q0 -8 2.5 -14.5t8.5 -13.5l-33 -25q-12 9 -18.5 22.5t-6.5 29.5q0 40 35.5 65t94.5 25
q70 0 106.5 -30t36.5 -87v-231h-60l-6 80q-13 -37 -48 -62t-79 -25q-45 0 -73 24.5t-28 65.5q0 43 35 68.5t131 41.5z" />
    <glyph glyph-name="b.ord" horiz-adv-x="461" 
d="M259 277q-41 0 -71.5 18t-45.5 49l-6 -60h-61v524h67v-266q13 41 47 65.5t78 24.5q66 0 109.5 -47.5t43.5 -124.5q0 -79 -47 -131t-114 -52zM244 589q-44 0 -73 -37.5t-29 -90.5v-34q0 -48 30 -79.5t70 -31.5q49 0 78 38.5t29 103.5q0 60 -28.5 95.5t-76.5 35.5z" />
    <glyph glyph-name="c.ord" horiz-adv-x="391" 
d="M301 526q0 31 -21 49.5t-58 18.5q-49 0 -80 -38t-31 -99q0 -66 28.5 -102t79.5 -36q38 0 63.5 20t38.5 61l32 -10q-12 -53 -51 -83t-96 -30q-73 0 -119 47.5t-46 124.5q0 80 50 131.5t127 51.5q58 0 92 -29t34 -76q0 -17 -7.5 -33.5t-18.5 -26.5l-30 24q7 9 10 17.5
t3 17.5z" />
    <glyph glyph-name="d.ord" horiz-adv-x="455" 
d="M217 320q43 0 72.5 37t29.5 90v35q0 48 -30 79.5t-71 31.5q-48 0 -77 -38.5t-29 -104.5q0 -60 28.5 -95t76.5 -35zM201 632q41 0 71.5 -17.5t46.5 -49.5v243h67v-524h-65l-2 83q-14 -41 -47.5 -65.5t-77.5 -24.5q-67 0 -110 47.5t-43 124.5q0 79 47 131t113 52z" />
    <glyph glyph-name="e.ord" horiz-adv-x="399" 
d="M325 399l32 -9q-12 -54 -51 -83.5t-98 -29.5q-73 0 -120 47.5t-47 125.5q0 80 47 131t118 51q72 0 112.5 -46.5t40.5 -128.5h-249q1 -66 30.5 -102t82.5 -36q38 0 62.5 19t39.5 61zM205 596q-38 0 -62.5 -27.5t-30.5 -77.5h176q-2 52 -23 78.5t-60 26.5z" />
    <glyph glyph-name="f.ord" horiz-adv-x="268" 
d="M214 778q-31 0 -47 -22.5t-16 -65.5v-65h101l-4 -38h-97v-303h-67v303h-56v38h56v54q0 61 34.5 98.5t91.5 37.5q40 0 65.5 -20t25.5 -52q0 -11 -4 -21t-11 -16l-32 13q3 6 4.5 10.5t1.5 9.5q0 18 -12.5 28.5t-33.5 10.5z" />
    <glyph glyph-name="g.ord" horiz-adv-x="425" 
d="M198 439q33 0 52.5 21t19.5 59t-19.5 59t-52.5 21t-53 -21t-20 -59t20 -59t53 -21zM391 252q0 -57 -55.5 -91t-139.5 -34q-82 0 -128 24.5t-46 69.5q0 28 25.5 47.5t69.5 23.5q-30 6 -46.5 23t-16.5 42q0 24 16 42.5t43 27.5q-27 16 -41.5 40t-14.5 52q0 49 39.5 81
t101.5 32q23 0 44.5 -5.5t39.5 -15.5q26 29 46.5 41t42.5 12t36 -13t14 -34q0 -11 -4.5 -22.5t-11.5 -19.5l-32 17q3 4 5 9t2 9q0 8 -4.5 12t-12.5 4q-12 0 -24.5 -8.5t-28.5 -27.5q14 -15 21.5 -33t7.5 -38q0 -48 -40 -80.5t-101 -32.5q-16 0 -31 2.5t-30 7.5
q-16 -8 -24.5 -17t-8.5 -19q0 -15 12.5 -23t36.5 -8h112q60 0 93 -25.5t33 -71.5zM332 235q0 25 -18.5 38t-54.5 13h-91q-40 -1 -67 -18t-27 -43q0 -29 33.5 -45.5t89.5 -16.5q61 0 98 19.5t37 52.5z" />
    <glyph glyph-name="h.ord" horiz-adv-x="447" 
d="M75 284v524h67v-264q15 42 47.5 65t75.5 23q53 0 82.5 -32.5t29.5 -89.5v-226h-67v214q0 40 -19.5 63t-54.5 23q-40 0 -67 -35.5t-27 -91.5v-173h-67z" />
    <glyph glyph-name="i.ord" horiz-adv-x="218" 
d="M145 699h-72v86h72v-86zM75 625h67v-341h-67v341z" />
    <glyph glyph-name="j.ord" horiz-adv-x="218" 
d="M145 699h-72v86h72v-86zM142 625v-367q0 -61 -30 -96t-83 -35q-41 0 -64.5 19t-23.5 51q0 9 3.5 18t9.5 16l34 -12q-3 -4 -4 -9t-1 -11q0 -17 11 -27t30 -10q27 0 39 19t12 64v380h67z" />
    <glyph glyph-name="k.ord" horiz-adv-x="427" 
d="M396 284h-79l-125 160l-50 -45v-115h-67v524h67v-358l188 175h61l-153 -139z" />
    <glyph glyph-name="l.ord" horiz-adv-x="218" 
d="M75 808h67v-524h-67v524z" />
    <glyph glyph-name="m.ord" horiz-adv-x="660" 
d="M260 632q44 0 70.5 -23t33.5 -66q14 42 46 65.5t74 23.5q51 0 79 -32t28 -90v-226h-67v214q0 41 -17 63.5t-50 22.5q-39 0 -64.5 -36t-25.5 -92v-172h-67v214q0 42 -17.5 64t-50.5 22q-38 0 -64 -36t-26 -92v-172h-67v341h65l2 -81q15 42 45.5 65t72.5 23z" />
    <glyph glyph-name="n.ord" horiz-adv-x="447" 
d="M75 284v341h65l2 -81q15 42 47.5 65t75.5 23q53 0 82.5 -32.5t29.5 -89.5v-226h-67v214q0 40 -19.5 63t-54.5 23q-40 0 -67 -35.5t-27 -91.5v-173h-67z" />
    <glyph glyph-name="o.ord" horiz-adv-x="427" 
d="M386 454q0 -76 -49.5 -126.5t-123.5 -50.5t-123 50.5t-49 126.5t49 127t123 51t123.5 -51t49.5 -127zM314 454q0 67 -26.5 104t-74.5 37t-74.5 -37t-26.5 -104q0 -66 26.5 -103t74.5 -37t74.5 36.5t26.5 103.5z" />
    <glyph glyph-name="p.ord" horiz-adv-x="461" 
d="M244 589q-44 0 -73 -37.5t-29 -90.5v-34q0 -48 30 -79.5t70 -31.5q49 0 78 38.5t29 103.5q0 60 -28.5 95.5t-76.5 35.5zM259 277q-40 0 -70.5 17.5t-46.5 49.5v-210h-67v491h65l2 -83q14 41 48 65.5t77 24.5q66 0 109.5 -47.5t43.5 -124.5q0 -79 -47 -131t-114 -52z" />
    <glyph glyph-name="q.ord" horiz-adv-x="461" 
d="M202 632q41 0 71 -17t46 -50l4 60h63v-491h-67v233q-13 -42 -46 -66t-78 -24q-67 0 -110.5 47.5t-43.5 124.5q0 79 47 131t114 52zM218 320q43 0 72 37.5t29 90.5v33q0 49 -30 80.5t-70 31.5q-49 0 -78 -38.5t-29 -104.5q0 -59 29 -94.5t77 -35.5z" />
    <glyph glyph-name="r.ord" horiz-adv-x="366" 
d="M140 625l2 -99q16 48 47 77.5t68 29.5q35 0 56.5 -20.5t21.5 -54.5q0 -16 -6 -31t-16 -25l-33 24q5 7 7.5 14t2.5 15q0 17 -10 26.5t-28 9.5q-40 0 -75 -52t-35 -110v-145h-67v341h65z" />
    <glyph glyph-name="s.ord" horiz-adv-x="364" 
d="M181 593q-32 0 -51 -12.5t-19 -34.5q0 -18 12.5 -28.5t46.5 -19.5l57 -14q51 -13 73 -35t22 -61q0 -49 -38.5 -80t-98.5 -31q-52 0 -92 21.5t-59 60.5l30 28q22 -35 53 -53t69 -18q35 0 56 14t21 39q0 21 -13 32.5t-51 20.5l-50 12q-50 12 -73 34.5t-23 59.5q0 46 36 75
t92 29q44 0 79 -18t57 -52l-27 -34q-17 30 -46 47.5t-63 17.5z" />
    <glyph glyph-name="t.ord" horiz-adv-x="316" 
d="M80 587h-55v38h55l2 90l65 25v-115h121l-4 -38h-117v-207q0 -29 12.5 -44.5t36.5 -15.5q25 0 38 18t17 59l35 -4q-2 -55 -30.5 -85.5t-77.5 -30.5q-46 0 -72.5 26t-26.5 72z" />
    <glyph glyph-name="u.ord" horiz-adv-x="442" 
d="M366 625v-341h-64l-3 83q-16 -44 -46.5 -67t-73.5 -23q-50 0 -79.5 33.5t-29.5 88.5v226h68v-214q0 -42 17 -64t50 -22q41 0 67.5 36t26.5 92v172h67z" />
    <glyph glyph-name="v.ord" horiz-adv-x="385" 
d="M98 625l107 -251l105 251h50l-151 -344h-32l-152 344h73z" />
    <glyph glyph-name="w.ord" horiz-adv-x="554" 
d="M387 281h-27l-85 224l-87 -224h-26l-137 344h71l94 -244l65 178l-25 66h70l85 -244l96 244h48z" />
    <glyph glyph-name="x.ord" horiz-adv-x="404" 
d="M372 284h-77l-103 144l-108 -144h-52l136 177l-117 164h77l85 -119l89 119h51l-116 -152z" />
    <glyph glyph-name="y.ord" horiz-adv-x="385" 
d="M162 270l13 30l-150 325h73l111 -248l101 248h50l-162 -375q-27 -65 -55.5 -94t-65.5 -29q-32 0 -52.5 18t-20.5 47q0 10 2 18.5t6 15.5l42 -10q-3 -8 -3.5 -12t-0.5 -9q0 -13 8 -21t21 -8q22 0 38.5 19.5t44.5 84.5z" />
    <glyph glyph-name="z.ord" horiz-adv-x="387" 
d="M44 284v23l208 278h-196v40h283v-22l-207 -279h211v-40h-299z" />
    <glyph glyph-name="A.sc" horiz-adv-x="672" 
d="M434 234l-111 257l-110 -257h221zM617 0h-81l-82 188h-261l-80 -188h-58l259 599h44z" />
    <glyph glyph-name="B.sc" horiz-adv-x="638" 
d="M565 160q0 -77 -58 -118.5t-164 -41.5h-227v594h206q104 0 161 -39t57 -111q0 -57 -43.5 -95t-110.5 -42v-2q83 -3 131 -41t48 -104zM312 546h-121v-216h119q76 0 113.5 27.5t37.5 81.5q0 53 -38 80t-111 27zM486 164q0 58 -42.5 87.5t-125.5 29.5h-127v-233h140
q76 0 115.5 29.5t39.5 86.5z" />
    <glyph glyph-name="C.sc" horiz-adv-x="668" 
d="M367 -10q-130 0 -217.5 86t-87.5 217q0 134 88 222.5t219 88.5q81 0 142 -34.5t101 -103.5l-41 -40q-34 64 -82.5 94.5t-116.5 30.5q-100 0 -163 -70t-63 -185q0 -113 64 -182.5t161 -69.5q71 0 119.5 30.5t81.5 95.5l41 -28q-40 -76 -101.5 -114t-144.5 -38z" />
    <glyph glyph-name="D.sc" horiz-adv-x="697" 
d="M635 298q0 -138 -89.5 -218t-245.5 -80h-184v594h181q157 0 247.5 -79.5t90.5 -216.5zM551 298q0 118 -68.5 183.5t-192.5 65.5h-99v-500h102q124 0 191 65.5t67 185.5z" />
    <glyph glyph-name="E.sc" horiz-adv-x="613" 
d="M540 0h-424v594h413v-50h-338v-214h254v-49h-254v-231h349v-50z" />
    <glyph glyph-name="F.sc" horiz-adv-x="575" 
d="M191 0h-75v594h398v-50h-323v-225h254v-50h-254v-269z" />
    <glyph glyph-name="G.sc" horiz-adv-x="717" 
d="M620 274v-274h-37l-26 99q-26 -50 -76.5 -79.5t-113.5 -29.5q-133 0 -219 85t-86 218t90 222t222 89q83 0 144 -34.5t101 -103.5l-41 -40q-35 65 -83.5 95t-117.5 30q-102 0 -166.5 -70.5t-64.5 -184.5q0 -115 64 -184.5t168 -69.5q70 0 119 47.5t49 116.5v68h74z" />
    <glyph glyph-name="H.sc" horiz-adv-x="752" 
d="M191 0h-75v594h75v-265h370v265h75v-594h-75v281h-370v-281z" />
    <glyph glyph-name="I.sc" horiz-adv-x="307" 
d="M116 594h75v-594h-75v594z" />
    <glyph glyph-name="J.sc" horiz-adv-x="552" 
d="M246 42q61 0 94 39t33 112v401h75v-405q0 -89 -56.5 -144t-145.5 -55q-77 0 -129 46t-52 110q0 36 14 63t45 49l37 -32q-21 -20 -29 -37.5t-8 -38.5q0 -46 34.5 -77t87.5 -31z" />
    <glyph glyph-name="K.sc" horiz-adv-x="675" 
d="M616 0h-96l-249 295l-80 -74v-221h-75v594h75v-308l329 308h78l-272 -249z" />
    <glyph glyph-name="L.sc" horiz-adv-x="584" 
d="M515 0h-399v594h75v-544h324v-50z" />
    <glyph glyph-name="M.sc" horiz-adv-x="839" 
d="M213 594l210 -481l205 481h95v-594h-75v512l-224 -516h-26l-226 516v-512h-56v594h97z" />
    <glyph glyph-name="N.sc" horiz-adv-x="730" 
d="M186 594l372 -446v446h56v-597h-30l-412 499v-496h-56v594h70z" />
    <glyph glyph-name="O.sc" horiz-adv-x="726" 
d="M363 -10q-129 0 -215 88t-86 219q0 130 86.5 218.5t214.5 88.5q129 0 215 -88t86 -219t-86 -219t-215 -88zM363 558q-98 0 -157 -71t-59 -190t58.5 -190t157.5 -71t157.5 70.5t58.5 190.5q0 119 -58.5 190t-157.5 71z" />
    <glyph glyph-name="P.sc" horiz-adv-x="598" 
d="M552 417q0 -85 -61 -130.5t-172 -45.5h-128v-241h-75v594h203q112 0 172.5 -45.5t60.5 -131.5zM191 546v-256h120q83 0 122.5 31t39.5 96q0 66 -39.5 97.5t-122.5 31.5h-120z" />
    <glyph glyph-name="Q.sc" horiz-adv-x="726" 
d="M571 -121q-52 0 -92.5 28.5t-68.5 85.5q-11 -1 -23 -2t-24 -1q-129 0 -215 88t-86 219q0 130 86.5 218.5t214.5 88.5q129 0 215 -88t86 -219q0 -102 -54.5 -181t-144.5 -109q19 -42 43.5 -59.5t61.5 -17.5q26 0 44.5 18t18.5 45l46 -14q-2 -43 -33.5 -71.5t-74.5 -28.5z
M363 558q-98 0 -157 -71t-59 -190t58.5 -190t157.5 -71t157.5 70.5t58.5 190.5q0 119 -58.5 190t-157.5 71z" />
    <glyph glyph-name="R.sc" horiz-adv-x="672" 
d="M330 546h-139v-236h139q77 0 117 31t40 92q0 56 -40 84.5t-117 28.5zM316 263h-125v-263h-75v594h226q110 0 168.5 -41t58.5 -119q0 -68 -47 -107t-124 -41v-3q51 -6 80 -29t47 -77l35 -93q7 -22 19.5 -43t29.5 -41h-84q-10 13 -20.5 34.5t-18.5 42.5l-37 96
q-20 55 -47.5 72.5t-85.5 17.5z" />
    <glyph glyph-name="S.sc" horiz-adv-x="585" 
d="M291 43q69 0 109.5 29.5t40.5 80.5q0 40 -26.5 65t-89.5 41l-84 22q-88 22 -125 58.5t-37 98.5q0 72 59 119t150 47q70 0 128.5 -30t88.5 -80l-41 -41q-27 48 -73 74t-103 26q-62 0 -99 -27t-37 -72q0 -39 25 -62t91 -39l81 -21q85 -22 124.5 -60t39.5 -98
q0 -81 -63 -132.5t-159 -51.5q-80 0 -147 36t-97 95l42 36q34 -55 87 -84.5t115 -29.5z" />
    <glyph glyph-name="T.sc" horiz-adv-x="676" 
d="M376 0h-75v546h-236v48h547v-48h-236v-546z" />
    <glyph glyph-name="U.sc" horiz-adv-x="700" 
d="M540 235v359h56v-369q0 -108 -65.5 -171.5t-173.5 -63.5q-121 0 -186.5 61.5t-65.5 174.5v368h75v-358q0 -90 48 -140.5t133 -50.5q88 0 133.5 48.5t45.5 141.5z" />
    <glyph glyph-name="V.sc" horiz-adv-x="672" 
d="M135 594l212 -489l211 489h59l-263 -599h-38l-261 599h80z" />
    <glyph glyph-name="W.sc" horiz-adv-x="900" 
d="M632 -5h-38l-142 428l-140 -428h-38l-219 599h76l173 -473l125 373l-33 100h73l153 -468l166 468h57z" />
    <glyph glyph-name="X.sc" horiz-adv-x="668" 
d="M317 277l-207 -277h-64l240 317l-218 277h88l181 -230l170 230h62l-202 -269l255 -325h-88z" />
    <glyph glyph-name="Y.sc" horiz-adv-x="635" 
d="M140 594l191 -290l190 290h62l-228 -346v-248h-74v248l-229 346h88z" />
    <glyph glyph-name="Z.sc" horiz-adv-x="647" 
d="M158 50h409v-50h-506v38l410 506h-384v50h481v-38z" />
    <glyph glyph-name="Aacute.sc" horiz-adv-x="672" 
d="M434 234l-111 257l-110 -257h221zM617 0h-81l-82 188h-261l-80 -188h-58l259 599h44zM310 661l67 188h88l-114 -188h-41z" />
    <glyph glyph-name="Abreve.sc" horiz-adv-x="672" 
d="M434 234l-111 257l-110 -257h221zM617 0h-81l-82 188h-261l-80 -188h-58l259 599h44zM440 842h36q0 -77 -39.5 -125.5t-100.5 -48.5t-100.5 48.5t-39.5 125.5h36q4 -50 33.5 -84t70.5 -34t70.5 34t33.5 84z" />
    <glyph glyph-name="Acircumflex.sc" horiz-adv-x="672" 
d="M434 234l-111 257l-110 -257h221zM617 0h-81l-82 188h-261l-80 -188h-58l259 599h44zM318 852h34l136 -200h-43l-109 129l-109 -129h-43z" />
    <glyph glyph-name="Adieresis.sc" horiz-adv-x="672" 
d="M434 234l-111 257l-110 -257h221zM617 0h-81l-82 188h-261l-80 -188h-58l259 599h44zM292 693h-82v103h82v-103zM462 693h-82v103h82v-103z" />
    <glyph glyph-name="Agrave.sc" horiz-adv-x="672" 
d="M434 234l-111 257l-110 -257h221zM617 0h-81l-82 188h-261l-80 -188h-58l259 599h44zM364 661h-41l-114 188h88z" />
    <glyph glyph-name="Amacron.sc" horiz-adv-x="672" 
d="M434 234l-111 257l-110 -257h221zM617 0h-81l-82 188h-261l-80 -188h-58l259 599h44zM472 742v-50h-272v50h272z" />
    <glyph glyph-name="Aogonek.sc" horiz-adv-x="672" 
d="M434 234l-111 257l-110 -257h221zM583 -113l38 -15q-17 -47 -51 -72t-80 -25q-39 0 -68.5 25.5t-29.5 64.5q0 41 29.5 76.5t105.5 80.5l-73 166h-261l-80 -188h-58l259 599h44l259 -599h-51q-74 -44 -96.5 -69.5t-22.5 -53.5q0 -26 16 -41t41 -15q28 0 46 15t33 51z" />
    <glyph glyph-name="Aring.sc" horiz-adv-x="672" 
d="M434 234l-111 257l-110 -257h221zM617 0h-81l-82 188h-261l-80 -188h-58l259 599h44zM336 657q-44 0 -75 31t-31 74q0 42 31.5 72.5t74.5 30.5t74.5 -30.5t31.5 -72.5q0 -43 -31 -74t-75 -31zM336 698q29 0 46 17.5t17 46.5q0 28 -17.5 46t-45.5 18t-45.5 -18t-17.5 -46
q0 -29 17 -46.5t46 -17.5z" />
    <glyph glyph-name="Atilde.sc" horiz-adv-x="672" 
d="M434 234l-111 257l-110 -257h221zM617 0h-81l-82 188h-261l-80 -188h-58l259 599h44zM407 687q-14 0 -31 7.5t-49 32.5q-28 21 -41 27.5t-24 6.5q-21 0 -34.5 -19t-21.5 -58h-44q11 61 39 96.5t64 35.5q14 0 31 -7.5t49 -32.5q28 -21 41 -27.5t24 -6.5q21 0 34.5 19
t21.5 58h44q-11 -61 -39 -96.5t-64 -35.5z" />
    <glyph glyph-name="AE.sc" horiz-adv-x="964" 
d="M467 238v301l-196 -301h196zM892 0h-425v192h-226l-125 -192h-61l387 594h439v-50h-339v-214h254v-49h-254v-231h350v-50z" />
    <glyph glyph-name="AEacute.sc" horiz-adv-x="964" 
d="M467 238v301l-196 -301h196zM892 0h-425v192h-226l-125 -192h-61l387 594h439v-50h-339v-214h254v-49h-254v-231h350v-50zM620 661l67 188h88l-114 -188h-41z" />
    <glyph glyph-name="Cacute.sc" horiz-adv-x="668" 
d="M367 -10q-130 0 -217.5 86t-87.5 217q0 134 88 222.5t219 88.5q81 0 142 -34.5t101 -103.5l-41 -40q-34 64 -82.5 94.5t-116.5 30.5q-100 0 -163 -70t-63 -185q0 -113 64 -182.5t161 -69.5q71 0 119.5 30.5t81.5 95.5l41 -28q-40 -76 -101.5 -114t-144.5 -38zM351 661
l67 188h88l-114 -188h-41z" />
    <glyph glyph-name="Ccaron.sc" horiz-adv-x="668" 
d="M367 -10q-130 0 -217.5 86t-87.5 217q0 134 88 222.5t219 88.5q81 0 142 -34.5t101 -103.5l-41 -40q-34 64 -82.5 94.5t-116.5 30.5q-100 0 -163 -70t-63 -185q0 -113 64 -182.5t161 -69.5q71 0 119.5 30.5t81.5 95.5l41 -28q-40 -76 -101.5 -114t-144.5 -38zM529 852
l-136 -200h-34l-134 200h43l109 -129l109 129h43z" />
    <glyph glyph-name="Ccedilla.sc" horiz-adv-x="668" 
d="M456 -137q0 -38 -32.5 -63t-81.5 -25q-33 0 -61 15.5t-42 41.5l29 28q14 -20 33 -30.5t41 -10.5q25 0 40.5 11.5t15.5 32.5q0 22 -25 34t-76 14l33 81q-117 12 -192.5 96t-75.5 205q0 134 88 222.5t219 88.5q81 0 142 -34.5t101 -103.5l-41 -40q-34 64 -82.5 94.5
t-116.5 30.5q-100 0 -163 -70t-63 -185q0 -113 64 -182.5t161 -69.5q71 0 119.5 30.5t81.5 95.5l41 -28q-40 -76 -101.5 -114t-142.5 -38l-19 -46q52 -5 79 -25.5t27 -55.5z" />
    <glyph glyph-name="Ccircumflex.sc" horiz-adv-x="668" 
d="M367 -10q-130 0 -217.5 86t-87.5 217q0 134 88 222.5t219 88.5q81 0 142 -34.5t101 -103.5l-41 -40q-34 64 -82.5 94.5t-116.5 30.5q-100 0 -163 -70t-63 -185q0 -113 64 -182.5t161 -69.5q71 0 119.5 30.5t81.5 95.5l41 -28q-40 -76 -101.5 -114t-144.5 -38zM359 852h34
l136 -200h-43l-109 129l-109 -129h-43z" />
    <glyph glyph-name="Cdotaccent.sc" horiz-adv-x="668" 
d="M367 -10q-130 0 -217.5 86t-87.5 217q0 134 88 222.5t219 88.5q81 0 142 -34.5t101 -103.5l-41 -40q-34 64 -82.5 94.5t-116.5 30.5q-100 0 -163 -70t-63 -185q0 -113 64 -182.5t161 -69.5q71 0 119.5 30.5t81.5 95.5l41 -28q-40 -76 -101.5 -114t-144.5 -38zM418 693
h-82v113h82v-113z" />
    <glyph glyph-name="Dcaron.sc" horiz-adv-x="697" 
d="M635 298q0 -138 -89.5 -218t-245.5 -80h-184v594h181q157 0 247.5 -79.5t90.5 -216.5zM551 298q0 118 -68.5 183.5t-192.5 65.5h-99v-500h102q124 0 191 65.5t67 185.5zM486 852l-136 -200h-34l-134 200h43l109 -129l109 129h43z" />
    <glyph glyph-name="Dcroat.sc" horiz-adv-x="714" 
d="M653 298q0 -138 -89.5 -218t-245.5 -80h-185v281h-79v48h79v265h181q158 0 248.5 -79t90.5 -217zM208 281v-234h103q124 0 191 65.5t67 185.5q0 118 -68.5 183.5t-192.5 65.5h-100v-218h138v-48h-138z" />
    <glyph glyph-name="Eacute.sc" horiz-adv-x="613" 
d="M540 0h-424v594h413v-50h-338v-214h254v-49h-254v-231h349v-50zM302 661l67 188h88l-114 -188h-41z" />
    <glyph glyph-name="Ebreve.sc" horiz-adv-x="613" 
d="M540 0h-424v594h413v-50h-338v-214h254v-49h-254v-231h349v-50zM432 842h36q0 -77 -39.5 -125.5t-100.5 -48.5t-100.5 48.5t-39.5 125.5h36q4 -50 33.5 -84t70.5 -34t70.5 34t33.5 84z" />
    <glyph glyph-name="Ecaron.sc" horiz-adv-x="613" 
d="M540 0h-424v594h413v-50h-338v-214h254v-49h-254v-231h349v-50zM480 852l-136 -200h-34l-134 200h43l109 -129l109 129h43z" />
    <glyph glyph-name="Ecircumflex.sc" horiz-adv-x="613" 
d="M540 0h-424v594h413v-50h-338v-214h254v-49h-254v-231h349v-50zM310 852h34l136 -200h-43l-109 129l-109 -129h-43z" />
    <glyph glyph-name="Edieresis.sc" horiz-adv-x="613" 
d="M540 0h-424v594h413v-50h-338v-214h254v-49h-254v-231h349v-50zM284 693h-82v103h82v-103zM454 693h-82v103h82v-103z" />
    <glyph glyph-name="Edotaccent.sc" horiz-adv-x="613" 
d="M540 0h-424v594h413v-50h-338v-214h254v-49h-254v-231h349v-50zM369 693h-82v113h82v-113z" />
    <glyph glyph-name="Egrave.sc" horiz-adv-x="613" 
d="M540 0h-424v594h413v-50h-338v-214h254v-49h-254v-231h349v-50zM356 661h-41l-114 188h88z" />
    <glyph glyph-name="Emacron.sc" horiz-adv-x="613" 
d="M540 0h-424v594h413v-50h-338v-214h254v-49h-254v-231h349v-50zM464 742v-50h-272v50h272z" />
    <glyph glyph-name="Eogonek.sc" horiz-adv-x="613" 
d="M475 -113l38 -15q-17 -47 -51 -72t-80 -25q-39 0 -68.5 25.5t-29.5 64.5q0 36 23.5 68.5t75.5 66.5h-267v594h413v-50h-338v-214h254v-49h-254v-231h349v-50h-82q-74 -44 -96.5 -69.5t-22.5 -53.5q0 -26 16 -41t41 -15q28 0 46 15t33 51z" />
    <glyph glyph-name="Eth.sc" horiz-adv-x="714" 
d="M653 298q0 -138 -89.5 -218t-245.5 -80h-185v281h-79v48h79v265h181q158 0 248.5 -79t90.5 -217zM208 281v-234h103q124 0 191 65.5t67 185.5q0 118 -68.5 183.5t-192.5 65.5h-100v-218h138v-48h-138z" />
    <glyph glyph-name="Gbreve.sc" horiz-adv-x="717" 
d="M620 274v-274h-37l-26 99q-26 -50 -76.5 -79.5t-113.5 -29.5q-133 0 -219 85t-86 218t90 222t222 89q83 0 144 -34.5t101 -103.5l-41 -40q-35 65 -83.5 95t-117.5 30q-102 0 -166.5 -70.5t-64.5 -184.5q0 -115 64 -184.5t168 -69.5q70 0 119 47.5t49 116.5v68h74z
M482 842h36q0 -77 -39.5 -125.5t-100.5 -48.5t-100.5 48.5t-39.5 125.5h36q4 -50 33.5 -84t70.5 -34t70.5 34t33.5 84z" />
    <glyph glyph-name="Gcircumflex.sc" horiz-adv-x="717" 
d="M620 274v-274h-37l-26 99q-26 -50 -76.5 -79.5t-113.5 -29.5q-133 0 -219 85t-86 218t90 222t222 89q83 0 144 -34.5t101 -103.5l-41 -40q-35 65 -83.5 95t-117.5 30q-102 0 -166.5 -70.5t-64.5 -184.5q0 -115 64 -184.5t168 -69.5q70 0 119 47.5t49 116.5v68h74z
M360 852h34l136 -200h-43l-109 129l-109 -129h-43z" />
    <glyph glyph-name="Gcommaaccent.sc" horiz-adv-x="717" 
d="M620 274v-274h-37l-26 99q-26 -50 -76.5 -79.5t-113.5 -29.5q-133 0 -219 85t-86 218t90 222t222 89q83 0 144 -34.5t101 -103.5l-41 -40q-35 65 -83.5 95t-117.5 30q-102 0 -166.5 -70.5t-64.5 -184.5q0 -115 64 -184.5t168 -69.5q70 0 119 47.5t49 116.5v68h74z
M376 -143h-47v85h97v-91q0 -54 -32.5 -83.5t-93.5 -29.5v46q42 0 59 15t17 53v5z" />
    <glyph glyph-name="Gdotaccent.sc" horiz-adv-x="717" 
d="M620 274v-274h-37l-26 99q-26 -50 -76.5 -79.5t-113.5 -29.5q-133 0 -219 85t-86 218t90 222t222 89q83 0 144 -34.5t101 -103.5l-41 -40q-35 65 -83.5 95t-117.5 30q-102 0 -166.5 -70.5t-64.5 -184.5q0 -115 64 -184.5t168 -69.5q70 0 119 47.5t49 116.5v68h74z
M419 693h-82v113h82v-113z" />
    <glyph glyph-name="Hbar.sc" horiz-adv-x="785" 
d="M208 394v-109h371v109h-371zM579 238h-371v-238h-75v394h-79v48h79v152h75v-152h371v152h74v-152h79v-48h-79v-394h-74v238z" />
    <glyph glyph-name="Hcircumflex.sc" horiz-adv-x="752" 
d="M191 0h-75v594h75v-265h370v265h75v-594h-75v281h-370v-281zM358 852h34l136 -200h-43l-109 129l-109 -129h-43z" />
    <glyph glyph-name="Iacute.sc" horiz-adv-x="307" 
d="M116 594h75v-594h-75v594zM128 661l67 188h88l-114 -188h-41z" />
    <glyph glyph-name="Ibreve.sc" horiz-adv-x="307" 
d="M116 594h75v-594h-75v594zM258 842h36q0 -77 -39.5 -125.5t-100.5 -48.5t-100.5 48.5t-39.5 125.5h36q4 -50 33.5 -84t70.5 -34t70.5 34t33.5 84z" />
    <glyph glyph-name="Icircumflex.sc" horiz-adv-x="307" 
d="M116 594h75v-594h-75v594zM136 852h34l136 -200h-43l-109 129l-109 -129h-43z" />
    <glyph glyph-name="Idieresis.sc" horiz-adv-x="307" 
d="M116 594h75v-594h-75v594zM110 693h-82v103h82v-103zM280 693h-82v103h82v-103z" />
    <glyph glyph-name="Idotaccent.sc" horiz-adv-x="307" 
d="M116 594h75v-594h-75v594zM195 693h-82v113h82v-113z" />
    <glyph glyph-name="Igrave.sc" horiz-adv-x="307" 
d="M116 594h75v-594h-75v594zM182 661h-41l-114 188h88z" />
    <glyph glyph-name="Imacron.sc" horiz-adv-x="307" 
d="M116 594h75v-594h-75v594zM290 742v-50h-272v50h272z" />
    <glyph glyph-name="Iogonek.sc" horiz-adv-x="307" 
d="M208 -113l38 -15q-17 -47 -51 -72t-80 -25q-39 0 -68.5 25.5t-29.5 64.5q0 37 23.5 70.5t75.5 67.5v591h75v-594q-74 -44 -96.5 -69.5t-22.5 -53.5q0 -26 16 -41t41 -15q28 0 46 15t33 51z" />
    <glyph glyph-name="Itilde.sc" horiz-adv-x="307" 
d="M116 594h75v-594h-75v594zM225 687q-14 0 -31 7.5t-49 32.5q-28 21 -41 27.5t-24 6.5q-21 0 -34.5 -19t-21.5 -58h-44q11 61 39 96.5t64 35.5q14 0 31 -7.5t49 -32.5q28 -21 41 -27.5t24 -6.5q21 0 34.5 19t21.5 58h44q-11 -61 -39 -96.5t-64 -35.5z" />
    <glyph glyph-name="Jcircumflex.sc" horiz-adv-x="552" 
d="M246 42q61 0 94 39t33 112v401h75v-405q0 -89 -56.5 -144t-145.5 -55q-77 0 -129 46t-52 110q0 36 14 63t45 49l37 -32q-21 -20 -29 -37.5t-8 -38.5q0 -46 34.5 -77t87.5 -31zM393 852h34l136 -200h-43l-109 129l-109 -129h-43z" />
    <glyph glyph-name="Kcommaaccent.sc" horiz-adv-x="675" 
d="M616 0h-96l-249 295l-80 -74v-221h-75v594h75v-308l329 308h78l-272 -249zM324 -143h-47v85h97v-91q0 -54 -32.5 -83.5t-93.5 -29.5v46q42 0 59 15t17 53v5z" />
    <glyph glyph-name="Lacute.sc" horiz-adv-x="584" 
d="M515 0h-399v594h75v-544h324v-50zM131 661l67 188h88l-114 -188h-41z" />
    <glyph glyph-name="Lcaron.sc" horiz-adv-x="584" 
d="M515 0h-399v594h75v-544h324v-50zM388 659h79l-68 -205h-36z" />
    <glyph glyph-name="Lcommaaccent.sc" horiz-adv-x="584" 
d="M515 0h-399v594h75v-544h324v-50zM313 -143h-47v85h97v-91q0 -54 -32.5 -83.5t-93.5 -29.5v46q42 0 59 15t17 53v5z" />
    <glyph glyph-name="Ldot.sc" horiz-adv-x="584" 
d="M515 0h-399v594h75v-544h324v-50zM507 271h-82v113h82v-113z" />
    <glyph glyph-name="Lslash.sc" horiz-adv-x="596" 
d="M527 50v-50h-399v229l-74 -32v49l74 31v317h75v-284l164 68v-49l-164 -68v-211h324z" />
    <glyph glyph-name="Nacute.sc" horiz-adv-x="730" 
d="M186 594l372 -446v446h56v-597h-30l-412 499v-496h-56v594h70zM339 661l67 188h88l-114 -188h-41z" />
    <glyph glyph-name="Ncaron.sc" horiz-adv-x="730" 
d="M186 594l372 -446v446h56v-597h-30l-412 499v-496h-56v594h70zM517 852l-136 -200h-34l-134 200h43l109 -129l109 129h43z" />
    <glyph glyph-name="Ncommaaccent.sc" horiz-adv-x="730" 
d="M186 594l372 -446v446h56v-597h-30l-412 499v-496h-56v594h70zM363 -143h-47v85h97v-91q0 -54 -32.5 -83.5t-93.5 -29.5v46q42 0 59 15t17 53v5z" />
    <glyph glyph-name="Ntilde.sc" horiz-adv-x="730" 
d="M186 594l372 -446v446h56v-597h-30l-412 499v-496h-56v594h70zM436 687q-14 0 -31 7.5t-49 32.5q-28 21 -41 27.5t-24 6.5q-21 0 -34.5 -19t-21.5 -58h-44q11 61 39 96.5t64 35.5q14 0 31 -7.5t49 -32.5q28 -21 41 -27.5t24 -6.5q21 0 34.5 19t21.5 58h44
q-11 -61 -39 -96.5t-64 -35.5z" />
    <glyph glyph-name="Eng.sc" horiz-adv-x="731" 
d="M482 -191q-49 0 -76.5 22.5t-27.5 61.5q0 11 3.5 22t9.5 18l41 -13q-3 -5 -4.5 -11t-1.5 -13q0 -21 14 -33t39 -12q41 0 60.5 29.5t19.5 90.5v59l-386 466v-496h-56v594h70l372 -446v446h56v-625q0 -73 -35.5 -116.5t-97.5 -43.5z" />
    <glyph glyph-name="Oacute.sc" horiz-adv-x="726" 
d="M363 -10q-129 0 -215 88t-86 219q0 130 86.5 218.5t214.5 88.5q129 0 215 -88t86 -219t-86 -219t-215 -88zM363 558q-98 0 -157 -71t-59 -190t58.5 -190t157.5 -71t157.5 70.5t58.5 190.5q0 119 -58.5 190t-157.5 71zM337 661l67 188h88l-114 -188h-41z" />
    <glyph glyph-name="Obreve.sc" horiz-adv-x="726" 
d="M363 -10q-129 0 -215 88t-86 219q0 130 86.5 218.5t214.5 88.5q129 0 215 -88t86 -219t-86 -219t-215 -88zM363 558q-98 0 -157 -71t-59 -190t58.5 -190t157.5 -71t157.5 70.5t58.5 190.5q0 119 -58.5 190t-157.5 71zM467 842h36q0 -77 -39.5 -125.5t-100.5 -48.5
t-100.5 48.5t-39.5 125.5h36q4 -50 33.5 -84t70.5 -34t70.5 34t33.5 84z" />
    <glyph glyph-name="Ocircumflex.sc" horiz-adv-x="726" 
d="M363 -10q-129 0 -215 88t-86 219q0 130 86.5 218.5t214.5 88.5q129 0 215 -88t86 -219t-86 -219t-215 -88zM363 558q-98 0 -157 -71t-59 -190t58.5 -190t157.5 -71t157.5 70.5t58.5 190.5q0 119 -58.5 190t-157.5 71zM345 852h34l136 -200h-43l-109 129l-109 -129h-43z
" />
    <glyph glyph-name="Odieresis.sc" horiz-adv-x="726" 
d="M363 -10q-129 0 -215 88t-86 219q0 130 86.5 218.5t214.5 88.5q129 0 215 -88t86 -219t-86 -219t-215 -88zM363 558q-98 0 -157 -71t-59 -190t58.5 -190t157.5 -71t157.5 70.5t58.5 190.5q0 119 -58.5 190t-157.5 71zM319 693h-82v103h82v-103zM489 693h-82v103h82v-103z
" />
    <glyph glyph-name="Ograve.sc" horiz-adv-x="726" 
d="M363 -10q-129 0 -215 88t-86 219q0 130 86.5 218.5t214.5 88.5q129 0 215 -88t86 -219t-86 -219t-215 -88zM363 558q-98 0 -157 -71t-59 -190t58.5 -190t157.5 -71t157.5 70.5t58.5 190.5q0 119 -58.5 190t-157.5 71zM391 661h-41l-114 188h88z" />
    <glyph glyph-name="Ohungarumlaut.sc" horiz-adv-x="726" 
d="M363 -10q-129 0 -215 88t-86 219q0 130 86.5 218.5t214.5 88.5q129 0 215 -88t86 -219t-86 -219t-215 -88zM363 558q-98 0 -157 -71t-59 -190t58.5 -190t157.5 -71t157.5 70.5t58.5 190.5q0 119 -58.5 190t-157.5 71zM258 661l74 188h81l-113 -188h-42zM418 661l74 188
h81l-113 -188h-42z" />
    <glyph glyph-name="Omacron.sc" horiz-adv-x="726" 
d="M363 -10q-129 0 -215 88t-86 219q0 130 86.5 218.5t214.5 88.5q129 0 215 -88t86 -219t-86 -219t-215 -88zM363 558q-98 0 -157 -71t-59 -190t58.5 -190t157.5 -71t157.5 70.5t58.5 190.5q0 119 -58.5 190t-157.5 71zM499 742v-50h-272v50h272z" />
    <glyph glyph-name="Oslash.sc" horiz-adv-x="726" 
d="M363 556q-98 0 -157 -70.5t-59 -188.5q0 -48 10.5 -89t30.5 -75l330 356q-29 33 -68.5 50t-86.5 17zM363 38q99 0 158 70.5t59 188.5q0 45 -9 84t-26 70l-328 -355q28 -28 65.5 -43t80.5 -15zM664 297q0 -130 -86 -217.5t-215 -87.5q-51 0 -98.5 15.5t-86.5 45.5l-80 -86
l-35 31l80 87q-39 41 -60 96t-21 116q0 130 86.5 217.5t214.5 87.5q55 0 105 -18t90 -51l71 76l34 -30l-72 -78q36 -42 54.5 -94t18.5 -110z" />
    <glyph glyph-name="Oslashacute.sc" horiz-adv-x="726" 
d="M363 556q-98 0 -157 -70.5t-59 -188.5q0 -48 10.5 -89t30.5 -75l330 356q-29 33 -68.5 50t-86.5 17zM363 38q99 0 158 70.5t59 188.5q0 45 -9 84t-26 70l-328 -355q28 -28 65.5 -43t80.5 -15zM664 297q0 -130 -86 -217.5t-215 -87.5q-51 0 -98.5 15.5t-86.5 45.5l-80 -86
l-35 31l80 87q-39 41 -60 96t-21 116q0 130 86.5 217.5t214.5 87.5q55 0 105 -18t90 -51l71 76l34 -30l-72 -78q36 -42 54.5 -94t18.5 -110zM337 661l67 188h88l-114 -188h-41z" />
    <glyph glyph-name="Otilde.sc" horiz-adv-x="726" 
d="M363 -10q-129 0 -215 88t-86 219q0 130 86.5 218.5t214.5 88.5q129 0 215 -88t86 -219t-86 -219t-215 -88zM363 558q-98 0 -157 -71t-59 -190t58.5 -190t157.5 -71t157.5 70.5t58.5 190.5q0 119 -58.5 190t-157.5 71zM434 687q-14 0 -31 7.5t-49 32.5q-28 21 -41 27.5
t-24 6.5q-21 0 -34.5 -19t-21.5 -58h-44q11 61 39 96.5t64 35.5q14 0 31 -7.5t49 -32.5q28 -21 41 -27.5t24 -6.5q21 0 34.5 19t21.5 58h44q-11 -61 -39 -96.5t-64 -35.5z" />
    <glyph glyph-name="OE.sc" horiz-adv-x="1004" 
d="M932 0h-534q-156 0 -246 80t-90 218t90.5 217t248.5 79h520v-50h-339v-214h254v-49h-254v-231h350v-50zM146 298q0 -120 67.5 -185.5t191.5 -65.5h102v500h-99q-124 0 -193 -65.5t-69 -183.5z" />
    <glyph glyph-name="Racute.sc" horiz-adv-x="672" 
d="M330 546h-139v-236h139q77 0 117 31t40 92q0 56 -40 84.5t-117 28.5zM316 263h-125v-263h-75v594h226q110 0 168.5 -41t58.5 -119q0 -68 -47 -107t-124 -41v-3q51 -6 80 -29t47 -77l35 -93q7 -22 19.5 -43t29.5 -41h-84q-10 13 -20.5 34.5t-18.5 42.5l-37 96
q-20 55 -47.5 72.5t-85.5 17.5zM295 661l67 188h88l-114 -188h-41z" />
    <glyph glyph-name="Rcaron.sc" horiz-adv-x="672" 
d="M330 546h-139v-236h139q77 0 117 31t40 92q0 56 -40 84.5t-117 28.5zM316 263h-125v-263h-75v594h226q110 0 168.5 -41t58.5 -119q0 -68 -47 -107t-124 -41v-3q51 -6 80 -29t47 -77l35 -93q7 -22 19.5 -43t29.5 -41h-84q-10 13 -20.5 34.5t-18.5 42.5l-37 96
q-20 55 -47.5 72.5t-85.5 17.5zM473 852l-136 -200h-34l-134 200h43l109 -129l109 129h43z" />
    <glyph glyph-name="Rcommaaccent.sc" horiz-adv-x="672" 
d="M330 546h-139v-236h139q77 0 117 31t40 92q0 56 -40 84.5t-117 28.5zM316 263h-125v-263h-75v594h226q110 0 168.5 -41t58.5 -119q0 -68 -47 -107t-124 -41v-3q51 -6 80 -29t47 -77l35 -93q7 -22 19.5 -43t29.5 -41h-84q-10 13 -20.5 34.5t-18.5 42.5l-37 96
q-20 55 -47.5 72.5t-85.5 17.5zM319 -143h-47v85h97v-91q0 -54 -32.5 -83.5t-93.5 -29.5v46q42 0 59 15t17 53v5z" />
    <glyph glyph-name="Sacute.sc" horiz-adv-x="585" 
d="M291 43q69 0 109.5 29.5t40.5 80.5q0 40 -26.5 65t-89.5 41l-84 22q-88 22 -125 58.5t-37 98.5q0 72 59 119t150 47q70 0 128.5 -30t88.5 -80l-41 -41q-27 48 -73 74t-103 26q-62 0 -99 -27t-37 -72q0 -39 25 -62t91 -39l81 -21q85 -22 124.5 -60t39.5 -98
q0 -81 -63 -132.5t-159 -51.5q-80 0 -147 36t-97 95l42 36q34 -55 87 -84.5t115 -29.5zM269 661l67 188h88l-114 -188h-41z" />
    <glyph glyph-name="Scaron.sc" horiz-adv-x="585" 
d="M291 43q69 0 109.5 29.5t40.5 80.5q0 40 -26.5 65t-89.5 41l-84 22q-88 22 -125 58.5t-37 98.5q0 72 59 119t150 47q70 0 128.5 -30t88.5 -80l-41 -41q-27 48 -73 74t-103 26q-62 0 -99 -27t-37 -72q0 -39 25 -62t91 -39l81 -21q85 -22 124.5 -60t39.5 -98
q0 -81 -63 -132.5t-159 -51.5q-80 0 -147 36t-97 95l42 36q34 -55 87 -84.5t115 -29.5zM447 852l-136 -200h-34l-134 200h43l109 -129l109 129h43z" />
    <glyph glyph-name="Scedilla.sc" horiz-adv-x="585" 
d="M374 -137q0 -38 -32.5 -63t-81.5 -25q-33 0 -61 15.5t-42 41.5l29 28q14 -20 33 -30.5t41 -10.5q25 0 40.5 11.5t15.5 32.5q0 22 -25 34t-76 14l34 82q-67 8 -121.5 42.5t-80.5 85.5l42 36q34 -55 87 -84.5t115 -29.5q69 0 109.5 29.5t40.5 80.5q0 40 -26.5 65t-89.5 41
l-84 22q-88 22 -125 58.5t-37 98.5q0 72 59 119t150 47q70 0 128.5 -30t88.5 -80l-41 -41q-27 48 -73 74t-103 26q-62 0 -99 -27t-37 -72q0 -39 25 -62t91 -39l81 -21q85 -22 124.5 -60t39.5 -98q0 -81 -63 -132.5t-159 -51.5h-4l-19 -46q52 -5 79 -25.5t27 -55.5z" />
    <glyph glyph-name="Scircumflex.sc" horiz-adv-x="585" 
d="M291 43q69 0 109.5 29.5t40.5 80.5q0 40 -26.5 65t-89.5 41l-84 22q-88 22 -125 58.5t-37 98.5q0 72 59 119t150 47q70 0 128.5 -30t88.5 -80l-41 -41q-27 48 -73 74t-103 26q-62 0 -99 -27t-37 -72q0 -39 25 -62t91 -39l81 -21q85 -22 124.5 -60t39.5 -98
q0 -81 -63 -132.5t-159 -51.5q-80 0 -147 36t-97 95l42 36q34 -55 87 -84.5t115 -29.5zM277 852h34l136 -200h-43l-109 129l-109 -129h-43z" />
    <glyph glyph-name="Scommaaccent.sc" horiz-adv-x="585" 
d="M291 43q69 0 109.5 29.5t40.5 80.5q0 40 -26.5 65t-89.5 41l-84 22q-88 22 -125 58.5t-37 98.5q0 72 59 119t150 47q70 0 128.5 -30t88.5 -80l-41 -41q-27 48 -73 74t-103 26q-62 0 -99 -27t-37 -72q0 -39 25 -62t91 -39l81 -21q85 -22 124.5 -60t39.5 -98
q0 -81 -63 -132.5t-159 -51.5q-80 0 -147 36t-97 95l42 36q34 -55 87 -84.5t115 -29.5zM293 -143h-47v85h97v-91q0 -54 -32.5 -83.5t-93.5 -29.5v46q42 0 59 15t17 53v5z" />
    <glyph glyph-name="Tbar.sc" horiz-adv-x="676" 
d="M504 329v-48h-128v-281h-75v281h-128v48h128v217h-236v48h547v-48h-236v-217h128z" />
    <glyph glyph-name="Tcaron.sc" horiz-adv-x="676" 
d="M376 0h-75v546h-236v48h547v-48h-236v-546zM490 852l-136 -200h-34l-134 200h43l109 -129l109 129h43z" />
    <glyph glyph-name="Tcommaaccent.sc" horiz-adv-x="676" 
d="M440 -137q0 -38 -32.5 -63t-81.5 -25q-33 0 -61 15.5t-42 41.5l29 28q14 -20 33 -30.5t41 -10.5q25 0 40.5 11.5t15.5 32.5q0 22 -25 34t-76 14l37 89h-17v546h-236v48h547v-48h-236v-546h-18l-24 -56q52 -5 79 -25.5t27 -55.5z" />
    <glyph glyph-name="uni021A.sc" horiz-adv-x="676" 
d="M376 0h-75v546h-236v48h547v-48h-236v-546zM336 -143h-47v85h97v-91q0 -54 -32.5 -83.5t-93.5 -29.5v46q42 0 59 15t17 53v5z" />
    <glyph glyph-name="Thorn.sc" horiz-adv-x="599" 
d="M192 0h-75v594h75v-107h128q112 0 172.5 -45.5t60.5 -131.5q0 -85 -61 -130.5t-172 -45.5h-128v-134zM474 310q0 66 -39.5 97.5t-122.5 31.5h-120v-257h120q82 0 122 31.5t40 96.5z" />
    <glyph glyph-name="Uacute.sc" horiz-adv-x="700" 
d="M540 235v359h56v-369q0 -108 -65.5 -171.5t-173.5 -63.5q-121 0 -186.5 61.5t-65.5 174.5v368h75v-358q0 -90 48 -140.5t133 -50.5q88 0 133.5 48.5t45.5 141.5zM324 661l67 188h88l-114 -188h-41z" />
    <glyph glyph-name="Ubreve.sc" horiz-adv-x="700" 
d="M540 235v359h56v-369q0 -108 -65.5 -171.5t-173.5 -63.5q-121 0 -186.5 61.5t-65.5 174.5v368h75v-358q0 -90 48 -140.5t133 -50.5q88 0 133.5 48.5t45.5 141.5zM454 842h36q0 -77 -39.5 -125.5t-100.5 -48.5t-100.5 48.5t-39.5 125.5h36q4 -50 33.5 -84t70.5 -34
t70.5 34t33.5 84z" />
    <glyph glyph-name="Ucircumflex.sc" horiz-adv-x="700" 
d="M540 235v359h56v-369q0 -108 -65.5 -171.5t-173.5 -63.5q-121 0 -186.5 61.5t-65.5 174.5v368h75v-358q0 -90 48 -140.5t133 -50.5q88 0 133.5 48.5t45.5 141.5zM332 852h34l136 -200h-43l-109 129l-109 -129h-43z" />
    <glyph glyph-name="Udieresis.sc" horiz-adv-x="700" 
d="M540 235v359h56v-369q0 -108 -65.5 -171.5t-173.5 -63.5q-121 0 -186.5 61.5t-65.5 174.5v368h75v-358q0 -90 48 -140.5t133 -50.5q88 0 133.5 48.5t45.5 141.5zM306 693h-82v103h82v-103zM476 693h-82v103h82v-103z" />
    <glyph glyph-name="Ugrave.sc" horiz-adv-x="700" 
d="M540 235v359h56v-369q0 -108 -65.5 -171.5t-173.5 -63.5q-121 0 -186.5 61.5t-65.5 174.5v368h75v-358q0 -90 48 -140.5t133 -50.5q88 0 133.5 48.5t45.5 141.5zM378 661h-41l-114 188h88z" />
    <glyph glyph-name="Uhungarumlaut.sc" horiz-adv-x="700" 
d="M540 235v359h56v-369q0 -108 -65.5 -171.5t-173.5 -63.5q-121 0 -186.5 61.5t-65.5 174.5v368h75v-358q0 -90 48 -140.5t133 -50.5q88 0 133.5 48.5t45.5 141.5zM245 661l74 188h81l-113 -188h-42zM405 661l74 188h81l-113 -188h-42z" />
    <glyph glyph-name="Umacron.sc" horiz-adv-x="700" 
d="M540 235v359h56v-369q0 -108 -65.5 -171.5t-173.5 -63.5q-121 0 -186.5 61.5t-65.5 174.5v368h75v-358q0 -90 48 -140.5t133 -50.5q88 0 133.5 48.5t45.5 141.5zM486 742v-50h-272v50h272z" />
    <glyph glyph-name="Uogonek.sc" horiz-adv-x="700" 
d="M395 -225q-39 0 -68.5 25.5t-29.5 64.5q0 34 20 65t61 61q-4 -1 -8 -1h-13q-121 0 -186.5 61.5t-65.5 174.5v368h75v-358q0 -90 48 -140.5t133 -50.5q88 0 133.5 48.5t45.5 141.5v359h56v-369q0 -80 -37 -137t-104 -82q-51 -31 -77 -64t-26 -65q0 -26 16 -41t41 -15
q28 0 46 15t33 51l38 -15q-17 -47 -51 -72t-80 -25z" />
    <glyph glyph-name="Uring.sc" horiz-adv-x="700" 
d="M540 235v359h56v-369q0 -108 -65.5 -171.5t-173.5 -63.5q-121 0 -186.5 61.5t-65.5 174.5v368h75v-358q0 -90 48 -140.5t133 -50.5q88 0 133.5 48.5t45.5 141.5zM350 657q-44 0 -75 31t-31 74q0 42 31.5 72.5t74.5 30.5t74.5 -30.5t31.5 -72.5q0 -43 -31 -74t-75 -31z
M350 698q29 0 46 17.5t17 46.5q0 28 -17.5 46t-45.5 18t-45.5 -18t-17.5 -46q0 -29 17 -46.5t46 -17.5z" />
    <glyph glyph-name="Utilde.sc" horiz-adv-x="700" 
d="M540 235v359h56v-369q0 -108 -65.5 -171.5t-173.5 -63.5q-121 0 -186.5 61.5t-65.5 174.5v368h75v-358q0 -90 48 -140.5t133 -50.5q88 0 133.5 48.5t45.5 141.5zM421 687q-14 0 -31 7.5t-49 32.5q-28 21 -41 27.5t-24 6.5q-21 0 -34.5 -19t-21.5 -58h-44q11 61 39 96.5
t64 35.5q14 0 31 -7.5t49 -32.5q28 -21 41 -27.5t24 -6.5q21 0 34.5 19t21.5 58h44q-11 -61 -39 -96.5t-64 -35.5z" />
    <glyph glyph-name="Wacute.sc" horiz-adv-x="900" 
d="M632 -5h-38l-142 428l-140 -428h-38l-219 599h76l173 -473l125 373l-33 100h73l153 -468l166 468h57zM424 661l67 188h88l-114 -188h-41z" />
    <glyph glyph-name="Wcircumflex.sc" horiz-adv-x="900" 
d="M632 -5h-38l-142 428l-140 -428h-38l-219 599h76l173 -473l125 373l-33 100h73l153 -468l166 468h57zM432 852h34l136 -200h-43l-109 129l-109 -129h-43z" />
    <glyph glyph-name="Wgrave.sc" horiz-adv-x="900" 
d="M632 -5h-38l-142 428l-140 -428h-38l-219 599h76l173 -473l125 373l-33 100h73l153 -468l166 468h57zM478 661h-41l-114 188h88z" />
    <glyph glyph-name="Wdieresis.sc" horiz-adv-x="900" 
d="M632 -5h-38l-142 428l-140 -428h-38l-219 599h76l173 -473l125 373l-33 100h73l153 -468l166 468h57zM406 693h-82v103h82v-103zM576 693h-82v103h82v-103z" />
    <glyph glyph-name="Yacute.sc" horiz-adv-x="635" 
d="M140 594l191 -290l190 290h62l-228 -346v-248h-74v248l-229 346h88zM291 661l67 188h88l-114 -188h-41z" />
    <glyph glyph-name="Ycircumflex.sc" horiz-adv-x="635" 
d="M140 594l191 -290l190 290h62l-228 -346v-248h-74v248l-229 346h88zM299 852h34l136 -200h-43l-109 129l-109 -129h-43z" />
    <glyph glyph-name="Ydieresis.sc" horiz-adv-x="635" 
d="M140 594l191 -290l190 290h62l-228 -346v-248h-74v248l-229 346h88zM273 693h-82v103h82v-103zM443 693h-82v103h82v-103z" />
    <glyph glyph-name="Ygrave.sc" horiz-adv-x="635" 
d="M140 594l191 -290l190 290h62l-228 -346v-248h-74v248l-229 346h88zM345 661h-41l-114 188h88z" />
    <glyph glyph-name="Zacute.sc" horiz-adv-x="647" 
d="M158 50h409v-50h-506v38l410 506h-384v50h481v-38zM288 661l67 188h88l-114 -188h-41z" />
    <glyph glyph-name="Zcaron.sc" horiz-adv-x="647" 
d="M158 50h409v-50h-506v38l410 506h-384v50h481v-38zM466 852l-136 -200h-34l-134 200h43l109 -129l109 129h43z" />
    <glyph glyph-name="Zdotaccent.sc" horiz-adv-x="647" 
d="M158 50h409v-50h-506v38l410 506h-384v50h481v-38zM355 693h-82v113h82v-113z" />
    <glyph glyph-name="f_short" horiz-adv-x="346" 
d="M114 485v84q0 83 44.5 136t114.5 53q51 0 81.5 -26t30.5 -71q0 -13 -4.5 -26t-12.5 -21l-42 14q5 9 6.5 14.5t1.5 11.5q0 28 -15 42.5t-45 14.5q-41 0 -63.5 -35.5t-22.5 -97.5v-93h147l-5 -47h-142v-438h-74v438h-82v47h82z" />
    <glyph glyph-name="f_f_short" horiz-adv-x="679" 
d="M188 519v-34h259v84q0 18 1.5 33t5.5 28q-18 36 -50 53.5t-80 17.5q-68 0 -102 -46t-34 -136zM447 438h-259v-438h-74v438h-82v47h82v25q0 111 56.5 175t152.5 64q49 0 87 -17t65 -51q21 37 55 57t76 20q51 0 81.5 -26t30.5 -71q0 -13 -4.5 -26t-12.5 -21l-42 14
q5 9 6.5 14.5t1.5 11.5q0 28 -15 42.5t-45 14.5q-41 0 -63.5 -35.5t-22.5 -97.5v-93h147l-5 -47h-142v-438h-74v438z" />
    <glyph glyph-name="ampersand.sc" horiz-adv-x="676" 
d="M192 476q0 -25 10.5 -46t36.5 -47l38 -38q58 23 85 53.5t27 71.5q0 39 -27 63.5t-74 24.5q-44 0 -70 -22.5t-26 -59.5zM141 162q0 -52 38 -84t97 -32q38 0 73.5 15.5t67.5 45.5l-184 181q-48 -21 -70 -51.5t-22 -74.5zM627 0h-101l-73 72q-42 -39 -90 -59.5t-99 -20.5
q-88 0 -144.5 45t-56.5 118q0 52 37 94.5t103 68.5l-23 22q-28 29 -42 59.5t-14 62.5q0 62 46 101t117 39t115 -36.5t44 -93.5q0 -52 -37 -95t-99 -64l154 -152q27 40 43 84.5t19 86.5l55 -8q-5 -50 -26.5 -102t-54.5 -97z" />
    <glyph glyph-name="caron.Slovak" horiz-adv-x="500" 
d="M223 749h79l-68 -205h-36z" />
    <glyph glyph-name="commaturn" horiz-adv-x="500" 
d="M246 652h47v-85h-97v91q0 54 32.5 83.5t93.5 29.5v-46q-42 0 -59 -15t-17 -53v-5z" />
    <glyph glyph-name="dotbelow" horiz-adv-x="500" 
d="M292 -192h-82v113h82v-113z" />
    <glyph glyph-name="grave.cap" horiz-adv-x="500" 
d="M325 770h-43l-107 161h91z" />
    <glyph glyph-name="acute.cap" horiz-adv-x="500" 
d="M175 770l59 161h91l-107 -161h-43z" />
    <glyph glyph-name="circumflex.cap" horiz-adv-x="500" 
d="M402 768h-43l-109 109l-109 -109h-43l134 180h34z" />
    <glyph glyph-name="tilde.cap" horiz-adv-x="500" 
d="M321 792q-14 0 -31 7.5t-49 32.5q-28 21 -41 27.5t-24 6.5q-21 0 -34.5 -19t-21.5 -58h-44q11 61 39 96.5t64 35.5q14 0 31 -7.5t49 -32.5q28 -21 41 -27.5t24 -6.5q21 0 34.5 19t21.5 58h44q-11 -61 -39 -96.5t-64 -35.5z" />
    <glyph glyph-name="macron.cap" horiz-adv-x="500" 
d="M386 842v-50h-272v50h272z" />
    <glyph glyph-name="breve.cap" horiz-adv-x="500" 
d="M354 938h36q0 -72 -39 -116.5t-101 -44.5t-101 44.5t-39 116.5h36q4 -47 32.5 -76t71.5 -29t71.5 29t32.5 76z" />
    <glyph glyph-name="dotaccent.cap" horiz-adv-x="500" 
d="M292 793h-82v113h82v-113z" />
    <glyph glyph-name="dieresis.cap" horiz-adv-x="500" 
d="M207 783h-82v103h82v-103zM377 783h-82v103h82v-103z" />
    <glyph glyph-name="ring.cap" horiz-adv-x="500" 
d="M250 744q-43 0 -74.5 31t-31.5 74q0 42 31.5 73t74.5 31t74.5 -31t31.5 -73q0 -43 -31.5 -74t-74.5 -31zM250 786q28 0 45.5 17.5t17.5 45.5q0 29 -17.5 46.5t-45.5 17.5t-45.5 -17.5t-17.5 -46.5q0 -28 17.5 -45.5t45.5 -17.5z" />
    <glyph glyph-name="hungarumlaut.cap" horiz-adv-x="500" 
d="M93 770l74 161h81l-113 -161h-42zM253 770l74 161h81l-113 -161h-42z" />
    <glyph glyph-name="caron.cap" horiz-adv-x="500" 
d="M402 943l-136 -180h-34l-134 180h43l109 -109l109 109h43z" />
    <glyph glyph-name="exclamdown.cap" horiz-adv-x="265" 
d="M149 495l34 -495h-100l34 495h32zM183 591h-101v109h101v-109z" />
    <glyph glyph-name="questiondown.cap" horiz-adv-x="525" 
d="M122 168q0 -56 39 -90t105 -34q67 0 106.5 33t39.5 91q0 17 -7 36t-21 37l46 29q20 -21 31 -47.5t11 -54.5q0 -76 -57.5 -126.5t-147.5 -50.5q-99 0 -156.5 52.5t-57.5 134.5q0 81 52.5 139.5t147.5 84.5v104h49v-171q-83 -15 -131.5 -59t-48.5 -108zM230 701h101v-109
h-101v109z" />
    <glyph glyph-name="exclam.sc" horiz-adv-x="297" 
d="M135 182l-35 412h97l-35 -412h-27zM195 0h-94v102h94v-102z" />
    <glyph glyph-name="exclamdown.sc" horiz-adv-x="297" 
d="M162 412l35 -412h-97l35 412h27zM195 492h-94v102h94v-102z" />
    <glyph glyph-name="question.sc" horiz-adv-x="490" 
d="M243 604q84 0 133 -45t49 -118q0 -69 -47 -119t-131 -72v-80h-43v145q70 12 111 48t41 88q0 48 -30.5 76t-84.5 28t-86.5 -28t-32.5 -76q0 -16 6.5 -32t18.5 -31l-42 -28q-19 16 -29.5 40t-10.5 51q0 64 50.5 108.5t127.5 44.5zM270 0h-94v101h94v-101z" />
    <glyph glyph-name="questiondown.sc" horiz-adv-x="490" 
d="M247 -11q-84 0 -133 45t-49 118q0 69 47 119t131 72v80h43v-145q-70 -12 -111 -48t-41 -88q0 -48 30.5 -76t84.5 -28t86.5 28t32.5 76q0 16 -6.5 32t-18.5 31l42 28q19 -16 29.5 -40t10.5 -51q0 -64 -50.5 -108.5t-127.5 -44.5zM220 593h94v-101h-94v101z" />
    <glyph glyph-name="guilsinglleft.cap" horiz-adv-x="386" 
d="M275 134l-220 206v8l220 206h56l-180 -210l180 -210h-56z" />
    <glyph glyph-name="guilsinglright.cap" horiz-adv-x="386" 
d="M55 134l180 210l-180 210h56l220 -206v-8l-220 -206h-56z" />
    <glyph glyph-name="guillemotleft.cap" horiz-adv-x="623" 
d="M275 134l-220 206v8l220 206h56l-180 -210l180 -210h-56zM512 134l-220 206v8l220 206h56l-180 -210l180 -210h-56z" />
    <glyph glyph-name="guillemotright.cap" horiz-adv-x="623" 
d="M55 134l180 210l-180 210h56l220 -206v-8l-220 -206h-56zM293 134l180 210l-180 210h56l220 -206v-8l-220 -206h-56z" />
    <glyph glyph-name="slash.cap" horiz-adv-x="424" 
d="M94 -113h-64l300 882h64z" />
    <glyph glyph-name="backslash.cap" horiz-adv-x="424" 
d="M94 769l300 -882h-64l-300 882h64z" />
    <glyph glyph-name="bar.cap" horiz-adv-x="280" 
d="M170 -113h-60v882h60v-882z" />
    <glyph glyph-name="periodcentered.cap" horiz-adv-x="243" 
d="M172 286h-101v109h101v-109z" />
    <glyph glyph-name="bullet.cap" horiz-adv-x="382" 
d="M192 211q-50 0 -85.5 35.5t-35.5 84.5q0 50 36 85.5t85 35.5t84 -35.5t35 -85.5t-35 -85t-84 -35z" />
    <glyph glyph-name="hyphen.cap" horiz-adv-x="391" 
d="M320 309h-249v65h249v-65z" />
    <glyph glyph-name="endash.cap" horiz-adv-x="562" 
d="M491 313h-420v57h420v-57z" />
    <glyph glyph-name="emdash.cap" horiz-adv-x="862" 
d="M791 313h-720v57h720v-57z" />
    <glyph glyph-name="parenleft.cap" horiz-adv-x="366" 
d="M68 327q0 147 58.5 266.5t168.5 195.5l31 -33q-96 -73 -145.5 -181.5t-49.5 -247.5t49.5 -247.5t145.5 -181.5l-31 -33q-110 76 -168.5 195.5t-58.5 266.5z" />
    <glyph glyph-name="parenright.cap" horiz-adv-x="366" 
d="M298 327q0 -147 -58.5 -266.5t-168.5 -195.5l-31 33q96 73 145.5 181.5t49.5 247.5t-49.5 247.5t-145.5 181.5l31 33q110 -76 168.5 -195.5t58.5 -266.5z" />
    <glyph glyph-name="bracketleft.cap" horiz-adv-x="343" 
d="M293 -124h-193v903h193v-34l-134 -9v-816l134 -10v-34z" />
    <glyph glyph-name="bracketright.cap" horiz-adv-x="343" 
d="M50 -90l134 10v816l-134 9v34h193v-903h-193v34z" />
    <glyph glyph-name="braceleft.cap" horiz-adv-x="422" 
d="M184 178q0 62 -27 91.5t-97 31.5v50q70 2 97 31.5t27 91.5q0 11 -1.5 25t-6.5 45q-6 36 -8 53.5t-2 31.5q0 65 44.5 107.5t115.5 42.5q12 0 23.5 -1t22.5 -3l-5 -38q-70 8 -105.5 -21t-35.5 -95q0 -7 1.5 -19.5t6.5 -42.5q6 -40 8 -59t2 -32q0 -59 -35.5 -97.5
t-84.5 -44.5q49 -6 84.5 -44.5t35.5 -97.5q0 -13 -2 -32t-8 -59q-5 -30 -6.5 -42.5t-1.5 -19.5q0 -66 35.5 -95t105.5 -21l5 -38q-11 -2 -22.5 -3t-23.5 -1q-71 0 -115.5 42.5t-44.5 107.5q0 14 2 31.5t8 53.5q5 31 6.5 45t1.5 25z" />
    <glyph glyph-name="braceright.cap" horiz-adv-x="422" 
d="M238 178q0 -11 1.5 -25t6.5 -45q6 -36 8 -53.5t2 -31.5q0 -65 -44.5 -107.5t-115.5 -42.5q-12 0 -23.5 1t-22.5 3l5 38q70 -8 105.5 21t35.5 95q0 7 -1.5 19.5t-6.5 42.5q-6 40 -8 59t-2 32q0 59 35.5 97.5t84.5 44.5q-49 6 -84.5 44.5t-35.5 97.5q0 13 2 32t8 59
q5 30 6.5 42.5t1.5 19.5q0 66 -35.5 95t-105.5 21l-5 38q11 2 22.5 3t23.5 1q71 0 115.5 -42.5t44.5 -107.5q0 -14 -2 -31.5t-8 -53.5q-5 -31 -6.5 -45t-1.5 -25q0 -62 27 -91.5t97 -31.5v-50q-70 -2 -97 -31.5t-27 -91.5z" />
    <glyph glyph-name="at.cap" horiz-adv-x="968" 
d="M652 533h49l-65 -266q-11 -44 5.5 -68t57.5 -24q67 0 112 63.5t45 170.5q0 140 -95 222t-251 82q-164 0 -273.5 -112t-109.5 -284q0 -162 105 -262t273 -100q83 0 146 17.5t119 55.5l25 -35q-56 -42 -130 -64t-160 -22q-192 0 -314 114.5t-122 296.5q0 92 32.5 173.5
t93.5 142.5q62 62 143.5 95.5t171.5 33.5q175 0 287.5 -97.5t112.5 -256.5q0 -56 -13 -103.5t-39 -84.5q-30 -44 -74.5 -69t-90.5 -25q-56 0 -90 29t-34 79q-22 -48 -62.5 -77t-87.5 -29q-60 0 -97.5 40.5t-37.5 107.5q0 108 66.5 186.5t158.5 78.5q44 0 75 -23t38 -58z
M437 177q47 0 84 39.5t54 106.5l11 46q14 58 -7 95t-65 37q-62 0 -108 -67.5t-46 -156.5q0 -46 21 -73t56 -27z" />
    <glyph glyph-name="published" horiz-adv-x="810" 
d="M405 710q152 0 256 -103t104 -257t-104 -257t-256 -103t-256 103t-104 257t104 257t256 103zM75 350q0 -140 95.5 -235.5t234.5 -95.5t234.5 95.5t95.5 235.5t-95.5 235.5t-234.5 95.5t-234.5 -95.5t-95.5 -235.5zM592 435q0 -58 -43 -90t-118 -32h-82v-164h-61v408h143
q76 0 118.5 -32t42.5 -90zM349 523v-175h71q55 0 81.5 21t26.5 66t-26.5 66.5t-81.5 21.5h-71z" />
    <glyph glyph-name="florin.op" horiz-adv-x="521" 
d="M71 -170q-44 0 -70.5 25.5t-26.5 65.5q0 18 9 36.5t22 30.5l38 -18q-9 -12 -14.5 -24.5t-5.5 -21.5q0 -22 12 -34.5t35 -12.5q35 0 54.5 26.5t29.5 93.5l43 314h-95l5 41h96l14 101q13 90 52 136.5t102 46.5q45 0 74 -24t29 -61q0 -18 -8.5 -35t-23.5 -31l-37 18
q12 18 15.5 27.5t3.5 16.5q0 20 -13.5 31t-37.5 11q-35 0 -54 -25.5t-29 -94.5l-16 -117h116l-6 -41h-116l-41 -298q-12 -88 -52 -135.5t-104 -47.5z" />
    <glyph glyph-name="Euro.op" horiz-adv-x="649" 
d="M390 -10q-95 0 -163 63t-89 169h-89v41h83l-1.5 28.5t-0.5 17.5q0 7 0.5 16t1.5 26h-83v41h88q21 111 90 177.5t166 66.5q75 0 130.5 -43.5t77.5 -116.5l-51 -24q-20 67 -59 99t-100 32q-72 0 -116 -48.5t-57 -142.5h217l-10 -41h-211q-1 -6 -1 -14.5v-24.5
q0 -10 0.5 -21.5t1.5 -27.5h191l-9 -41h-177q15 -84 60 -129.5t113 -46.5q64 0 105 32t61 97l43 -22q-27 -78 -83 -120.5t-129 -42.5z" />
    <glyph glyph-name="dollar.op" horiz-adv-x="596" 
d="M153 478q0 -42 28.5 -67t97.5 -41l4 -1v213q-59 -3 -94.5 -31t-35.5 -73zM461 162q0 42 -26 67t-93 43l-17 5v-233q63 4 99.5 35t36.5 83zM325 -9v-100h-42v101q-99 6 -158.5 53.5t-66.5 128.5l54 18q12 -72 53 -107.5t118 -40.5v244l-29 8q-93 25 -131.5 63.5
t-38.5 101.5q0 72 56 120t143 53v97h42v-98q70 -6 123 -45t71 -96l-50 -32q-15 53 -52 84t-92 37v-224l31 -9q90 -22 132 -62.5t42 -102.5q0 -81 -58 -134t-147 -58z" />
    <glyph glyph-name="sterling.op" horiz-adv-x="641" 
d="M600 99q0 -51 -39 -86t-95 -35q-28 0 -56 8.5t-58 26.5q-24 14 -60.5 41.5t-37.5 28.5q-20 -46 -50.5 -69t-71.5 -23q-42 0 -67 25.5t-25 66.5q0 40 29.5 67t73.5 27q18 0 37 -5t40 -15q1 17 1.5 28t0.5 21q0 18 -0.5 37.5t-2.5 40.5h-110v41h107q-2 30 -3.5 57t-1.5 50
q0 93 52.5 148.5t141.5 55.5q73 0 117 -35t44 -90q0 -31 -18.5 -58t-42.5 -36l-29 28q17 14 25.5 30t8.5 35q0 34 -29 55.5t-75 21.5q-56 0 -85 -35.5t-29 -103.5v-123h152v-41h-153q-2 -46 -7.5 -84.5t-13.5 -69.5q82 -49 120 -61.5t75 -12.5q50 0 72 27t12 73l35 4
q6 -10 11 -28.5t5 -32.5zM89 81q0 -21 12 -33t32 -12q28 0 48 19.5t30 56.5q-19 10 -35.5 15t-31.5 5q-24 0 -39.5 -14t-15.5 -37z" />
    <glyph glyph-name="yen.op" horiz-adv-x="651" 
d="M550 224v-42h-187v-182h-73v182h-188v42h188v37l-31 50h-157v41h132l-167 274h86l185 -306l184 306h63l-167 -274h132v-41h-157l-30 -50v-37h187z" />
    <glyph glyph-name="florin.sc" horiz-adv-x="521" 
d="M71 -170q-44 0 -70.5 25.5t-26.5 65.5q0 18 9 36.5t22 30.5l38 -18q-9 -12 -14.5 -24.5t-5.5 -21.5q0 -22 12 -34.5t35 -12.5q35 0 54.5 26.5t29.5 93.5l40 283h-95l5 41h96l14 100q13 90 52 136.5t102 46.5q45 0 74 -24t29 -61q0 -18 -8.5 -35t-23.5 -31l-37 18
q12 18 15.5 27.5t3.5 16.5q0 20 -13.5 31t-37.5 11q-35 0 -54 -25.5t-29 -94.5l-16 -116h116l-6 -41h-116l-38 -267q-12 -88 -52 -135.5t-104 -47.5z" />
    <glyph glyph-name="Euro.sc" horiz-adv-x="604" 
d="M511 164l40 -21q-24 -74 -74.5 -113.5t-118.5 -39.5q-86 0 -148.5 60t-82.5 161h-80v39h75q-1 17 -1.5 26t-0.5 17q0 7 0.5 15.5t1.5 24.5h-75v39h80q19 106 82.5 169t151.5 63q70 0 120.5 -41t68.5 -109l-48 -23q-17 64 -52 94t-89 30q-65 0 -105 -47t-52 -136h196
l-9 -39h-191q-1 -6 -1 -13.5v-23.5q0 -9 0.5 -20t1.5 -26h173l-9 -39h-159q14 -81 54.5 -125t101.5 -44q57 0 94 30t55 92z" />
    <glyph glyph-name="dollar.sc" horiz-adv-x="569" 
d="M149 454q0 -40 26 -63t91 -38l3 -1v201q-54 -4 -87 -30.5t-33 -68.5zM436 153q0 41 -23.5 64t-87.5 41l-15 4v-220q58 3 92 33t34 78zM310 -8v-95h-41v96q-93 6 -149.5 51t-64.5 121l52 17q14 -68 53 -102t109 -38v231l-28 7q-86 23 -123.5 60t-37.5 98q0 68 53 113.5
t136 50.5v92h41v-93q67 -6 117 -43t67 -91l-48 -30q-14 50 -49 79.5t-87 35.5v-211l30 -9q84 -20 124.5 -59t40.5 -99q0 -77 -55 -127t-140 -55z" />
    <glyph glyph-name="sterling.sc" horiz-adv-x="610" 
d="M569 94q0 -49 -36.5 -82t-89.5 -33q-27 0 -53.5 8t-54.5 24q-10 6 -33 22.5t-59 43.5q-19 -43 -48.5 -65t-68.5 -22q-40 0 -64 24t-24 62q0 39 28 64.5t70 25.5q17 0 34.5 -4.5t37.5 -13.5q1 15 1.5 26t0.5 21q0 12 -0.5 26t-3.5 48h-102v40h99l-2.5 40t-2.5 63
q0 88 50.5 140t136.5 52q69 0 110.5 -33t41.5 -85q0 -30 -17 -55.5t-40 -33.5l-29 27q16 13 24 28t8 33q0 33 -27 53t-70 20q-51 0 -78 -33t-27 -97v-119h141v-40h-142q-2 -45 -7.5 -82t-13.5 -67q74 -43 110.5 -55t72.5 -12q46 0 67 25.5t11 69.5l34 4q6 -10 10.5 -27.5
t4.5 -30.5zM85 75q0 -20 11.5 -31.5t30.5 -11.5q27 0 45.5 18.5t27.5 54.5q-16 10 -31.5 14.5t-31.5 4.5q-23 0 -37.5 -13.5t-14.5 -35.5z" />
    <glyph glyph-name="yen.sc" horiz-adv-x="621" 
d="M524 212v-39h-176v-173h-74v173h-176v39h176v36l-29 47h-147v39h124l-159 260h89l173 -290l172 290h61l-158 -260h124v-39h-147l-29 -47v-36h176z" />
    <glyph glyph-name="florin.lt" 
d="M155 -184q-46 0 -75 27.5t-29 69.5q0 20 10 41.5t24 34.5l40 -18q-11 -17 -16 -30.5t-5 -22.5q0 -25 13 -39t37 -14q39 0 60 30.5t32 109.5l47 351h-104l6 43h104l15 108q13 100 55.5 151.5t110.5 51.5q48 0 79 -25.5t31 -64.5q0 -20 -9.5 -40t-24.5 -34l-40 18
q12 20 16.5 31t4.5 20q0 22 -15 34t-41 12q-39 0 -60 -30.5t-32 -109.5l-17 -122h128l-6 -43h-128l-45 -337q-13 -100 -55.5 -151.5t-110.5 -51.5z" />
    <glyph glyph-name="Euro.lt" 
d="M563 196l45 -21q-28 -90 -85 -137.5t-135 -47.5q-99 0 -169.5 70t-92.5 190h-93v43h87q-1 11 -2 30t-1 23q0 9 0.5 19.5t1.5 27.5h-86v43h92q21 125 92.5 199.5t172.5 74.5q79 0 136.5 -47t80.5 -127l-53 -28q-21 77 -61.5 113.5t-104.5 36.5q-76 0 -123 -57t-60 -165
h229l-10 -43h-223q-1 -7 -1 -16.5v-28.5q0 -23 0.5 -34.5t1.5 -20.5h202l-10 -43h-187q15 -98 62.5 -151t120.5 -53q67 0 109.5 37t63.5 113z" />
    <glyph glyph-name="dollar.lt" 
d="M167 534q0 -49 29.5 -77t107.5 -48l4 -1v248q-63 -4 -102 -37.5t-39 -84.5zM502 183q0 49 -27.5 77.5t-102.5 50.5l-19 5v-272q69 5 109 42t40 97zM353 -10v-113h-45v114q-108 7 -172 62t-71 147l58 16q14 -83 58 -124t127 -47v284l-30 9q-102 29 -143 71t-41 112
q0 78 60 131t154 58v109h45v-110q77 -7 134 -51t76 -109l-53 -31q-17 60 -57 95t-100 42v-260l33 -10q97 -25 143 -70t46 -113q0 -90 -62.5 -148t-159.5 -64z" />
    <glyph glyph-name="cent.lt" 
d="M501 168l41 -9q-15 -78 -71.5 -123.5t-136.5 -45.5l-9 -104h-40l9 107q-89 14 -142.5 82.5t-53.5 172.5q0 115 67 191t172 81l8 96h40l-8 -97q71 -7 112 -49.5t41 -106.5q0 -25 -10 -49.5t-26 -39.5l-37 35q8 11 13 25t5 28q0 42 -27 71.5t-75 35.5l-35 -425h6
q60 0 99.5 31t57.5 93zM178 258q0 -86 31 -139.5t89 -69.5l35 420q-70 -7 -112.5 -65t-42.5 -146z" />
    <glyph glyph-name="sterling.lt" 
d="M623 106q0 -55 -42 -92t-102 -37q-21 0 -42.5 4.5t-43.5 13.5q-17 8 -35.5 19t-40.5 26q-14 11 -38 29.5t-31 23.5q-21 -51 -54 -77t-77 -26q-45 0 -72 27.5t-27 72.5q0 44 32 74t78 30q20 0 40 -5.5t43 -17.5q2 23 3 37.5t1 28.5q0 12 -0.5 28t-3.5 55h-119v44h116
q-2 47 -3 73t-1 46q0 105 56 166t153 61q78 0 125.5 -39t47.5 -99q0 -36 -19.5 -66t-45.5 -39l-32 30q19 15 28 33.5t9 40.5q0 39 -31.5 63.5t-81.5 24.5q-61 0 -92.5 -40.5t-31.5 -117.5v-137h165v-44h-167q-1 -53 -7 -98t-16 -81q56 -36 71.5 -44.5t29.5 -15.5
q30 -14 57.5 -20.5t55.5 -6.5q53 0 77.5 30t13.5 81l38 4q6 -11 11 -30t5 -33zM70 88q0 -24 13 -37.5t35 -13.5q30 0 51.5 22t32.5 65q-20 12 -38 17.5t-34 5.5q-27 0 -43.5 -16t-16.5 -43z" />
    <glyph glyph-name="yen.lt" 
d="M563 250v-43h-204v-207h-76v207h-204v43h204v41l-35 59h-169v43h143l-181 307h91l201 -349l200 349h67l-181 -307h144v-43h-170l-34 -59v-41h204z" />
    <glyph glyph-name="florin.ot" 
d="M167 -170q-43 0 -70 26t-27 65q0 17 8.5 35t22.5 32l38 -18q-10 -15 -14.5 -26.5t-4.5 -19.5q0 -22 12 -34.5t34 -12.5q35 0 54.5 26t29.5 94l44 314h-96l5 41h96l14 100q13 90 52 136.5t102 46.5q45 0 74 -24t29 -61q0 -17 -8 -34t-23 -32l-38 18q12 18 15.5 27.5
t3.5 16.5q0 20 -13.5 31t-37.5 11q-35 0 -54 -25.5t-29 -94.5l-16 -116h116l-5 -41h-117l-41 -298q-12 -88 -52 -135.5t-104 -47.5z" />
    <glyph glyph-name="Euro.ot" 
d="M554 175l43 -22q-27 -78 -83 -120.5t-129 -42.5q-95 0 -163 62.5t-89 169.5h-89v41h83q-1 8 -1.5 17.5t-0.5 28.5v26t1 16h-82v41h88q21 111 90 177.5t166 66.5q75 0 130.5 -43.5t77.5 -116.5l-51 -24q-20 67 -59 99t-100 32q-72 0 -116.5 -49t-56.5 -142h217l-10 -41
h-211q-1 -6 -1 -14.5v-24.5q0 -21 0.5 -31t1.5 -18h191l-9 -41h-177q15 -84 60 -129.5t113 -46.5q64 0 105 32t61 97z" />
    <glyph glyph-name="dollar.ot" 
d="M179 478q0 -42 28.5 -67t97.5 -41l4 -1v213q-59 -3 -94.5 -31t-35.5 -73zM487 162q0 42 -26 67t-93 43l-17 5v-233q63 4 99.5 35t36.5 83zM351 -9v-100h-42v101q-99 6 -158.5 53.5t-66.5 128.5l54 18q12 -72 53 -107.5t118 -40.5v244l-29 8q-93 25 -131.5 63.5
t-38.5 101.5q0 72 56 120t143 53v97h42v-98q70 -6 123.5 -45t70.5 -96l-50 -32q-14 53 -51.5 84t-92.5 37v-224l31 -9q90 -22 132 -62.5t42 -102.5q0 -81 -58 -134t-147 -58z" />
    <glyph glyph-name="sterling.ot" 
d="M600 99q0 -51 -39 -86t-94 -35q-28 0 -56 8.5t-59 26.5q-24 14 -60.5 41.5t-37.5 28.5q-20 -46 -50.5 -69t-71.5 -23q-42 0 -67 25.5t-25 66.5q0 40 30 67t73 27q18 0 37 -5t40 -15q1 17 1.5 28t0.5 21q0 18 -0.5 37.5t-2.5 40.5h-110v41h107q-2 45 -3.5 72t-1.5 35
q0 93 52.5 148.5t141.5 55.5q73 0 117 -35t44 -90q0 -31 -18.5 -58t-42.5 -36l-29 28q17 14 25.5 30t8.5 35q0 34 -29 55.5t-75 21.5q-56 0 -85 -35.5t-29 -103.5v-123h152v-41h-153q-2 -46 -7.5 -84.5t-13.5 -69.5q82 -49 120 -61.5t76 -12.5q49 0 71 27t12 73l36 4
q6 -11 10.5 -29.5t4.5 -31.5zM89 81q0 -21 12 -33t32 -12q28 0 48 19t31 57q-20 10 -36.5 15t-31.5 5q-24 0 -39.5 -14t-15.5 -37z" />
    <glyph glyph-name="yen.ot" 
d="M545 224v-42h-188v-182h-73v182h-188v42h188v37l-30 50h-158v41h132l-167 274h87l184 -306l184 306h63l-167 -274h133v-41h-158l-30 -50v-37h188z" />
    <glyph glyph-name="florin.st" 
d="M169 -170q-44 0 -71 26t-27 65q0 18 9 36t23 31l37 -18q-10 -15 -14.5 -26.5t-4.5 -19.5q0 -22 12 -34.5t34 -12.5q35 0 54.5 26t29.5 94l41 283h-95l5 41h95l15 100q13 90 52 136.5t102 46.5q45 0 74 -24t29 -61q0 -18 -8.5 -35t-23.5 -31l-37 18q12 18 15.5 27.5
t3.5 16.5q0 20 -13.5 31t-37.5 11q-35 0 -54 -25.5t-29 -94.5l-17 -116h117l-6 -41h-117l-37 -267q-12 -88 -52 -135.5t-104 -47.5z" />
    <glyph glyph-name="Euro.st" 
d="M532 166l40 -21q-24 -74 -74.5 -113.5t-118.5 -39.5q-87 0 -149 59t-82 160h-80v39h75q-1 17 -1.5 26t-0.5 17q0 7 0.5 15.5t1.5 24.5h-75v39h80q19 105 82.5 167.5t151.5 62.5q70 0 120.5 -41t68.5 -109l-48 -23q-17 64 -52 94t-89 30q-65 0 -105 -46.5t-52 -134.5h196
l-9 -39h-191q-1 -6 -1 -13.5v-23.5q0 -8 0.5 -17.5l1.5 -28.5h173l-9 -39h-159q14 -80 54.5 -123.5t101.5 -43.5q57 0 94 30t55 92z" />
    <glyph glyph-name="dollar.st" 
d="M189 454q0 -40 26 -63t91 -38l3 -1v201q-54 -4 -87 -30.5t-33 -68.5zM476 153q0 41 -23.5 64t-87.5 41l-15 4v-220q58 3 92 33t34 78zM350 -8v-95h-41v96q-93 6 -149.5 51t-64.5 121l52 17q14 -68 53 -102t109 -38v231l-28 7q-86 23 -123.5 60t-37.5 98q0 68 53 113.5
t136 50.5v92h41v-93q67 -6 117 -43t67 -91l-48 -30q-14 50 -49 79.5t-87 35.5v-211l30 -9q84 -20 124.5 -59t40.5 -99q0 -77 -55 -127t-140 -55z" />
    <glyph glyph-name="sterling.st" 
d="M586 94q0 -49 -36.5 -82t-90.5 -33q-27 0 -53 8t-54 24q-8 5 -31 21.5t-61 45.5q-20 -43 -49 -64.5t-68 -21.5q-40 0 -64 24t-24 62q0 39 28 64.5t70 25.5q17 0 35 -5t36 -14q2 11 2.5 22t0.5 24q-1 34 -2 48t-2 26h-102v40h99q-2 28 -3.5 53.5t-1.5 47.5q0 88 50.5 140
t136.5 52q69 0 110.5 -33t41.5 -85q0 -30 -17 -55.5t-40 -33.5l-29 27q16 13 24 28t8 33q0 33 -27 53t-70 20q-51 0 -78 -33t-27 -97v-117h141v-40h-143q-1 -44 -6 -81t-14 -67q71 -43 108.5 -55.5t74.5 -12.5q46 0 67 25.5t11 69.5l34 4q6 -10 10.5 -27.5t4.5 -30.5z
M102 77q0 -20 11.5 -31.5t30.5 -11.5q27 0 45.5 18.5t27.5 54.5q-19 10 -34 14.5t-29 4.5q-23 0 -37.5 -13.5t-14.5 -35.5z" />
    <glyph glyph-name="yen.st" 
d="M534 212v-39h-176v-173h-74v173h-176v39h176v36l-29 47h-147v39h123l-158 260h89l173 -290l172 290h61l-158 -260h124v-39h-148l-28 -47v-36h176z" />
    <glyph glyph-name="zero.op" horiz-adv-x="620" 
d="M310 -10q-114 0 -184 89.5t-70 233.5t70 233.5t184 89.5t184 -89.5t70 -233.5t-70 -233.5t-184 -89.5zM310 583q-83 0 -126.5 -70t-43.5 -200t43.5 -200t126.5 -70q82 0 126 70t44 200t-44 200t-126 70z" />
    <glyph glyph-name="one.op" horiz-adv-x="395" 
d="M285 636v-636h-76v491q-14 -25 -64 -64.5t-89 -56.5l-18 46q58 31 116 89.5t104 130.5h27z" />
    <glyph glyph-name="two.op" horiz-adv-x="553" 
d="M344 232q-38 -32 -118 -94t-88 -68h356l-7 -70h-449v32l160 145q52 47 83.5 76t41.5 41q37 40 54 77t17 75q0 62 -35.5 98.5t-97.5 36.5t-100.5 -36.5t-38.5 -95.5q0 -25 10.5 -47t29.5 -36l-37 -35q-29 15 -46.5 47t-17.5 73q0 78 56.5 131.5t143.5 53.5
q96 0 155.5 -52.5t59.5 -136.5q0 -54 -29.5 -103t-102.5 -112z" />
    <glyph glyph-name="three.op" horiz-adv-x="576" 
d="M526 177q0 -81 -68 -134t-173 -53q-98 0 -160.5 46t-62.5 114q0 34 20.5 62t55.5 44l33 -34q-25 -17 -36 -34t-11 -36q0 -47 42 -79.5t108 -32.5q79 0 122 35t43 97q0 69 -46 106.5t-131 37.5h-20v45h20q78 0 116 29t38 91q0 51 -32.5 78.5t-93.5 27.5q-63 0 -100 -27.5
t-37 -73.5q0 -18 9 -31.5t28 -22.5l-28 -40q-33 11 -51.5 37t-18.5 62q0 58 57 101.5t143 43.5q92 0 149 -41t57 -108q0 -59 -47.5 -100.5t-115.5 -45.5v-2q86 -4 138.5 -49.5t52.5 -112.5z" />
    <glyph glyph-name="four.op" horiz-adv-x="620" 
d="M440 214h144v-57h-144v-157h-74v157h-330v44l340 425h64v-412zM110 214h256v324z" />
    <glyph glyph-name="five.op" horiz-adv-x="553" 
d="M134 626h337l-8 -74h-288l-20 -176q23 19 57.5 30.5t71.5 11.5q91 0 150.5 -58t59.5 -148q0 -97 -70.5 -159.5t-183.5 -62.5q-86 0 -145 47t-59 113q0 30 16 55.5t46 42.5l32 -35q-19 -17 -26 -31.5t-7 -32.5q0 -45 42 -77.5t103 -32.5q74 0 121.5 48.5t47.5 128.5
q0 67 -40.5 109.5t-108.5 42.5q-40 0 -72 -13.5t-57 -40.5h-34z" />
    <glyph glyph-name="six.op" horiz-adv-x="587" 
d="M324 429q91 0 149 -60t58 -158q0 -96 -65 -158.5t-164 -62.5q-111 0 -178.5 93t-67.5 241q0 168 81 277t214 109q76 0 125.5 -40t49.5 -100q0 -36 -17.5 -61t-46.5 -33l-26 33q14 11 21 25t7 30q0 45 -29.5 70t-84.5 25q-104 0 -165 -99t-53 -256q18 56 70.5 90.5
t121.5 34.5zM302 375q-69 0 -109.5 -45t-40.5 -121q0 -75 41.5 -121.5t108.5 -46.5q70 0 110.5 45t40.5 123q0 77 -40.5 121.5t-110.5 44.5z" />
    <glyph glyph-name="seven.op" horiz-adv-x="530" 
d="M37 552v74h463v-42l-55 -77q-89 -129 -140 -282.5t-51 -298.5h-72q12 177 60.5 315t148.5 278l24 33h-378z" />
    <glyph glyph-name="eight.op" horiz-adv-x="588" 
d="M493 489q0 -54 -35 -94.5t-97 -59.5q92 -32 131.5 -72.5t39.5 -102.5q0 -72 -68.5 -121t-171.5 -49q-110 0 -175.5 46t-65.5 123q0 56 39 99t112 69q-58 25 -84 61t-26 89q0 68 58 113.5t144 45.5q85 0 142 -42t57 -105zM294 587q-61 0 -95 -26t-34 -74q0 -39 21 -65.5
t65 -42.5l68 -26q65 31 90 62.5t25 73.5q0 45 -37.5 71.5t-102.5 26.5zM456 158q0 39 -28 65t-95 51l-92 33q-76 -37 -102.5 -70t-26.5 -76q0 -56 49 -89t131 -33q72 0 118 32.5t46 86.5z" />
    <glyph glyph-name="nine.op" horiz-adv-x="587" 
d="M263 197q-91 0 -149 60t-58 158q0 96 65 158.5t164 62.5q111 0 178.5 -93t67.5 -241q0 -168 -81 -277t-214 -109q-76 0 -125.5 40t-49.5 100q0 36 17.5 61t46.5 33l26 -33q-14 -11 -21 -25t-7 -30q0 -45 29.5 -70t84.5 -25q104 0 165 99t53 256q-18 -56 -70.5 -90.5
t-121.5 -34.5zM285 251q69 0 109.5 45t40.5 121q0 75 -41.5 121.5t-108.5 46.5q-70 0 -110.5 -45t-40.5 -123q0 -77 40.5 -121.5t110.5 -44.5z" />
    <glyph glyph-name="zero.sc" horiz-adv-x="614" 
d="M307 -10q-107 0 -172.5 85t-65.5 222t65.5 222t172.5 85t172.5 -85t65.5 -222t-65.5 -222t-172.5 -85zM307 559q-75 0 -114.5 -67.5t-39.5 -194.5t39.5 -194.5t114.5 -67.5t114.5 67.5t39.5 194.5t-39.5 194.5t-114.5 67.5z" />
    <glyph glyph-name="one.sc" horiz-adv-x="394" 
d="M277 602v-602h-75v474q-12 -22 -55 -56t-77 -47l-17 42q51 26 103 77t91 112h30z" />
    <glyph glyph-name="two.sc" horiz-adv-x="536" 
d="M333 230q-29 -27 -70 -62.5t-119 -97.5h329l-6 -70h-416v29l166 157q85 83 116.5 140t31.5 114q0 52 -31.5 83t-85.5 31q-55 0 -89.5 -32t-34.5 -84q0 -22 12.5 -45t30.5 -35l-32 -32q-27 12 -46.5 44t-19.5 68q0 69 51.5 117.5t130.5 48.5q88 0 141.5 -45t53.5 -119
q0 -55 -25.5 -103t-87.5 -107z" />
    <glyph glyph-name="three.sc" horiz-adv-x="549" 
d="M485 168q0 -78 -62 -128t-159 -50q-89 0 -145 42t-56 106q0 33 19.5 59.5t52.5 40.5l27 -33q-23 -14 -33 -29.5t-10 -34.5q0 -45 39.5 -75.5t94.5 -30.5q70 0 108.5 34.5t38.5 96.5q0 64 -42 98t-121 34h-15v42h15q72 1 108 29t36 85q0 48 -30 76.5t-83 28.5
q-55 0 -89 -25.5t-34 -67.5q0 -18 8.5 -31t25.5 -21l-22 -37q-32 10 -49 34t-17 58q0 56 51.5 95.5t129.5 39.5q87 0 138 -40t51 -109q0 -53 -44 -91t-105 -41v-2q79 -4 126 -46.5t47 -106.5z" />
    <glyph glyph-name="four.sc" horiz-adv-x="593" 
d="M409 213h133v-50h-133v-163h-72v163h-286v38l286 393h72v-381zM118 213h219v302z" />
    <glyph glyph-name="five.sc" horiz-adv-x="536" 
d="M148 594h306l-8 -75h-259l-23 -171q20 17 49.5 26.5t64.5 9.5q85 0 137.5 -49.5t52.5 -132.5q0 -94 -63.5 -153t-166.5 -59q-82 0 -134.5 39.5t-52.5 100.5q0 29 15 52t44 40l29 -34q-19 -17 -25.5 -29t-6.5 -27q0 -44 36 -70.5t94 -26.5q67 0 107.5 45.5t40.5 123.5
q0 61 -35 96.5t-96 35.5q-35 0 -63 -12t-50 -37h-31z" />
    <glyph glyph-name="six.sc" horiz-adv-x="566" 
d="M314 365q81 0 133.5 -51t52.5 -134t-59 -136.5t-149 -53.5q-101 0 -162 79t-61 205q0 143 74 236.5t193 93.5q70 0 114 -34t44 -86q0 -30 -15 -51t-40 -28l-26 28q13 10 19 21.5t6 24.5q0 37 -26.5 57.5t-75.5 20.5q-91 0 -144.5 -83t-47.5 -212q17 46 63 74.5t107 28.5z
M291 315q-61 0 -96.5 -37.5t-35.5 -101.5q0 -63 36.5 -102t95.5 -39q62 0 97.5 37.5t35.5 103.5q0 64 -35.5 101.5t-97.5 37.5z" />
    <glyph glyph-name="seven.sc" horiz-adv-x="506" 
d="M65 519v75h407v-39l-51 -76q-78 -112 -120.5 -236t-42.5 -243h-70q11 143 53.5 255t129.5 231l22 33h-328z" />
    <glyph glyph-name="eight.sc" horiz-adv-x="558" 
d="M460 465q0 -48 -31.5 -85t-87.5 -56q81 -30 117 -70t36 -99q0 -71 -60.5 -118t-153.5 -47q-98 0 -156.5 43t-58.5 115q0 51 35.5 91t100.5 64q-50 23 -75.5 59.5t-25.5 86.5q0 67 51.5 111t129.5 44q77 0 128 -39.5t51 -99.5zM282 560q-52 0 -82.5 -25.5t-30.5 -69.5
q0 -36 19.5 -61.5t59.5 -42.5l58 -22q51 25 74.5 55.5t23.5 70.5q0 43 -33.5 69t-88.5 26zM422 146q0 37 -25.5 63t-82.5 47l-81 31q-59 -29 -85 -61.5t-26 -74.5q0 -53 43.5 -85t114.5 -32q61 0 101.5 31t40.5 81z" />
    <glyph glyph-name="nine.sc" horiz-adv-x="566" 
d="M252 229q-81 0 -133.5 51t-52.5 134t59 136.5t149 53.5q101 0 162 -79t61 -205q0 -143 -74 -236.5t-193 -93.5q-70 0 -114 34t-44 86q0 30 15 51t40 28l26 -28q-13 -10 -19 -21.5t-6 -24.5q0 -37 26.5 -57.5t75.5 -20.5q91 0 144.5 83t47.5 212q-17 -46 -63 -74.5
t-107 -28.5zM275 279q61 0 96.5 37.5t35.5 101.5q0 63 -36.5 102t-95.5 39q-62 0 -97.5 -37.5t-35.5 -103.5q0 -64 35.5 -101.5t97.5 -37.5z" />
    <glyph glyph-name="zero.lt" 
d="M320 -10q-120 0 -193 99.5t-73 260.5t73 260.5t193 99.5t193 -99.5t73 -260.5t-73 -260.5t-193 -99.5zM320 658q-88 0 -134 -79.5t-46 -228.5t46 -228.5t134 -79.5q87 0 133 80t46 228t-46 228t-133 80z" />
    <glyph glyph-name="one.lt" 
d="M583 51v-51h-468v51h199v516q-30 -32 -85.5 -67t-105.5 -56l-18 46q86 38 151.5 93.5t108.5 126.5h27v-659h191z" />
    <glyph glyph-name="two.lt" 
d="M399 268q-31 -31 -76 -72.5t-142 -125.5h384l-7 -70h-480v32l195 187q99 95 136.5 163t37.5 136q0 63 -37.5 100t-102.5 37q-69 0 -109.5 -35.5t-40.5 -96.5q0 -25 15 -52t34 -42l-34 -34q-31 15 -53 52t-22 78q0 78 59 131.5t151 53.5q100 0 162 -52.5t62 -136.5
q0 -66 -29.5 -122.5t-102.5 -130.5z" />
    <glyph glyph-name="three.lt" 
d="M559 198q0 -90 -70.5 -149t-178.5 -59q-102 0 -165.5 49t-63.5 123q0 37 20 65.5t58 48.5l30 -35q-26 -18 -36.5 -36t-10.5 -40q0 -54 46 -90t111 -36q82 0 127 40.5t45 113.5q0 76 -50.5 118t-142.5 42h-17v48h17q85 1 127.5 35t42.5 101q0 57 -35 90.5t-97 33.5
q-65 0 -104.5 -30.5t-39.5 -82.5q0 -20 9 -35t28 -25l-24 -40q-35 12 -54 39.5t-19 65.5q0 64 58.5 110.5t147.5 46.5q99 0 156 -46t57 -127q0 -62 -50 -107t-119 -49v-2q89 -5 143 -55.5t54 -125.5z" />
    <glyph glyph-name="four.lt" 
d="M445 252h154v-57h-154v-195h-74v195h-330v44l330 461h74v-448zM115 252h256v361z" />
    <glyph glyph-name="five.lt" 
d="M194 700h347l-9 -76h-295l-27 -215q24 21 57.5 32.5t72.5 11.5q97 0 156.5 -59t59.5 -157q0 -109 -72.5 -178t-188.5 -69q-92 0 -151.5 46.5t-59.5 117.5q0 33 16 59.5t49 46.5l32 -37q-21 -19 -28.5 -33.5t-7.5 -32.5q0 -54 42 -86t110 -32q79 0 126 54t47 148
q0 73 -40.5 116t-112.5 43q-41 0 -73.5 -15t-58.5 -45h-35z" />
    <glyph glyph-name="six.lt" 
d="M351 429q94 0 153.5 -60t59.5 -158q0 -95 -67 -158t-168 -63q-114 0 -183.5 93t-69.5 241q0 168 83.5 277t219.5 109q78 0 128.5 -40t50.5 -100q0 -36 -18 -61t-47 -33l-26 33q14 12 21.5 25.5t7.5 29.5q0 45 -31 70t-87 25q-107 0 -170 -99t-55 -256q19 56 73 90.5
t125 34.5zM328 375q-71 0 -113.5 -45t-42.5 -121q0 -75 43.5 -121.5t112.5 -46.5q73 0 115.5 45.5t42.5 122.5q0 76 -42.5 121t-115.5 45z" />
    <glyph glyph-name="seven.lt" 
d="M79 624v76h483v-44l-55 -77q-91 -131 -142 -283t-51 -296h-72q12 175 60.5 312t150.5 279l24 33h-398z" />
    <glyph glyph-name="eight.lt" 
d="M524 546q0 -59 -37 -103t-102 -66q97 -37 137.5 -82.5t40.5 -115.5q0 -80 -69 -134.5t-173 -54.5q-111 0 -177.5 51t-66.5 137q0 60 40 107t117 77q-59 28 -87.5 70t-28.5 100q0 76 58.5 127t146.5 51q86 0 143.5 -46.5t57.5 -117.5zM323 661q-60 0 -95.5 -31.5
t-35.5 -85.5q0 -44 22 -75t65 -48l69 -29q63 33 89.5 69.5t26.5 84.5q0 52 -38.5 83.5t-102.5 31.5zM487 177q0 44 -29 74.5t-96 56.5l-93 37q-74 -39 -102 -77t-28 -88q0 -64 50 -102.5t132 -38.5q71 0 118.5 38.5t47.5 99.5z" />
    <glyph glyph-name="nine.lt" 
d="M289 271q-94 0 -153.5 60t-59.5 158q0 95 67 158t168 63q114 0 183.5 -93t69.5 -241q0 -168 -83.5 -277t-219.5 -109q-78 0 -128.5 40t-50.5 100q0 36 18 61t47 33l26 -33q-14 -12 -21.5 -25.5t-7.5 -29.5q0 -45 31 -70t87 -25q107 0 170 99t55 256q-19 -56 -73 -90.5
t-125 -34.5zM312 325q71 0 113.5 45t42.5 121q0 75 -43.5 121.5t-112.5 46.5q-73 0 -115.5 -45.5t-42.5 -122.5q0 -76 42.5 -121t115.5 -45z" />
    <glyph glyph-name="zero.ot" 
d="M66 313q0 144 70 233.5t184 89.5t184 -89.5t70 -233.5t-70 -233.5t-184 -89.5t-184 89.5t-70 233.5zM150 313q0 -130 43.5 -200t126.5 -70q82 0 126 70t44 200t-44 200t-126 70q-83 0 -126.5 -70t-43.5 -200z" />
    <glyph glyph-name="one.ot" 
d="M575 51v-51h-468v51h199v442q-30 -32 -85.5 -67t-105.5 -56l-18 46q86 38 151.5 93.5t108.5 126.5h27v-585h191z" />
    <glyph glyph-name="two.ot" 
d="M398 232q-38 -32 -118 -94t-88 -68h356l-7 -70h-449v32l160 145q52 47 83.5 76t41.5 41q37 40 54 77t17 75q0 62 -35.5 98.5t-97.5 36.5t-100.5 -36.5t-38.5 -95.5q0 -25 10.5 -47t29.5 -36l-37 -35q-29 15 -46.5 47t-17.5 73q0 78 56.5 131.5t143.5 53.5
q96 0 155.5 -52.5t59.5 -136.5q0 -54 -29.5 -103t-102.5 -112z" />
    <glyph glyph-name="three.ot" 
d="M552 177q0 -81 -68 -134t-173 -53q-98 0 -160.5 46t-62.5 114q0 34 20.5 62t55.5 44l33 -34q-25 -17 -36 -34t-11 -36q0 -47 42 -79.5t108 -32.5q79 0 122 35t43 97q0 69 -46 106.5t-131 37.5h-20v45h20q78 0 116 29t38 91q0 51 -32.5 79t-93.5 28q-63 0 -100 -27.5
t-37 -74.5q0 -18 9 -31.5t28 -22.5l-28 -40q-33 11 -51.5 37t-18.5 62q0 59 57 102.5t143 43.5q92 0 149 -41.5t57 -108.5q0 -59 -47.5 -100.5t-115.5 -45.5v-2q86 -4 138.5 -49.5t52.5 -112.5z" />
    <glyph glyph-name="four.ot" 
d="M454 214h144v-57h-144v-157h-74v157h-330v44l340 425h64v-412zM124 214h256v324z" />
    <glyph glyph-name="five.ot" 
d="M189 626h337l-8 -74h-288l-20 -176q23 19 57.5 30.5t71.5 11.5q91 0 150.5 -58t59.5 -148q0 -97 -70.5 -159.5t-183.5 -62.5q-86 0 -145 47t-59 113q0 30 16 55.5t46 42.5l32 -35q-19 -17 -26 -31.5t-7 -32.5q0 -45 42 -77.5t103 -32.5q74 0 121.5 48.5t47.5 128.5
q0 67 -40.5 109.5t-108.5 42.5q-40 0 -72 -13.5t-57 -40.5h-34z" />
    <glyph glyph-name="six.ot" 
d="M351 429q91 0 149 -60t58 -158q0 -96 -65 -158.5t-164 -62.5q-111 0 -178.5 93t-67.5 241q0 168 81 277t214 109q76 0 125.5 -40t49.5 -100q0 -36 -17.5 -61t-46.5 -33l-26 33q14 11 21 25t7 30q0 45 -29.5 70t-84.5 25q-104 0 -165 -99t-53 -256q18 56 70.5 90.5
t121.5 34.5zM329 375q-69 0 -109.5 -45t-40.5 -121q0 -75 41.5 -121.5t108.5 -46.5q70 0 110.5 45t40.5 123q0 77 -40.5 121.5t-110.5 44.5z" />
    <glyph glyph-name="seven.ot" 
d="M89 552v74h463v-42l-55 -77q-89 -129 -140 -282.5t-51 -298.5h-72q12 177 60.5 315t148.5 278l24 33h-378z" />
    <glyph glyph-name="eight.ot" 
d="M522 489q0 -54 -35 -94.5t-97 -59.5q92 -32 131.5 -72.5t39.5 -102.5q0 -72 -68.5 -121t-171.5 -49q-110 0 -175.5 46t-65.5 123q0 56 39 99t112 69q-58 25 -84 61t-26 89q0 68 58 113.5t144 45.5q85 0 142 -42t57 -105zM323 587q-61 0 -95 -26t-34 -74q0 -39 21 -65.5
t65 -42.5l68 -26q65 31 90 62.5t25 73.5q0 45 -37.5 71.5t-102.5 26.5zM485 158q0 39 -28 65t-95 51l-92 33q-76 -37 -102.5 -70t-26.5 -76q0 -56 49 -89t131 -33q72 0 118 32.5t46 86.5z" />
    <glyph glyph-name="nine.ot" 
d="M290 197q-91 0 -149 60t-58 158q0 96 65 158.5t164 62.5q111 0 178.5 -93t67.5 -241q0 -168 -81 -277t-214 -109q-76 0 -125.5 40t-49.5 100q0 36 17.5 61t46.5 33l26 -33q-14 -11 -21 -25t-7 -30q0 -45 29.5 -70t84.5 -25q104 0 165 99t53 256q-18 -56 -70.5 -90.5
t-121.5 -34.5zM312 251q69 0 109.5 45t40.5 121q0 75 -41.5 121.5t-108.5 46.5q-70 0 -110.5 -45t-40.5 -123q0 -77 40.5 -121.5t110.5 -44.5z" />
    <glyph glyph-name="zero.st" 
d="M320 -10q-107 0 -172.5 85t-65.5 222t65.5 222t172.5 85t172.5 -85t65.5 -222t-65.5 -222t-172.5 -85zM320 559q-75 0 -114.5 -67.5t-39.5 -194.5t39.5 -194.5t114.5 -67.5t114.5 67.5t39.5 194.5t-39.5 194.5t-114.5 67.5z" />
    <glyph glyph-name="one.st" 
d="M583 51v-51h-468v51h199v410q-30 -32 -85.5 -67t-105.5 -56l-18 46q86 38 151.5 93.5t108.5 126.5h24v-553h194z" />
    <glyph glyph-name="two.st" 
d="M391 230q-29 -27 -70 -62.5t-119 -97.5h329l-6 -70h-416v29l166 157q85 83 116.5 140t31.5 114q0 52 -31.5 83t-85.5 31q-56 0 -90.5 -32t-34.5 -84q0 -22 12.5 -45t30.5 -35l-32 -32q-27 12 -46.5 44t-19.5 68q0 69 52 117.5t131 48.5q88 0 141.5 -45t53.5 -119
q0 -55 -25.5 -103t-87.5 -107z" />
    <glyph glyph-name="three.st" 
d="M531 168q0 -78 -62 -128t-159 -50q-89 0 -145 42t-56 106q0 33 19.5 59.5t52.5 40.5l27 -33q-23 -14 -33 -29.5t-10 -34.5q0 -45 39.5 -75.5t94.5 -30.5q70 0 108.5 34.5t38.5 96.5q0 64 -42 98t-121 34h-15v42h15q72 1 108 29t36 85q0 48 -30 76.5t-83 28.5
q-55 0 -89 -25.5t-34 -67.5q0 -18 8.5 -31t25.5 -21l-22 -37q-32 10 -49 34t-17 58q0 56 51.5 95.5t129.5 39.5q87 0 138 -40t51 -109q0 -53 -44 -91t-105 -41v-2q79 -4 126 -46.5t47 -106.5z" />
    <glyph glyph-name="four.st" 
d="M433 213h133v-50h-133v-163h-72v163h-286v38l286 393h72v-381zM142 213h219v302z" />
    <glyph glyph-name="five.st" 
d="M209 594h306l-8 -75h-259l-23 -171q20 17 49.5 26.5t64.5 9.5q85 0 137.5 -49.5t52.5 -132.5q0 -94 -63.5 -153t-166.5 -59q-82 0 -134.5 39.5t-52.5 100.5q0 29 15 52t44 40l29 -34q-19 -17 -25.5 -29t-6.5 -27q0 -44 36 -70.5t94 -26.5q67 0 107.5 45.5t40.5 123.5
q0 61 -35 96.5t-96 35.5q-35 0 -63 -12t-50 -37h-31z" />
    <glyph glyph-name="six.st" 
d="M350 365q81 0 133.5 -51t52.5 -134t-59 -136.5t-149 -53.5q-101 0 -162 79t-61 205q0 143 74 236.5t193 93.5q70 0 114 -34t44 -86q0 -30 -15 -51t-40 -28l-26 28q13 10 19 21.5t6 24.5q0 37 -26.5 57.5t-75.5 20.5q-91 0 -144.5 -83t-47.5 -212q17 46 63 74.5t107 28.5z
M327 315q-61 0 -96.5 -37.5t-35.5 -101.5q0 -63 36.5 -102t95.5 -39q62 0 97.5 37.5t35.5 103.5q0 64 -35.5 101.5t-97.5 37.5z" />
    <glyph glyph-name="seven.st" 
d="M117 519v75h407v-39l-51 -76q-78 -112 -120.5 -236t-42.5 -243h-70q11 143 53.5 255t129.5 231l22 33h-328z" />
    <glyph glyph-name="eight.st" 
d="M501 465q0 -48 -31.5 -85t-87.5 -56q81 -30 117 -70t36 -99q0 -71 -60.5 -118t-153.5 -47q-98 0 -156.5 43t-58.5 115q0 51 35.5 91t100.5 64q-50 23 -75.5 59.5t-25.5 86.5q0 67 51.5 111t129.5 44q77 0 128 -39.5t51 -99.5zM323 560q-52 0 -82.5 -25.5t-30.5 -69.5
q0 -36 19.5 -61.5t59.5 -42.5l58 -22q51 25 74.5 55.5t23.5 70.5q0 43 -33.5 69t-88.5 26zM463 146q0 37 -25.5 63t-82.5 47l-81 31q-59 -29 -85 -61.5t-26 -74.5q0 -53 43.5 -85t114.5 -32q61 0 101.5 31t40.5 81z" />
    <glyph glyph-name="nine.st" horiz-adv-x="639" 
d="M290 229q-81 0 -133.5 51t-52.5 134t59 136.5t149 53.5q101 0 162 -79t61 -205q0 -143 -74 -236.5t-193 -93.5q-70 0 -114 34t-44 86q0 30 15 51t40 28l26 -28q-13 -10 -19 -21.5t-6 -24.5q0 -37 26.5 -57.5t75.5 -20.5q91 0 144.5 83t47.5 212q-17 -46 -63 -74.5
t-107 -28.5zM313 279q61 0 96.5 37.5t35.5 101.5q0 63 -36.5 102t-95.5 39q-62 0 -97.5 -37.5t-35.5 -103.5q0 -64 35.5 -101.5t97.5 -37.5z" />
    <glyph glyph-name="zero.dnom" horiz-adv-x="416" 
d="M208 -6q-73 0 -117.5 56.5t-44.5 148.5t44.5 148.5t117.5 56.5t117.5 -56.5t44.5 -148.5t-44.5 -148.5t-117.5 -56.5zM208 367q-45 0 -67 -42t-22 -126t22 -126t67 -42q44 0 66 42t22 126t-22 126t-66 42z" />
    <glyph glyph-name="one.dnom" horiz-adv-x="284" 
d="M202 403v-403h-64v309q-9 -15 -38 -38.5t-51 -32.5l-13 36q33 18 70.5 55t60.5 74h35z" />
    <glyph glyph-name="two.dnom" horiz-adv-x="367" 
d="M305 290q0 -51 -36.5 -96t-161.5 -136h213l-5 -58h-283v21l107 104q56 55 76 92t20 76q0 33 -19.5 53t-52.5 20t-52 -18t-19 -51q0 -15 8.5 -29t22.5 -24l-28 -25q-20 7 -34 29.5t-14 47.5q0 47 34.5 77.5t90.5 30.5q59 0 96 -31t37 -83z" />
    <glyph glyph-name="three.dnom" horiz-adv-x="376" 
d="M331 113q0 -53 -43 -86t-110 -33q-59 0 -96.5 28t-37.5 72q0 24 15 42.5t38 26.5l24 -25q-16 -8 -23 -18.5t-7 -24.5q0 -28 21.5 -45.5t56.5 -17.5q44 0 67 21t23 61q0 42 -25 63.5t-73 21.5h-9v29h9q44 1 65.5 19.5t21.5 55.5q0 30 -19 47t-53 17q-32 0 -50.5 -14
t-18.5 -40q0 -12 6 -21t18 -15l-20 -27q-23 7 -36 23.5t-13 40.5q0 38 35 64t87 26q60 0 95.5 -26.5t35.5 -72.5q0 -37 -28.5 -62t-71.5 -27v-2q52 -3 84 -31t32 -70z" />
    <glyph glyph-name="four.dnom" horiz-adv-x="402" 
d="M282 142h84v-36h-84v-106h-63v106h-185v27l183 265h65v-256zM83 142h136v198z" />
    <glyph glyph-name="five.dnom" horiz-adv-x="369" 
d="M103 398h207l-7 -61h-173l-13 -100q15 11 34.5 17t40.5 6q57 0 93 -34t36 -90q0 -64 -43.5 -103t-113.5 -39q-56 0 -91.5 26.5t-35.5 69.5q0 21 11 37t31 26l26 -24q-13 -11 -17.5 -19.5t-4.5 -19.5q0 -27 20 -43t54 -16q43 0 67.5 28t24.5 77q0 39 -21.5 62t-58.5 23
q-21 0 -38 -7t-32 -23h-22z" />
    <glyph glyph-name="six.dnom" horiz-adv-x="386" 
d="M218 248q53 0 88 -34t35 -89q0 -57 -40.5 -94t-102.5 -37q-68 0 -110 53.5t-42 138.5q0 94 50.5 156t131.5 62q49 0 79 -23t30 -59q0 -20 -9.5 -34t-25.5 -19l-27 19q7 6 11 13.5t4 16.5q0 24 -15.5 36.5t-45.5 12.5q-55 0 -87 -51t-30 -133q10 30 39 47.5t67 17.5z
M197 208q-37 0 -57 -23t-20 -65t20.5 -66.5t56.5 -24.5q37 0 57.5 23.5t20.5 67.5q0 42 -20.5 65t-57.5 23z" />
    <glyph glyph-name="seven.dnom" horiz-adv-x="344" 
d="M44 337v61h275v-28l-40 -61q-46 -72 -70.5 -151t-24.5 -158h-62q10 89 37 161t81 150l18 26h-214z" />
    <glyph glyph-name="eight.dnom" horiz-adv-x="382" 
d="M314 310q0 -29 -18.5 -52t-53.5 -37q50 -19 73 -45.5t23 -65.5q0 -51 -42 -83.5t-106 -32.5q-66 0 -105.5 29t-39.5 77q0 33 22.5 58.5t64.5 40.5q-33 16 -49.5 40t-16.5 56q0 48 35.5 78.5t89.5 30.5q53 0 88 -26.5t35 -67.5zM191 368q-31 0 -50 -15t-19 -41
q0 -22 13 -37.5t44 -27.5l34 -14q29 16 42.5 34t13.5 42q0 27 -21.5 43t-56.5 16zM277 96q0 24 -15.5 40t-51.5 30l-53 20q-36 -17 -51.5 -37.5t-15.5 -46.5q0 -33 27.5 -52.5t72.5 -19.5q38 0 62.5 18t24.5 48z" />
    <glyph glyph-name="nine.dnom" horiz-adv-x="386" 
d="M189 190q37 0 57 23t20 65t-20.5 66.5t-56.5 24.5q-37 0 -57.5 -23.5t-20.5 -67.5q0 -42 20.5 -65t57.5 -23zM168 150q-53 0 -88 34t-35 89q0 57 40.5 94t102.5 37q68 0 110 -53.5t42 -138.5q0 -94 -50.5 -156t-131.5 -62q-49 0 -79 23t-30 59q0 20 9.5 34t25.5 19
l27 -19q-7 -6 -11 -13.5t-4 -16.5q0 -24 15.5 -36.5t45.5 -12.5q55 0 87 51t30 133q-10 -30 -39 -47.5t-67 -17.5z" />
    <glyph glyph-name="percent.op" horiz-adv-x="856" 
d="M673 636l-434 -646h-55l434 646h55zM209 294q-63 0 -106 49t-43 121t43 121t106 49t106 -49t43 -121q0 -73 -42.5 -121.5t-106.5 -48.5zM209 346q41 0 66.5 32.5t25.5 85.5q0 52 -25.5 85t-66.5 33t-66 -33t-25 -85q0 -53 25 -85.5t66 -32.5zM647 -10q-63 0 -106 49
t-43 121t43 121t106 49t106 -49t43 -121q0 -73 -42.5 -121.5t-106.5 -48.5zM647 42q41 0 66.5 32.5t25.5 85.5q0 52 -25.5 85t-66.5 33t-66 -33t-25 -85q0 -53 25 -85.5t66 -32.5z" />
    <glyph glyph-name="perthousand.op" horiz-adv-x="1223" 
d="M673 636l-434 -646h-55l434 646h55zM209 294q-63 0 -106 49t-43 121t43 121t106 49t106 -49t43 -121q0 -73 -42.5 -121.5t-106.5 -48.5zM209 346q41 0 66.5 32.5t25.5 85.5q0 52 -25.5 85t-66.5 33t-66 -33t-25 -85q0 -53 25 -85.5t66 -32.5zM647 -10q-63 0 -106 49
t-43 121t43 121t106 49t106 -49t43 -121q0 -73 -42.5 -121.5t-106.5 -48.5zM1014 -10q-63 0 -106 49t-43 121t43 121t106 49t106 -49t43 -121q0 -73 -42.5 -121.5t-106.5 -48.5zM647 42q41 0 66.5 32.5t25.5 85.5q0 52 -25.5 85t-66.5 33t-66 -33t-25 -85q0 -53 25 -85.5
t66 -32.5zM1014 42q41 0 66.5 32.5t25.5 85.5q0 52 -25.5 85t-66.5 33t-66 -33t-25 -85q0 -53 25 -85.5t66 -32.5z" />
    <glyph glyph-name="percent.lt" horiz-adv-x="900" 
d="M204 -10l434 720h55l-434 -720h-55zM244 370q-63 0 -106 49t-43 121t43 121t106 49t106 -49t43 -121q0 -73 -42.5 -121.5t-106.5 -48.5zM244 658q-41 0 -66 -33t-25 -85q0 -53 25 -85.5t66 -32.5t66.5 32.5t25.5 85.5q0 52 -25.5 85t-66.5 33zM652 -10q-63 0 -106 49
t-43 121t43 121t106 49t106 -49t43 -121q0 -73 -42.5 -121.5t-106.5 -48.5zM652 42q41 0 66.5 32.5t25.5 85.5q0 52 -25.5 85t-66.5 33t-66 -33t-25 -85q0 -53 25 -85.5t66 -32.5z" />
    <glyph glyph-name="perthousand.lt" horiz-adv-x="1300" 
d="M262 370q-63 0 -106 49t-43 121t43 121t106 49t106 -49t43 -121q0 -73 -42.5 -121.5t-106.5 -48.5zM222 -10l434 720h55l-434 -720h-55zM262 658q-41 0 -66 -33t-25 -85q0 -53 25 -85.5t66 -32.5t66.5 32.5t25.5 85.5q0 52 -25.5 85t-66.5 33zM670 -10q-63 0 -106 49
t-43 121t43 121t106 49t106 -49t43 -121q0 -73 -42.5 -121.5t-106.5 -48.5zM1037 -10q-63 0 -106 49t-43 121t43 121t106 49t106 -49t43 -121q0 -73 -42.5 -121.5t-106.5 -48.5zM1037 42q41 0 66.5 32.5t25.5 85.5q0 52 -25.5 85t-66.5 33t-66 -33t-25 -85q0 -53 25 -85.5
t66 -32.5zM670 42q41 0 66.5 32.5t25.5 85.5q0 52 -25.5 85t-66.5 33t-66 -33t-25 -85q0 -53 25 -85.5t66 -32.5z" />
    <glyph glyph-name="percent.ot" horiz-adv-x="900" 
d="M695 636l-434 -646h-55l434 646h55zM231 294q-63 0 -106 49t-43 121t43 121t106 49t106 -49t43 -121q0 -73 -42.5 -121.5t-106.5 -48.5zM231 346q41 0 66.5 32.5t25.5 85.5q0 52 -25.5 85t-66.5 33t-66 -33t-25 -85q0 -53 25 -85.5t66 -32.5zM669 -10q-63 0 -106 49
t-43 121t43 121t106 49t106 -49t43 -121q0 -73 -42.5 -121.5t-106.5 -48.5zM669 42q41 0 66.5 32.5t25.5 85.5q0 52 -25.5 85t-66.5 33t-66 -33t-25 -85q0 -53 25 -85.5t66 -32.5z" />
    <glyph glyph-name="perthousand.ot" horiz-adv-x="1300" 
d="M711 636l-434 -646h-55l434 646h55zM247 294q-63 0 -106 49t-43 121t43 121t106 49t106 -49t43 -121q0 -73 -42.5 -121.5t-106.5 -48.5zM247 346q41 0 66.5 32.5t25.5 85.5q0 52 -25.5 85t-66.5 33t-66 -33t-25 -85q0 -53 25 -85.5t66 -32.5zM1052 -10q-63 0 -106 49
t-43 121t43 121t106 49t106 -49t43 -121q0 -73 -42.5 -121.5t-106.5 -48.5zM685 -10q-63 0 -106 49t-43 121t43 121t106 49t106 -49t43 -121q0 -73 -42.5 -121.5t-106.5 -48.5zM1052 42q41 0 66.5 32.5t25.5 85.5q0 52 -25.5 85t-66.5 33t-66 -33t-25 -85q0 -53 25 -85.5
t66 -32.5zM685 42q41 0 66.5 32.5t25.5 85.5q0 52 -25.5 85t-66.5 33t-66 -33t-25 -85q0 -53 25 -85.5t66 -32.5z" />
    <glyph glyph-name="plus.op" horiz-adv-x="633" 
d="M545 337v-55h-201v-201h-54v201h-201v55h201v200h54v-200h201z" />
    <glyph glyph-name="minus.op" horiz-adv-x="633" 
d="M545 283h-456v55h456v-55z" />
    <glyph glyph-name="multiply.op" horiz-adv-x="549" 
d="M94 160l145 146l-145 145l38 40l144 -147l144 147l39 -40l-147 -145l147 -146l-39 -39l-144 147l-144 -147z" />
    <glyph glyph-name="divide.op" horiz-adv-x="633" 
d="M367 442h-98v99h98v-99zM545 282h-456v55h456v-55zM367 77h-98v99h98v-99z" />
    <glyph glyph-name="equal.op" horiz-adv-x="653" 
d="M555 351h-457v54h457v-54zM555 212h-457v54h457v-54z" />
    <glyph glyph-name="less.op" horiz-adv-x="507" 
d="M429 84l-347 190v68l347 189v-65l-294 -159l294 -157v-66z" />
    <glyph glyph-name="greater.op" horiz-adv-x="507" 
d="M77 531l348 -189v-68l-348 -190v66l295 157l-295 159v65z" />
    <glyph glyph-name="plusminus.op" horiz-adv-x="639" 
d="M549 401v-54h-202v-173h-54v173h-202v54h202v171h54v-171h202zM549 70h-458v56h458v-56z" />
    <glyph glyph-name="lessequal.op" horiz-adv-x="530" 
d="M442 175l-349 162v61l349 161v-59l-286 -132l286 -133v-60zM442 70h-349v56h349v-56z" />
    <glyph glyph-name="greaterequal.op" horiz-adv-x="530" 
d="M89 559l348 -161v-61l-348 -162v60l285 133l-285 132v59zM89 126h348v-56h-348v56z" />
    <glyph glyph-name="notequal.op" horiz-adv-x="653" 
d="M555 262v-51h-274l-85 -111h-59l85 111h-124v51h163l70 92h-233v50h272l87 114h59l-87 -114h126v-50h-165l-70 -92h235z" />
    </font>
</defs>
</svg>
