<svg width="1024" height="1024" viewBox="0 0 1024 1024" fill="none" xmlns="http://www.w3.org/2000/svg">
<g clip-path="url(#clip0_394_310)">
<path d="M798.773 580.688C787.441 535.396 754.886 498.584 716.319 472.921C701.506 462.026 685.91 452.271 669.84 443.267C648.54 430.046 625.936 417.875 598.947 405.374L601.938 403.483C699.926 344.985 759.087 277.438 759.087 180.942C759.087 129.677 734.445 86.2613 685.144 51.8798C636.441 17.5134 576.666 0.0150146 505.805 0.0150146C411.512 0.0150146 327.708 38.0132 278.407 110.393C253.764 145.975 241.435 186.989 241.435 232.821C241.435 285.887 255.604 329.318 283.958 363.084C312.925 396.25 357.334 427.224 409.702 452.557L405.976 454.763C398.14 458.755 390.549 462.836 383.143 466.963C338.764 490.495 297.008 519.384 264.805 557.847C214.277 616.69 202.608 706.688 243.996 773.5C336.111 917.164 577.065 930.595 704.45 825.785C777.535 768.833 822.542 671.601 798.789 580.703L798.773 580.688ZM714.095 702.621C714.095 809.367 614.88 882.347 502.109 882.347C389.338 882.347 304.292 808.167 304.292 687.554C304.292 586.841 330.79 501.195 411.527 453.547C484.858 486.713 564.352 516.262 634.003 564.51C680.835 595.275 714.111 642.908 714.111 702.621H714.095ZM351.737 281.069C327.095 257.553 307.988 221.371 307.988 173.123C307.988 124.875 326.481 86.2763 362.84 52.5101C399.812 18.714 442.319 1.83088 489.78 1.83088C548.328 1.83088 595.773 21.1301 632.745 60.3289C669.717 98.3271 688.211 140.542 688.211 194.823C688.211 287.703 684.515 351.018 597.613 404.098L468.204 346.201C429.377 328.102 385.627 313.035 351.737 281.069Z" fill="#D8B886"/>
<path d="M269.605 1022.54H252.261L230.287 992.83C228.661 992.89 227.327 992.92 226.315 992.92C225.901 992.92 225.456 992.92 224.981 992.89C224.506 992.875 224.015 992.845 223.494 992.815V1011.29C223.494 1015.3 223.938 1017.77 224.828 1018.75C226.039 1020.13 227.864 1020.8 230.287 1020.8H232.832V1022.54H205V1020.8H207.438C210.183 1020.8 212.146 1019.93 213.327 1018.18C214.001 1017.2 214.339 1014.91 214.339 1011.29V970.229C214.339 966.237 213.894 963.746 213.005 962.771C211.763 961.39 209.907 960.715 207.454 960.715H205V958.974H228.661C235.562 958.974 240.638 959.469 243.919 960.445C247.186 961.435 249.977 963.236 252.246 965.877C254.531 968.518 255.666 971.67 255.666 975.317C255.666 979.219 254.362 982.61 251.755 985.492C249.149 988.373 245.115 990.399 239.656 991.585L253.059 1009.82C256.126 1014.01 258.763 1016.78 260.956 1018.16C263.164 1019.54 266.032 1020.41 269.574 1020.79V1022.53L269.605 1022.54ZM223.494 989.874C224.107 989.874 224.628 989.874 225.073 989.904C225.518 989.919 225.886 989.934 226.177 989.934C232.372 989.934 237.034 988.628 240.193 986.002C243.337 983.376 244.916 980.029 244.916 975.977C244.916 971.925 243.643 968.789 241.113 966.297C238.568 963.806 235.209 962.576 231.038 962.576C229.183 962.576 226.683 962.876 223.524 963.461V989.889L223.494 989.874Z" fill="#D8B886"/>
<path d="M299.048 962.456V987.578H313.324C317.02 987.578 319.504 987.037 320.746 985.942C322.402 984.501 323.338 981.98 323.522 978.348H325.301V1000.47H323.522C323.077 997.377 322.632 995.396 322.188 994.511C321.62 993.415 320.669 992.56 319.366 991.93C318.063 991.299 316.038 990.999 313.324 990.999H299.048V1011.95C299.048 1014.76 299.17 1016.47 299.431 1017.08C299.692 1017.7 300.136 1018.18 300.765 1018.54C301.409 1018.9 302.621 1019.08 304.399 1019.08H315.41C319.075 1019.08 321.743 1018.82 323.414 1018.33C325.07 1017.83 326.665 1016.84 328.199 1015.37C330.177 1013.44 332.201 1010.51 334.287 1006.61H336.203L330.606 1022.54H280.554V1020.8H282.854C284.388 1020.8 285.844 1020.44 287.209 1019.72C288.237 1019.23 288.927 1018.48 289.295 1017.47C289.663 1016.47 289.847 1014.43 289.847 1011.33V970.049C289.847 966.012 289.433 963.536 288.605 962.591C287.455 961.345 285.538 960.715 282.854 960.715H280.554V958.974H330.606L331.327 972.901H329.456C328.781 969.554 328.045 967.258 327.233 966.012C326.42 964.767 325.209 963.806 323.614 963.146C322.341 962.681 320.087 962.441 316.866 962.441H299.048V962.456Z" fill="#D8B886"/>
<path d="M393.248 957.533V979.519H391.47C390.887 975.302 389.86 971.94 388.387 969.449C386.9 966.943 384.784 964.962 382.039 963.491C379.294 962.02 376.457 961.285 373.513 961.285C370.185 961.285 367.44 962.276 365.278 964.256C363.101 966.237 362.027 968.503 362.027 971.025C362.027 972.961 362.717 974.731 364.082 976.322C366.06 978.663 370.768 981.785 378.205 985.702C384.278 988.883 388.418 991.329 390.626 993.04C392.85 994.751 394.552 996.747 395.748 999.058C396.944 1001.37 397.542 1003.79 397.542 1006.32C397.542 1011.14 395.641 1015.28 391.822 1018.76C388.004 1022.24 383.097 1023.99 377.101 1023.99C375.215 1023.99 373.451 1023.85 371.78 1023.56C370.783 1023.41 368.744 1022.84 365.631 1021.85C362.518 1020.86 360.54 1020.38 359.712 1020.38C358.883 1020.38 358.285 1020.62 357.825 1021.09C357.365 1021.55 357.013 1022.53 356.798 1024H355.019V1002.21H356.798C357.626 1006.77 358.745 1010.18 360.156 1012.44C361.567 1014.71 363.714 1016.59 366.597 1018.09C369.48 1019.59 372.654 1020.34 376.104 1020.34C380.091 1020.34 383.25 1019.3 385.566 1017.25C387.881 1015.19 389.031 1012.74 389.031 1009.94C389.031 1008.38 388.587 1006.8 387.713 1005.21C386.839 1003.62 385.474 1002.13 383.618 1000.75C382.376 999.823 378.972 997.827 373.421 994.781C367.87 991.735 363.913 989.303 361.567 987.488C359.221 985.672 357.442 983.676 356.231 981.485C355.019 979.294 354.406 976.893 354.406 974.266C354.406 969.704 356.2 965.772 359.773 962.486C363.346 959.184 367.9 957.548 373.421 957.548C376.871 957.548 380.521 958.374 384.385 960.039C386.179 960.82 387.437 961.21 388.173 961.21C389.001 961.21 389.675 960.97 390.212 960.49C390.734 960.009 391.163 959.034 391.485 957.563H393.264L393.248 957.533Z" fill="#D8B886"/>
<path d="M442.902 1020.82V1022.56H415.07V1020.82H417.37C420.053 1020.82 422.001 1020.05 423.212 1018.52C423.979 1017.52 424.362 1015.12 424.362 1011.3V970.244C424.362 967.033 424.163 964.902 423.734 963.866C423.412 963.086 422.752 962.41 421.771 961.855C420.36 961.105 418.903 960.73 417.37 960.73H415.07V958.989H442.902V960.73H440.556C437.903 960.73 435.971 961.495 434.759 963.026C433.962 964.031 433.563 966.432 433.563 970.244V1011.3C433.563 1014.52 433.763 1016.65 434.192 1017.68C434.514 1018.46 435.189 1019.14 436.201 1019.69C437.566 1020.44 439.022 1020.82 440.556 1020.82H442.902Z" fill="#D8B886"/>
<path d="M456.78 1022.54V1020.8H459.218C461.963 1020.8 463.91 1019.95 465.06 1018.22C465.766 1017.19 466.119 1014.88 466.119 1011.29V970.229C466.119 966.267 465.674 963.776 464.784 962.771C463.542 961.39 461.687 960.715 459.233 960.715H456.795V958.974H483.232C492.939 958.974 500.315 960.054 505.375 962.215C510.436 964.376 514.499 967.963 517.582 972.991C520.664 978.018 522.197 983.841 522.197 990.429C522.197 999.268 519.453 1006.67 513.963 1012.59C507.798 1019.21 498.413 1022.53 485.808 1022.53H456.78V1022.54ZM475.319 1017.95C479.368 1018.82 482.772 1019.26 485.517 1019.26C492.924 1019.26 499.073 1016.71 503.949 1011.62C508.841 1006.53 511.279 999.613 511.279 990.909C511.279 982.205 508.841 975.212 503.949 970.139C499.057 965.067 492.786 962.546 485.134 962.546C482.266 962.546 478.984 962.996 475.319 963.911V1017.95Z" fill="#D8B886"/>
<path d="M556.24 962.456V987.578H570.517C574.213 987.578 576.697 987.037 577.939 985.942C579.595 984.501 580.531 981.98 580.715 978.348H582.493V1000.47H580.715C580.27 997.377 579.825 995.396 579.38 994.511C578.813 993.415 577.862 992.56 576.559 991.93C575.255 991.299 573.231 990.999 570.517 990.999H556.24V1011.95C556.24 1014.76 556.363 1016.47 556.624 1017.08C556.884 1017.7 557.329 1018.18 557.958 1018.54C558.602 1018.9 559.813 1019.08 561.592 1019.08H572.603C576.268 1019.08 578.936 1018.82 580.607 1018.33C582.263 1017.83 583.858 1016.84 585.392 1015.37C587.37 1013.44 589.394 1010.51 591.479 1006.61H593.396L587.799 1022.54H537.747V1020.8H540.047C541.58 1020.8 543.037 1020.44 544.402 1019.72C545.429 1019.23 546.12 1018.48 546.488 1017.47C546.856 1016.47 547.04 1014.43 547.04 1011.33V970.049C547.04 966.012 546.626 963.536 545.798 962.591C544.647 961.345 542.731 960.715 540.047 960.715H537.747V958.974H587.799L588.52 972.901H586.649C585.974 969.554 585.238 967.258 584.426 966.012C583.613 964.767 582.401 963.806 580.807 963.146C579.534 962.681 577.28 962.441 574.059 962.441H556.24V962.456Z" fill="#D8B886"/>
<path d="M604.177 958.989H621.796L661.498 1006.65V970.004C661.498 966.102 661.053 963.656 660.164 962.696C658.983 961.39 657.112 960.73 654.566 960.73H652.312V958.989H674.916V960.73H672.615C669.87 960.73 667.923 961.54 666.773 963.161C666.067 964.166 665.715 966.447 665.715 970.004V1023.58H663.997L621.183 972.405V1011.54C621.183 1015.45 621.612 1017.89 622.471 1018.85C623.682 1020.16 625.553 1020.82 628.068 1020.82H630.368V1022.56H607.765V1020.82H610.019C612.795 1020.82 614.758 1020.01 615.908 1018.39C616.613 1017.38 616.966 1015.1 616.966 1011.54V967.348C615.08 965.187 613.654 963.776 612.687 963.086C611.706 962.395 610.28 961.765 608.394 961.165C607.474 960.88 606.063 960.745 604.177 960.745V959.004V958.989Z" fill="#D8B886"/>
<path d="M745.164 957.533L746.651 979.144H745.164C743.185 972.675 740.364 968.023 736.684 965.172C733.019 962.336 728.602 960.91 723.465 960.91C719.156 960.91 715.261 961.975 711.78 964.121C708.299 966.267 705.554 969.674 703.561 974.356C701.567 979.039 700.57 984.876 700.57 991.84C700.57 997.587 701.506 1002.57 703.392 1006.79C705.278 1011 708.115 1014.25 711.887 1016.48C715.675 1018.73 719.984 1019.86 724.845 1019.86C729.062 1019.86 732.773 1018.97 736.009 1017.22C739.229 1015.45 742.771 1011.95 746.636 1006.7L748.123 1007.63C744.872 1013.28 741.069 1017.43 736.73 1020.05C732.39 1022.68 727.237 1023.99 721.257 1023.99C710.492 1023.99 702.165 1020.08 696.261 1012.26C691.86 1006.46 689.652 999.613 689.652 991.735C689.652 985.387 691.109 979.564 694.007 974.251C696.905 968.939 700.908 964.827 705.999 961.9C711.09 958.974 716.656 957.518 722.683 957.518C727.375 957.518 732.006 958.644 736.576 960.895C737.91 961.585 738.876 961.93 739.444 961.93C740.302 961.93 741.054 961.63 741.698 961.045C742.526 960.205 743.124 959.034 743.477 957.533H745.148H745.164Z" fill="#D8B886"/>
<path d="M781.829 962.456V987.578H796.105C799.801 987.578 802.285 987.037 803.527 985.942C805.183 984.501 806.119 981.98 806.303 978.348H808.082V1000.47H806.303C805.858 997.377 805.414 995.396 804.969 994.511C804.401 993.415 803.451 992.56 802.147 991.93C800.844 991.299 798.82 990.999 796.105 990.999H781.829V1011.95C781.829 1014.76 781.951 1016.47 782.212 1017.08C782.473 1017.7 782.918 1018.18 783.546 1018.54C784.19 1018.9 785.402 1019.08 787.181 1019.08H798.191C801.856 1019.08 804.524 1018.82 806.196 1018.33C807.852 1017.83 809.447 1016.84 810.98 1015.37C812.958 1013.44 814.982 1010.51 817.068 1006.61H818.985L813.388 1022.54H763.335V1020.8H765.635C767.169 1020.8 768.626 1020.44 769.99 1019.72C771.018 1019.23 771.708 1018.48 772.076 1017.47C772.444 1016.47 772.628 1014.43 772.628 1011.33V970.049C772.628 966.012 772.214 963.536 771.386 962.591C770.236 961.345 768.319 960.715 765.635 960.715H763.335V958.974H813.388L814.108 972.901H812.237C811.563 969.554 810.827 967.258 810.014 966.012C809.201 964.767 807.99 963.806 806.395 963.146C805.122 962.681 802.868 962.441 799.648 962.441H781.829V962.456Z" fill="#D8B886"/>
<path style="mix-blend-mode:multiply" opacity="0.32" d="M599.07 405.359L602.06 403.468C700.049 344.97 759.21 277.423 759.21 180.927C759.21 129.662 734.567 86.2463 685.266 51.8648C636.563 17.4834 576.789 0 505.912 0C503.321 0 500.775 0.135065 498.214 0.195093V1.98095C552.944 3.73679 597.659 22.991 632.868 60.3139C669.84 98.312 688.333 140.527 688.333 194.808C688.333 287.688 684.638 351.003 597.736 404.083" fill="url(#paint0_linear_394_310)"/>
<path style="mix-blend-mode:multiply" opacity="0.32" d="M409.702 452.647L405.976 454.853C398.14 458.845 390.549 462.927 383.143 467.053C338.764 490.585 297.008 519.474 264.805 557.937C214.277 616.78 202.608 706.778 243.996 773.59C296.517 855.514 397.45 895.028 498.122 894.473V882.377C389.123 880.606 304.307 806.816 304.307 687.659C304.307 586.946 330.806 501.3 411.543 453.652" fill="url(#paint1_linear_394_310)"/>
</g>
<defs>
<linearGradient id="paint0_linear_394_310" x1="692.658" y1="13.3564" x2="532.357" y2="291.569" gradientUnits="userSpaceOnUse">
<stop stop-color="white"/>
<stop offset="0.08" stop-color="#F7F6F6"/>
<stop offset="0.22" stop-color="#E4DDDD"/>
<stop offset="0.4" stop-color="#C4B5B5"/>
<stop offset="0.6" stop-color="#987E7E"/>
<stop offset="0.83" stop-color="#603939"/>
<stop offset="1" stop-color="#330000"/>
</linearGradient>
<linearGradient id="paint1_linear_394_310" x1="353.301" y1="893.978" x2="376.89" y2="381.705" gradientUnits="userSpaceOnUse">
<stop stop-color="white"/>
<stop offset="0.08" stop-color="#F7F6F6"/>
<stop offset="0.22" stop-color="#E4DDDD"/>
<stop offset="0.4" stop-color="#C4B5B5"/>
<stop offset="0.6" stop-color="#987E7E"/>
<stop offset="0.83" stop-color="#603939"/>
<stop offset="1" stop-color="#330000"/>
</linearGradient>
<clipPath id="clip0_394_310">
<rect width="614" height="1024" fill="white" transform="translate(205)"/>
</clipPath>
</defs>
</svg>
